<?xml version="1.0" standalone="no"?>
<!DOCTYPE svg PUBLIC "-//W3C//DTD SVG 1.1//EN" "http://www.w3.org/Graphics/SVG/1.1/DTD/svg11.dtd" >
<svg xmlns="http://www.w3.org/2000/svg" xmlns:xlink="http://www.w3.org/1999/xlink" version="1.1">
<metadata>
Created by FontForge 20201107 at Sun May 24 11:50:28 2026
 By www-data
Copyright (c) 2021 by Daniel Sabino. All rights reserved.
</metadata>
<defs>
<font id="Elza-Medium" horiz-adv-x="0" >
  <font-face 
    font-family="Elza Medium"
    font-weight="500"
    font-stretch="normal"
    units-per-em="2048"
    panose-1="0 0 6 0 0 0 0 0 0 0"
    ascent="1638"
    descent="-410"
    x-height="1055"
    cap-height="1454"
    bbox="-934 -633 2687 2126"
    underline-thickness="102"
    underline-position="-204"
    unicode-range="U+0020-FB02"
  />
<missing-glyph horiz-adv-x="1449" 
d="M1245 0h-1040v1516h1040v-1516zM444 1315v-1114h562v1114h-562z" />
    <glyph glyph-name="fi" unicode="fi" horiz-adv-x="1226" 
d="M453 0h-226v885h-204v170h204v176q0 311 346 311q78 0 172 -24v-179q-81 21 -129 21q-91 0 -127 -36.5t-36 -117.5v-151h286v-170h-286v-885zM1120 1208h-235v308h235v-308zM1114 1055v-1055h-225v1055h225z" />
    <glyph glyph-name="fl" unicode="fl" horiz-adv-x="1228" 
d="M453 0h-226v885h-204v170h204v176q0 311 346 311q78 0 172 -24v-179q-81 21 -129 21q-91 0 -127 -36.5t-36 -117.5v-151h286v-170h-286v-885zM1114 1516v-1516h-225v1516h225z" />
    <glyph glyph-name="f_b.liga" unicode="fb" horiz-adv-x="1982" 
d="M453 0h-226v885h-204v170h204v176q0 311 346 311q78 0 172 -24v-179q-81 21 -129 21q-91 0 -127 -36.5t-36 -117.5v-151h286v-170h-286v-885zM1454 -27q-124 0 -214.5 58.5t-133.5 142.5l-6 -174h-211v1516h227v-617q49 81 137 130.5t207 49.5q205 0 328 -149.5
t123 -386.5v-31q0 -238 -126 -388.5t-331 -150.5zM1399 156q135 0 208.5 93.5t73.5 262.5v31q0 171 -73.5 264.5t-208.5 93.5q-140 0 -215.5 -93.5t-75.5 -264.5v-31q0 -171 75 -263.5t216 -92.5z" />
    <glyph glyph-name="f_f.liga" unicode="ff" horiz-adv-x="1552" 
d="M453 0h-226v885h-204v170h204v176q0 311 346 311q78 0 172 -24v-179q-81 21 -129 21q-91 0 -127 -36.5t-36 -117.5v-151h286v-170h-286v-885zM1229 0h-225v885h-205v170h205v176q0 311 346 311q78 0 172 -24v-179q-81 21 -129 21q-91 0 -127.5 -36.5t-36.5 -117.5v-151
h287v-170h-287v-885z" />
    <glyph glyph-name="f_f_b.liga" unicode="ffb" horiz-adv-x="2758" 
d="M453 0h-226v885h-204v170h204v176q0 311 346 311q78 0 172 -24v-179q-81 21 -129 21q-91 0 -127 -36.5t-36 -117.5v-151h286v-170h-286v-885zM1229 0h-225v885h-205v170h205v176q0 311 346 311q78 0 172 -24v-179q-81 21 -129 21q-91 0 -127.5 -36.5t-36.5 -117.5v-151
h287v-170h-287v-885zM2230 -27q-124 0 -214.5 58.5t-133.5 142.5l-6 -174h-211v1516h227v-617q49 81 137 130.5t207 49.5q205 0 328 -149.5t123 -386.5v-31q0 -238 -126 -388.5t-331 -150.5zM2175 156q135 0 209 93.5t74 262.5v31q0 170 -74 264t-209 94
q-140 0 -215.5 -93.5t-75.5 -264.5v-31q0 -171 75 -263.5t216 -92.5z" />
    <glyph glyph-name="f_f_h.liga" unicode="ffh" horiz-adv-x="2697" 
d="M453 0h-226v885h-204v170h204v176q0 311 346 311q78 0 172 -24v-179q-81 21 -129 21q-91 0 -127 -36.5t-36 -117.5v-151h286v-170h-286v-885zM1229 0h-225v885h-205v170h205v176q0 311 346 311q78 0 172 -24v-179q-81 21 -129 21q-91 0 -127.5 -36.5t-36.5 -117.5v-151
h287v-170h-287v-885zM1890 0h-225v1516h227v-623q46 84 130.5 135t203.5 51q185 0 275 -105.5t90 -293.5v-680h-224v625q0 133 -52 200.5t-165 67.5q-118 0 -189 -81.5t-71 -221.5v-590z" />
    <glyph glyph-name="f_f_i.liga" unicode="ffi" horiz-adv-x="2002" 
d="M453 0h-226v885h-204v170h204v176q0 311 346 311q78 0 172 -24v-179q-81 21 -129 21q-91 0 -127 -36.5t-36 -117.5v-151h286v-170h-286v-885zM1229 0h-225v885h-205v170h205v176q0 311 346 311q78 0 172 -24v-179q-81 21 -129 21q-91 0 -127.5 -36.5t-36.5 -117.5v-151
h287v-170h-287v-885zM1896 1516v-308h-235v308h235zM1665 1055h225v-1055h-225v1055z" />
    <glyph glyph-name="f_f_j.liga" unicode="ffj" horiz-adv-x="2056" 
d="M453 0h-226v885h-204v170h204v176q0 311 346 311q78 0 172 -24v-179q-81 21 -129 21q-91 0 -127 -36.5t-36 -117.5v-151h286v-170h-286v-885zM1229 0h-225v885h-205v170h205v176q0 311 346 311q78 0 172 -24v-179q-81 21 -129 21q-91 0 -127.5 -36.5t-36.5 -117.5v-151
h287v-170h-287v-885zM1946 1208h-236v308h236v-308zM1622 -375q-81 0 -160 27v176q58 -21 115 -21q76 0 108.5 37t32.5 117v1094h226v-1118q0 -152 -80.5 -232t-241.5 -80z" />
    <glyph glyph-name="f_f_k.liga" unicode="ffk" horiz-adv-x="2600" 
d="M453 0h-226v885h-204v170h204v176q0 311 346 311q78 0 172 -24v-179q-81 21 -129 21q-91 0 -127 -36.5t-36 -117.5v-151h286v-170h-286v-885zM1229 0h-225v885h-205v170h205v176q0 311 346 311q78 0 172 -24v-179q-81 21 -129 21q-91 0 -127.5 -36.5t-36.5 -117.5v-151
h287v-170h-287v-885zM1890 389v-389h-225v1516h225v-883l414 422h272l-419 -422l434 -633h-258l-338 494z" />
    <glyph glyph-name="f_f_l.liga" unicode="ffl" horiz-adv-x="2004" 
d="M453 0h-226v885h-204v170h204v176q0 311 346 311q78 0 172 -24v-179q-81 21 -129 21q-91 0 -127 -36.5t-36 -117.5v-151h286v-170h-286v-885zM1229 0h-225v885h-205v170h205v176q0 311 346 311q78 0 172 -24v-179q-81 21 -129 21q-91 0 -127.5 -36.5t-36.5 -117.5v-151
h287v-170h-287v-885zM1665 1516h225v-1516h-225v1516z" />
    <glyph glyph-name="f_h.liga" unicode="fh" horiz-adv-x="1921" 
d="M453 0h-226v885h-204v170h204v176q0 311 346 311q78 0 172 -24v-179q-81 21 -129 21q-91 0 -127 -36.5t-36 -117.5v-151h286v-170h-286v-885zM1114 0h-225v1516h227v-623q46 84 130.5 135t203.5 51q185 0 275 -105.5t90 -293.5v-680h-224v625q0 133 -52 200.5t-165 67.5
q-118 0 -189 -81.5t-71 -221.5v-590z" />
    <glyph glyph-name="f_idieresis.liga" unicode="f&#xef;" horiz-adv-x="1259" 
d="M453 0h-226v885h-204v170h204v176q0 311 346 311q78 0 172 -24v-179q-81 21 -129 21q-91 0 -127 -36.5t-36 -117.5v-151h286v-170h-286v-885zM973 1516v-308h-201v308h201zM1298 1516v-308h-200v308h200zM1147 1055v-1055h-225v1055h225z" />
    <glyph glyph-name="f_j.liga" unicode="fj" horiz-adv-x="1280" 
d="M453 0h-226v885h-204v170h204v176q0 311 346 311q78 0 172 -24v-179q-81 21 -129 21q-91 0 -127 -36.5t-36 -117.5v-151h286v-170h-286v-885zM1169 1516v-308h-235v308h235zM846 -375q-81 0 -160 27v176q58 -21 115 -21q76 0 108.5 37t32.5 117v1094h225v-1118
q0 -153 -80 -232.5t-241 -79.5z" />
    <glyph glyph-name="f_k.liga" unicode="fk" horiz-adv-x="1826" 
d="M453 0h-226v885h-204v170h204v176q0 311 346 311q78 0 172 -24v-179q-81 21 -129 21q-91 0 -127 -36.5t-36 -117.5v-151h286v-170h-286v-885zM1219 494l-105 -105v-389h-225v1516h225v-883l414 422h272l-420 -422l435 -633h-259z" />
    <glyph glyph-name=".notdef" horiz-adv-x="1449" 
d="M1245 0h-1040v1516h1040v-1516zM444 1315v-1114h562v1114h-562z" />
    <glyph glyph-name=".null" 
 />
    <glyph glyph-name="nonmarkingreturn" horiz-adv-x="682" 
 />
    <glyph glyph-name="space" unicode=" " horiz-adv-x="380" 
 />
    <glyph glyph-name="exclam" unicode="!" horiz-adv-x="495" 
d="M322 414h-148l-45 639v401h238v-401zM371 0h-244v246h244v-246z" />
    <glyph glyph-name="quotedbl" unicode="&#x22;" horiz-adv-x="1003" 
d="M397 1016h-174l-30 391v109h235v-109zM778 1016h-174l-31 391v109h236v-109z" />
    <glyph glyph-name="numbersign" unicode="#" horiz-adv-x="1169" 
d="M393 0h-186l33 403h-199v175h211l22 301h-200v176h215l30 399h187l-31 -399h281l28 399h187l-31 -399h188v-176h-204l-21 -301h191v-175h-205l-31 -403h-186l30 403h-278zM459 879l-23 -301h279l24 301h-280z" />
    <glyph glyph-name="dollar" unicode="$" horiz-adv-x="1284" 
d="M735 1274v-440q247 -47 365.5 -145t118.5 -267v-16q0 -176 -130.5 -293.5t-353.5 -137.5v-139h-149v139q-234 19 -373.5 145.5t-149.5 340.5h238q13 -127 87.5 -197t197.5 -86v465q-255 48 -363 147t-108 265v14q0 169 129 283t342 127v139h149v-143q196 -22 318.5 -136
t140.5 -307h-240q-24 199 -219 242zM348 1075v-10q0 -77 50 -123t188 -80v420q-112 -10 -175 -65t-63 -142zM983 389v10q0 79 -55 128t-193 85v-436q114 11 181 65.5t67 147.5z" />
    <glyph glyph-name="percent" unicode="%" horiz-adv-x="1681" 
d="M387 799q-61 0 -121 21t-111.5 61t-83.5 107t-32 151q0 86 31.5 154t83.5 107.5t111.5 60t121.5 20.5q61 0 120.5 -20.5t111.5 -60t84 -107.5t32 -154q0 -83 -32 -150.5t-84 -107.5t-111.5 -61t-120.5 -21zM416 0h-228l1072 1454h225zM387 971q70 0 117 46t47 122
q0 80 -46.5 125t-117.5 45q-72 0 -119 -45t-47 -125q0 -76 47.5 -122t118.5 -46zM1294 -27q-61 0 -120.5 21t-110.5 61t-83 107t-32 151q0 69 21 127t55.5 97t80 66.5t93.5 39.5t96 12q62 0 122 -20.5t112.5 -60t84.5 -107.5t32 -154q0 -84 -32.5 -151t-84.5 -107
t-112.5 -61t-121.5 -21zM1294 145q71 0 118.5 46t47.5 122q0 82 -47 126t-119 44q-71 0 -117.5 -44.5t-46.5 -125.5q0 -76 47 -122t117 -46z" />
    <glyph glyph-name="ampersand" unicode="&#x26;" horiz-adv-x="1308" 
d="M1100 236l192 -236h-260l-74 90q-168 -117 -385 -117q-230 0 -366.5 115.5t-136.5 296.5q0 126 68.5 222.5t232.5 195.5l-23 26q-131 152 -131 308q0 148 105 246t280 98q154 0 253 -94.5t99 -231.5q0 -121 -67.5 -214.5t-210.5 -182.5l276 -342q46 120 29 274h227
q18 -270 -108 -454zM596 1288q-69 0 -109.5 -43t-40.5 -112q0 -51 20 -96t64 -101l25 -29q100 61 136 114t36 128q0 61 -36 100t-95 39zM582 174q142 0 245 74l-331 403q-109 -69 -149 -127.5t-40 -132.5q0 -97 71.5 -157t203.5 -60z" />
    <glyph glyph-name="quotesingle" unicode="'" horiz-adv-x="622" 
d="M397 1016h-174l-30 391v109h235v-109z" />
    <glyph glyph-name="parenleft" unicode="(" horiz-adv-x="679" 
d="M639 -264h-201q-154 188 -239.5 419.5t-85.5 471.5q0 237 85 467.5t240 421.5h201q-127 -191 -202 -427.5t-75 -461.5t75 -462.5t202 -428.5z" />
    <glyph glyph-name="parenright" unicode=")" horiz-adv-x="679" 
d="M244 -264h-203q127 191 201.5 428.5t74.5 462.5t-74.5 461.5t-201.5 427.5h203q154 -191 238.5 -421.5t84.5 -467.5q0 -241 -84.5 -472t-238.5 -419z" />
    <glyph glyph-name="asterisk" unicode="*" horiz-adv-x="935" 
d="M469 1190l-86 -191l-139 80l129 150l-180 16l30 146l193 -68l-29 193h162l-29 -195l193 70l30 -146l-182 -14l133 -152l-139 -80z" />
    <glyph glyph-name="plus" unicode="+" horiz-adv-x="1126" 
d="M670 252h-211v393h-367v199h367v393h211v-393h366v-199h-366v-393z" />
    <glyph glyph-name="comma" unicode="," horiz-adv-x="630" 
d="M127 -344v125q91 0 131.5 41t40.5 135v43h-106v246h243v-275q0 -157 -78.5 -236t-230.5 -79z" />
    <glyph glyph-name="hyphen" unicode="-" horiz-adv-x="858" 
d="M745 502h-634v194h634v-194z" />
    <glyph glyph-name="period" unicode="." horiz-adv-x="630" 
d="M436 0h-243v246h243v-246z" />
    <glyph glyph-name="slash" unicode="/" horiz-adv-x="942" 
d="M311 -205h-209l529 1721h209z" />
    <glyph glyph-name="zero" unicode="0" horiz-adv-x="1259" 
d="M629 -27q-259 0 -399 195t-140 539v41q0 342 140 537.5t399 195.5q262 0 401 -195t139 -538v-41q0 -346 -138 -540t-402 -194zM629 170q154 0 225.5 128.5t71.5 397.5v62q0 268 -71.5 397t-225.5 129q-150 0 -222.5 -130t-72.5 -396v-62q0 -267 72.5 -396.5t222.5 -129.5
z" />
    <glyph glyph-name="one" unicode="1" horiz-adv-x="778" 
d="M606 0h-233v1137q-117 -100 -293 -136v213q229 50 352 240h174v-1454z" />
    <glyph glyph-name="two" unicode="2" horiz-adv-x="1110" 
d="M1053 0h-996v164q0 78 9.5 137t38 121t78.5 112.5t132.5 102t198.5 98.5q122 50 185 95.5t85.5 95.5t22.5 129v6q0 98 -63 161.5t-171 63.5q-123 0 -192 -68.5t-74 -193.5h-237q12 208 145.5 332.5t353.5 124.5q210 0 341.5 -119.5t131.5 -294.5v-12q0 -79 -17.5 -141
t-61.5 -124t-126.5 -118.5t-205.5 -108.5q-105 -46 -168.5 -84.5t-98.5 -82.5t-46.5 -87.5t-12.5 -109.5h748v-199z" />
    <glyph glyph-name="three" unicode="3" horiz-adv-x="1259" 
d="M633 -27q-243 0 -388.5 124t-154.5 339h238q10 -127 90 -194.5t217 -67.5q126 0 207.5 64t81.5 170v28q0 106 -78 164.5t-205 58.5h-152v187h148q110 0 181 54t71 151v28q0 91 -70.5 149t-179.5 58q-129 0 -204 -68.5t-83 -193.5h-229q9 205 151.5 331t360.5 126
q135 0 244 -48t172 -137.5t63 -203.5v-23q0 -108 -63 -190.5t-168 -116.5q125 -32 202.5 -121.5t77.5 -220.5v-23q0 -188 -149 -306t-381 -118z" />
    <glyph glyph-name="four" unicode="4" horiz-adv-x="1214" 
d="M940 0h-225v348h-666v189l656 917h235v-915h207v-191h-207v-348zM715 1163l-443 -626h443v626z" />
    <glyph glyph-name="five" unicode="5" horiz-adv-x="1259" 
d="M637 -27q-224 0 -366.5 120t-157.5 323h237q12 -118 92.5 -182t198.5 -64q128 0 209.5 78t81.5 205v28q0 129 -80 206t-211 77q-88 0 -160 -39t-114 -102l-201 14l129 817h805v-199h-631l-68 -411q117 104 293 104q203 0 337 -128.5t134 -334.5v-22q0 -216 -148 -353
t-380 -137z" />
    <glyph glyph-name="six" unicode="6" horiz-adv-x="1259" 
d="M645 -27q-257 0 -404 186.5t-147 528.5v74q0 340 147 529.5t406 189.5q206 0 341 -110t163 -300h-236q-20 102 -90 157.5t-178 55.5q-161 0 -244.5 -118.5t-83.5 -385.5v-39q53 90 150.5 143.5t224.5 53.5q129 0 235 -55t169 -159t63 -239v-22q0 -214 -145 -352
t-371 -138zM645 166q123 0 199 79t76 208v28q0 120 -75.5 194.5t-199.5 74.5q-125 0 -204 -76t-79 -195v-26q0 -125 79 -206t204 -81z" />
    <glyph glyph-name="seven" unicode="7" horiz-adv-x="1155" 
d="M522 0h-258q124 646 584 1255h-774v199h1034v-166q-469 -607 -586 -1288z" />
    <glyph glyph-name="eight" unicode="8" horiz-adv-x="1259" 
d="M631 -27q-237 0 -386 115t-149 305v21q0 130 78.5 222t200.5 126q-102 38 -163.5 120.5t-61.5 192.5v21q0 169 137 277t344 108q134 0 243 -48.5t172.5 -137t63.5 -199.5v-21q0 -110 -62 -192.5t-165 -120.5q122 -34 201 -126t79 -222v-21q0 -190 -147.5 -305
t-384.5 -115zM631 854q109 0 180.5 56.5t71.5 152.5v18q0 96 -71 153.5t-181 57.5t-182 -57.5t-72 -153.5v-18q0 -96 72 -152.5t182 -56.5zM631 168q127 0 209 65t82 173v18q0 108 -82.5 173t-208.5 65q-127 0 -210 -65t-83 -173v-18q0 -108 82.5 -173t210.5 -65z" />
    <glyph glyph-name="nine" unicode="9" horiz-adv-x="1259" 
d="M612 -27q-206 0 -340.5 110t-160.5 300h233q17 -100 87.5 -156.5t180.5 -56.5q161 0 244.5 118.5t83.5 385.5v39q-51 -90 -149.5 -143.5t-225.5 -53.5q-129 0 -235 55t-169 159t-63 239v22q0 214 144.5 352t371.5 138q257 0 404 -186t147 -527v-76q0 -340 -147 -529.5
t-406 -189.5zM614 705q126 0 204.5 75.5t78.5 194.5v26q0 125 -79 206t-204 81q-123 0 -198.5 -78.5t-75.5 -208.5v-28q0 -120 75.5 -194t198.5 -74z" />
    <glyph glyph-name="colon" unicode=":" horiz-adv-x="630" 
d="M436 807h-243v248h243v-248zM436 0h-243v246h243v-246z" />
    <glyph glyph-name="semicolon" unicode=";" horiz-adv-x="630" 
d="M436 807h-243v248h243v-248zM127 -344v125q91 0 131.5 41t40.5 135v43h-106v246h243v-275q0 -157 -78.5 -236t-230.5 -79z" />
    <glyph glyph-name="less" unicode="&#x3c;" horiz-adv-x="1126" 
d="M993 500v-191l-891 346v191l891 344v-184l-676 -252z" />
    <glyph glyph-name="equal" unicode="=" horiz-adv-x="1126" 
d="M1034 881h-942v198h942v-198zM1034 432h-942v199h942v-199z" />
    <glyph glyph-name="greater" unicode="&#x3e;" horiz-adv-x="1126" 
d="M1026 655l-893 -346v191l676 254l-676 252v184l893 -344v-191z" />
    <glyph glyph-name="question" unicode="?" horiz-adv-x="1103" 
d="M625 410h-240v34q0 73 24 133t62.5 101t85 76.5t93 66.5t85 63t62.5 75t24 94v20q0 97 -67.5 155t-180.5 58q-125 0 -201 -66.5t-91 -195.5h-238q14 148 87 252.5t185.5 154.5t255.5 50q217 0 353.5 -115.5t136.5 -290.5v-14q0 -76 -24 -137.5t-62.5 -102.5t-85 -75.5
t-93 -65.5t-85 -64.5t-62.5 -81t-24 -106.5v-18zM629 0h-246v256h246v-256z" />
    <glyph glyph-name="at" unicode="@" horiz-adv-x="1978" 
d="M1028 1419q184 0 345 -58t278 -160.5t184.5 -252.5t67.5 -325q0 -170 -57 -307t-163.5 -217.5t-242.5 -80.5q-97 0 -163 48.5t-79 132.5q-46 -78 -134.5 -129.5t-199.5 -51.5q-195 0 -305 143.5t-80 370.5l6 39q29 215 156 340t320 125q107 0 184.5 -46t114.5 -116
l28 138h205l-84 -703q-8 -66 10.5 -96.5t71.5 -30.5q105 0 179.5 121t74.5 320q0 160 -54.5 286t-151.5 206.5t-227 122.5t-284 42q-229 0 -407.5 -95.5t-281.5 -279.5t-103 -430q0 -227 87.5 -387.5t240 -238.5t356.5 -78q140 0 225 30v-145q-77 -31 -225 -31
q-185 0 -341 60t-267 169t-173.5 268.5t-62.5 352.5q0 273 122.5 488.5t339.5 335.5t490 120zM1227 512l4 29q22 155 -38 239t-189 84q-124 0 -197.5 -81t-95.5 -234l-4 -29q-23 -155 39 -241t188 -86q248 0 293 319z" />
    <glyph glyph-name="A" unicode="A" horiz-adv-x="1427" 
d="M1403 0h-252l-129 354h-625l-131 -354h-241l559 1454h260zM711 1200l-240 -647h477z" />
    <glyph glyph-name="B" unicode="B" horiz-adv-x="1323" 
d="M762 0h-639v1454h594q222 0 347.5 -93t125.5 -280v-22q0 -95 -48.5 -172.5t-137.5 -118.5q118 -36 184.5 -127t66.5 -211v-24q0 -190 -136.5 -298t-356.5 -108zM356 1257v-417h349q245 0 245 200v23q0 103 -62.5 148.5t-189.5 45.5h-342zM356 643v-446h387
q126 0 198.5 54.5t72.5 158.5v26q0 101 -66.5 154t-193.5 53h-398z" />
    <glyph glyph-name="C" unicode="C" horiz-adv-x="1431" 
d="M756 -27q-307 0 -493.5 201.5t-186.5 527.5v50q0 213 84 378.5t239.5 258t358.5 92.5q261 0 426.5 -151.5t187.5 -403.5h-242q-22 165 -120.5 257.5t-253.5 92.5q-201 0 -317.5 -144.5t-116.5 -379.5v-50q0 -235 117 -378.5t317 -143.5q164 0 264 101t108 268h244
q-18 -254 -184 -415t-432 -161z" />
    <glyph glyph-name="D" unicode="D" horiz-adv-x="1425" 
d="M631 0h-508v1454h508q215 0 375.5 -79.5t252 -239.5t91.5 -383v-50q0 -332 -196 -517t-523 -185zM360 1253v-1052h254q232 0 361 124t129 377v50q0 253 -129 377t-365 124h-250z" />
    <glyph glyph-name="E" unicode="E" horiz-adv-x="1222" 
d="M1137 0h-1014v1454h1001v-199h-764v-413h701v-199h-701v-444h777v-199z" />
    <glyph glyph-name="F" unicode="F" horiz-adv-x="1138" 
d="M360 0h-237v1454h952v-199h-715v-438h648v-199h-648v-618z" />
    <glyph glyph-name="G" unicode="G" horiz-adv-x="1474" 
d="M735 -27q-195 0 -345 92t-232 258t-82 379v50q0 212 84.5 378t240.5 258.5t359 92.5q251 0 415 -138.5t195 -363.5h-242q-28 140 -125 218.5t-245 78.5q-204 0 -320 -144t-116 -380v-50q0 -236 118 -380t320 -144q100 0 179 31.5t127 85.5t73 121t26 143v31h-430v194h639
v-784h-186l-23 201q-55 -102 -171.5 -165t-258.5 -63z" />
    <glyph glyph-name="H" unicode="H" horiz-adv-x="1439" 
d="M362 0h-239v1454h239v-606h715v606h240v-1454h-240v647h-715v-647z" />
    <glyph glyph-name="I" unicode="I" horiz-adv-x="509" 
d="M375 0h-240v1454h240v-1454z" />
    <glyph glyph-name="J" unicode="J" horiz-adv-x="1163" 
d="M555 -27q-239 0 -366.5 124.5t-127.5 334.5v80h236v-76q0 -254 254 -254q132 0 195 69.5t63 215.5v987h238v-977q0 -236 -130 -370t-362 -134z" />
    <glyph glyph-name="K" unicode="K" horiz-adv-x="1294" 
d="M362 0h-239v1454h239v-694l611 694h282l-563 -627l584 -827h-275l-469 668l-170 -189v-479z" />
    <glyph glyph-name="L" unicode="L" horiz-adv-x="1013" 
d="M971 0h-848v1454h239v-1255h609v-199z" />
    <glyph glyph-name="M" unicode="M" horiz-adv-x="1746" 
d="M356 0h-233v1454h350l408 -1159l405 1159h338v-1454h-229v1178l-418 -1178h-201l-420 1180v-1180z" />
    <glyph glyph-name="N" unicode="N" horiz-adv-x="1441" 
d="M354 0h-231v1454h285l682 -1116v1116h229v-1454h-268l-697 1145v-1145z" />
    <glyph glyph-name="O" unicode="O" horiz-adv-x="1533" 
d="M766 -27q-208 0 -365.5 93t-241 258t-83.5 378v50q0 214 84 379t241 257.5t365 92.5q209 0 366.5 -92.5t241.5 -257.5t84 -379v-50q0 -213 -84 -378t-241.5 -258t-366.5 -93zM766 178q210 0 327 141.5t117 382.5v50q0 241 -117 382.5t-327 141.5q-209 0 -326.5 -142
t-117.5 -382v-50q0 -240 118.5 -382t325.5 -142z" />
    <glyph glyph-name="P" unicode="P" horiz-adv-x="1265" 
d="M358 0h-235v1454h592q226 0 361.5 -113.5t135.5 -320.5v-33q0 -207 -135.5 -320.5t-361.5 -113.5h-357v-553zM358 1253v-499h338q127 0 200 58.5t73 174.5v33q0 116 -73 174.5t-200 58.5h-338z" />
    <glyph glyph-name="Q" unicode="Q" horiz-adv-x="1533" 
d="M1458 752v-50q0 -200 -76 -359t-213 -253l164 -264h-239l-111 176q-106 -29 -217 -29q-208 0 -365.5 93t-241 258t-83.5 378v50q0 214 84 379t241 257.5t365 92.5q209 0 366.5 -92.5t241.5 -257.5t84 -379zM1212 702v50q0 241 -118 382.5t-328 141.5q-209 0 -326.5 -142
t-117.5 -382v-50q0 -240 118.5 -382t325.5 -142q47 0 102 10l-170 275h240l115 -184q159 138 159 423z" />
    <glyph glyph-name="R" unicode="R" horiz-adv-x="1288" 
d="M358 0h-235v1454h612q226 0 362 -113.5t136 -320.5v-33q0 -168 -91 -274.5t-251 -141.5l373 -571h-273l-352 553h-281v-553zM358 1253v-499h359q127 0 199.5 58t72.5 175v33q0 117 -72.5 175t-199.5 58h-359z" />
    <glyph glyph-name="S" unicode="S" horiz-adv-x="1284" 
d="M659 -27q-264 0 -424 128.5t-172 359.5h238q7 -75 37.5 -131t79.5 -90t112 -51t140 -17q142 0 227.5 56t85.5 161v10q0 95 -82.5 149t-300.5 93q-261 46 -373 146t-112 268v14q0 181 144.5 296.5t379.5 115.5q154 0 273 -49.5t193.5 -152t88.5 -247.5h-240
q-15 124 -98.5 188t-220.5 64q-134 0 -210.5 -56.5t-76.5 -152.5v-10q0 -60 26.5 -98.5t104 -70.5t219.5 -56q267 -45 394 -144t127 -274v-16q0 -192 -152.5 -312.5t-407.5 -120.5z" />
    <glyph glyph-name="T" unicode="T" horiz-adv-x="1181" 
d="M711 0h-240v1255h-428v199h1098v-199h-430v-1255z" />
    <glyph glyph-name="U" unicode="U" horiz-adv-x="1409" 
d="M705 -27q-288 0 -438 151.5t-150 430.5v899h239v-893q0 -379 349 -379q173 0 261.5 96t88.5 285v891h237v-897q0 -279 -149.5 -431.5t-437.5 -152.5z" />
    <glyph glyph-name="V" unicode="V" horiz-adv-x="1337" 
d="M799 0h-260l-514 1454h254l395 -1186l391 1186h246z" />
    <glyph glyph-name="W" unicode="W" horiz-adv-x="1978" 
d="M690 0h-276l-389 1454h247l287 -1157l309 1157h258l306 -1159l284 1159h238l-391 -1454h-267l-303 1135z" />
    <glyph glyph-name="X" unicode="X" horiz-adv-x="1374" 
d="M285 0h-269l529 756l-490 698h279l356 -526l363 526h266l-492 -696l531 -758h-281l-395 580z" />
    <glyph glyph-name="Y" unicode="Y" horiz-adv-x="1302" 
d="M770 0h-238v471l-512 983h261l374 -756l375 756h252l-512 -983v-471z" />
    <glyph glyph-name="Z" unicode="Z" horiz-adv-x="1138" 
d="M1081 0h-1024v180l727 1075h-688v199h969v-180l-725 -1075h741v-199z" />
    <glyph glyph-name="bracketleft" unicode="[" horiz-adv-x="745" 
d="M625 -231h-459v1747h459v-205h-217v-1338h217v-204z" />
    <glyph glyph-name="backslash" unicode="\" horiz-adv-x="960" 
d="M858 -205h-227l-529 1721h228z" />
    <glyph glyph-name="bracketright" unicode="]" horiz-adv-x="745" 
d="M580 -231h-459v204h217v1338h-217v205h459v-1747z" />
    <glyph glyph-name="asciicircum" unicode="^" horiz-adv-x="888" 
d="M285 272h-174l219 865h227l219 -865h-172l-160 660z" />
    <glyph glyph-name="underscore" unicode="_" horiz-adv-x="753" 
d="M684 -219h-614v192h614v-192z" />
    <glyph glyph-name="grave" unicode="`" horiz-adv-x="940" 
d="M506 1516l229 -308h-205l-325 308h301z" />
    <glyph glyph-name="a" unicode="a" horiz-adv-x="1087" 
d="M420 -27q-161 0 -257.5 87.5t-96.5 224.5q0 126 73.5 205t208.5 98l416 61v76q0 87 -56 132.5t-157 45.5q-99 0 -160.5 -43.5t-68.5 -122.5h-216q13 161 133.5 251.5t315.5 90.5q201 0 313.5 -98t112.5 -264v-717h-207l-8 164q-50 -90 -141 -140.5t-205 -50.5zM471 152
q121 0 207 67t86 168v96l-338 -47q-72 -11 -106.5 -45.5t-34.5 -95.5q0 -67 49 -105t137 -38z" />
    <glyph glyph-name="b" unicode="b" horiz-adv-x="1206" 
d="M678 -27q-124 0 -214.5 58.5t-133.5 142.5l-6 -174h-211v1516h227v-617q49 81 137 130.5t207 49.5q205 0 328 -149.5t123 -386.5v-31q0 -238 -126 -388.5t-331 -150.5zM623 156q135 0 208.5 93.5t73.5 262.5v31q0 171 -73.5 264.5t-208.5 93.5q-140 0 -215.5 -93.5
t-75.5 -264.5v-31q0 -171 75 -263.5t216 -92.5z" />
    <glyph glyph-name="c" unicode="c" horiz-adv-x="1110" 
d="M580 -27q-236 0 -372 148t-136 391v31q0 243 136 389.5t374 146.5q197 0 321 -107.5t146 -291.5h-222q-38 217 -249 217q-136 0 -206.5 -91.5t-70.5 -262.5v-31q0 -172 70.5 -264t206.5 -92q109 0 171 58.5t80 162.5h224q-26 -188 -151.5 -296t-321.5 -108z" />
    <glyph glyph-name="d" unicode="d" horiz-adv-x="1204" 
d="M526 -27q-205 0 -329.5 150t-124.5 389v31q0 238 122 387t328 149q119 0 207 -49.5t137 -128.5v615h226v-1516h-209l-6 176q-43 -84 -134.5 -143.5t-216.5 -59.5zM584 156q140 0 215 92.5t75 263.5v31q0 171 -75.5 264.5t-214.5 93.5q-135 0 -209 -94t-74 -264v-31
q0 -169 73.5 -262.5t209.5 -93.5z" />
    <glyph glyph-name="e" unicode="e" horiz-adv-x="1161" 
d="M594 -27q-243 0 -382.5 148t-139.5 391v31q0 242 140.5 389t381.5 147q254 0 382 -162.5t116 -439.5h-789q7 -158 82 -240.5t209 -82.5q107 0 174.5 47t91.5 129h225q-39 -168 -167 -262.5t-324 -94.5zM307 639h553q-12 126 -79 194t-189 68q-247 0 -285 -262z" />
    <glyph glyph-name="f" unicode="f" horiz-adv-x="776" 
d="M453 0h-226v885h-204v170h204v176q0 311 346 311q78 0 172 -24v-179q-81 21 -129 21q-91 0 -127 -36.5t-36 -117.5v-151h286v-170h-286v-885z" />
    <glyph glyph-name="g" unicode="g" horiz-adv-x="1204" 
d="M575 -375q-212 0 -335.5 85.5t-141.5 228.5h246q19 -144 244 -144q132 0 205 64.5t73 187.5v156q-44 -82 -132.5 -134.5t-205.5 -52.5q-137 0 -242 67.5t-159.5 183t-54.5 261.5v41q0 223 123 366.5t327 143.5q126 0 218.5 -57.5t136.5 -140.5l6 174h209v-987
q0 -207 -134.5 -325t-382.5 -118zM584 197q138 0 214 89t76 242v41q0 156 -75.5 244t-214.5 88q-135 0 -209 -88.5t-74 -243.5v-41q0 -152 74.5 -241.5t208.5 -89.5z" />
    <glyph glyph-name="h" unicode="h" horiz-adv-x="1144" 
d="M338 0h-225v1516h227v-623q46 84 130.5 135t203.5 51q185 0 274.5 -105.5t89.5 -293.5v-680h-223v625q0 133 -52 200.5t-165 67.5q-118 0 -189 -81.5t-71 -221.5v-590z" />
    <glyph glyph-name="i" unicode="i" horiz-adv-x="450" 
d="M344 1516v-308h-235v308h235zM113 1055h225v-1055h-225v1055z" />
    <glyph glyph-name="j" unicode="j" horiz-adv-x="503" 
d="M393 1516v-308h-235v308h235zM70 -375q-81 0 -160 27v176q54 -21 115 -21q76 0 108.5 37t32.5 117v1094h225v-1118q0 -153 -80 -232.5t-241 -79.5z" />
    <glyph glyph-name="k" unicode="k" horiz-adv-x="1048" 
d="M442 494l-104 -105v-389h-225v1516h225v-883l414 422h272l-420 -422l434 -633h-258z" />
    <glyph glyph-name="l" unicode="l" horiz-adv-x="450" 
d="M113 1516h225v-1516h-225v1516z" />
    <glyph glyph-name="m" unicode="m" horiz-adv-x="1783" 
d="M338 0h-225v1055h217l6 -164q44 82 126.5 135t199.5 53q239 0 315 -205q118 205 348 205q177 0 264.5 -105t87.5 -294v-680h-225v635q0 131 -49.5 194.5t-153.5 63.5q-114 0 -176.5 -80.5t-62.5 -226.5v-586h-226v633q0 131 -48.5 195.5t-151.5 64.5q-115 0 -180.5 -80.5
t-65.5 -228.5v-584z" />
    <glyph glyph-name="n" unicode="n" horiz-adv-x="1144" 
d="M338 0h-225v1055h217l8 -168q45 85 130.5 138.5t205.5 53.5q185 0 274.5 -105.5t89.5 -293.5v-680h-223v625q0 133 -52 200.5t-165 67.5q-118 0 -189 -81.5t-71 -221.5v-590z" />
    <glyph glyph-name="o" unicode="o" horiz-adv-x="1185" 
d="M592 -27q-235 0 -377.5 148.5t-142.5 390.5v31q0 242 142 389t378 147q237 0 379.5 -147t142.5 -389v-31q0 -242 -142.5 -390.5t-379.5 -148.5zM592 156q144 0 218.5 92t74.5 264v31q0 171 -74.5 262.5t-218.5 91.5q-142 0 -216.5 -91.5t-74.5 -262.5v-31
q0 -171 74.5 -263.5t216.5 -92.5z" />
    <glyph glyph-name="p" unicode="p" horiz-adv-x="1206" 
d="M340 -348h-227v1403h211l6 -174q42 83 135 140.5t219 57.5q205 0 328 -148.5t123 -387.5v-31q0 -239 -125 -389t-332 -150q-116 0 -204 53t-134 134v-508zM623 156q135 0 208.5 93t73.5 263v31q0 171 -73.5 264.5t-208.5 93.5q-140 0 -215.5 -93.5t-75.5 -264.5v-31
q0 -171 75 -263.5t216 -92.5z" />
    <glyph glyph-name="q" unicode="q" horiz-adv-x="1204" 
d="M1092 -348h-226v508q-46 -82 -134.5 -134.5t-205.5 -52.5q-207 0 -330.5 150t-123.5 389v31q0 239 122.5 387.5t327.5 148.5q126 0 218.5 -57.5t136.5 -140.5l6 174h209v-1403zM584 156q139 0 214.5 93t75.5 263v31q0 171 -75 264.5t-215 93.5q-136 0 -209.5 -93.5
t-73.5 -264.5v-31q0 -170 74 -263t209 -93z" />
    <glyph glyph-name="r" unicode="r" horiz-adv-x="749" 
d="M338 0h-225v1055h217l6 -205q44 105 126 165t193 60q31 0 58 -6v-219q-40 4 -70 4q-145 0 -225 -81t-80 -236v-537z" />
    <glyph glyph-name="s" unicode="s" horiz-adv-x="1028" 
d="M524 -27q-204 0 -326 93t-137 262h218q13 -92 77 -138.5t170 -46.5q97 0 155 38.5t58 107.5q0 64 -55.5 99.5t-204.5 62.5q-198 33 -289.5 104.5t-91.5 208.5q0 140 115 227.5t297 87.5q191 0 304 -86t128 -243h-215q-12 79 -69.5 121t-149.5 42q-89 0 -141 -36.5
t-52 -100.5q0 -62 54 -95t198 -56q204 -33 300 -107t96 -209q0 -151 -120.5 -243.5t-318.5 -92.5z" />
    <glyph glyph-name="t" unicode="t" horiz-adv-x="806" 
d="M573 -27q-346 0 -346 312v600h-204v170h204v329h226v-329h286v-170h-286v-576q0 -80 36 -115.5t127 -35.5q67 0 129 20v-180q-84 -25 -172 -25z" />
    <glyph glyph-name="u" unicode="u" horiz-adv-x="1130" 
d="M469 -27q-181 0 -273 106.5t-92 297.5v678h228v-635q0 -126 50.5 -192t160.5 -66q116 0 182 82.5t66 224.5v586h227v-1055h-219l-4 160q-49 -82 -133.5 -134.5t-192.5 -52.5z" />
    <glyph glyph-name="v" unicode="v" horiz-adv-x="1077" 
d="M666 0h-250l-391 1055h237l283 -826l278 826h232z" />
    <glyph glyph-name="w" unicode="w" horiz-adv-x="1605" 
d="M580 0h-238l-317 1055h227l219 -803l219 803h223l224 -809l221 809h223l-319 -1055h-238l-223 784z" />
    <glyph glyph-name="x" unicode="x" horiz-adv-x="1077" 
d="M270 0h-245l381 541l-363 514h260l240 -353l241 353h246l-362 -508l385 -547h-260l-265 385z" />
    <glyph glyph-name="y" unicode="y" horiz-adv-x="1077" 
d="M526 -348h-231l135 354l-405 1049h239l285 -801l274 801h232z" />
    <glyph glyph-name="z" unicode="z" horiz-adv-x="972" 
d="M905 0h-833v164l546 710h-512v181h777v-162l-541 -711h563v-182z" />
    <glyph glyph-name="braceleft" unicode="{" horiz-adv-x="702" 
d="M621 -231h-144q-137 0 -212 75t-75 211v387q0 49 -25.5 75t-70.5 26h-33v250h33q45 0 70.5 25.5t25.5 72.5v338q0 137 75 212t212 75h144v-205h-84q-51 0 -79 -29t-28 -80v-307q0 -88 -25.5 -142.5t-97.5 -84.5q72 -30 97.5 -85t25.5 -143v-358q0 -51 28 -80t79 -29h84
v-204z" />
    <glyph glyph-name="bar" unicode="|" horiz-adv-x="710" 
d="M467 -287h-221v1803h221v-1803z" />
    <glyph glyph-name="braceright" unicode="}" horiz-adv-x="702" 
d="M223 -231h-141v204h82q52 0 80 29t28 80v358q0 89 24.5 143.5t96.5 84.5q-72 30 -96.5 84t-24.5 143v307q0 51 -28 80t-80 29h-82v205h141q137 0 213 -75.5t76 -211.5v-338q0 -47 25.5 -72.5t70.5 -25.5h33v-250h-33q-45 0 -70.5 -26t-25.5 -75v-387q0 -136 -76 -211
t-213 -75z" />
    <glyph glyph-name="asciitilde" unicode="~" horiz-adv-x="843" 
d="M553 455q-43 0 -86.5 21.5t-80.5 43t-64 21.5q-29 0 -42.5 -19.5t-15.5 -62.5h-153q6 136 49 199t131 63q42 0 86.5 -22t82.5 -44t62 -22q30 0 42.5 19.5t15.5 62.5h153q-6 -137 -50 -198.5t-130 -61.5z" />
    <glyph glyph-name="uni00A0" unicode="&#xa0;" horiz-adv-x="380" 
 />
    <glyph glyph-name="exclamdown" unicode="&#xa1;" horiz-adv-x="495" 
d="M371 807h-244v248h244v-248zM367 -348h-238v348l45 639h148l45 -639v-348z" />
    <glyph glyph-name="cent" unicode="&#xa2;" horiz-adv-x="1110" 
d="M829 377h224q-25 -170 -131.5 -275.5t-274.5 -124.5v-151h-141v151q-204 23 -319 167.5t-115 367.5v31q0 222 115 364.5t319 167.5v137h141v-137q170 -17 276 -122t126 -273h-222q-28 175 -180 211v-727q76 17 122 72.5t60 140.5zM301 543v-31q0 -147 52 -236t153 -112
v725q-101 -22 -153 -110.5t-52 -235.5z" />
    <glyph glyph-name="sterling" unicode="&#xa3;" horiz-adv-x="1206" 
d="M424 197h698v-197h-1036v137q68 44 111.5 77t87 76.5t64 91.5t20.5 103q0 26 -7 54h-231v159h154q-15 21 -47 64.5t-50.5 71t-40.5 67.5t-32.5 80.5t-10.5 83.5v18q0 176 136 287t342 111q218 0 360.5 -126t151.5 -331h-234q-7 129 -79 198.5t-197 69.5q-112 0 -181 -58
t-69 -157v-22q0 -51 28.5 -106t84 -132.5t79.5 -118.5h375v-159h-311q4 -32 4 -54q0 -166 -170 -288z" />
    <glyph glyph-name="currency" unicode="&#xa4;" horiz-adv-x="1165" 
d="M395 397l-174 -170l-145 142l166 161q-52 84 -52 187q0 104 52 184l-166 160l145 141l174 -166q81 37 187 37q107 0 186 -39l176 168l146 -141l-168 -160q49 -82 49 -184q0 -108 -49 -187l168 -161l-148 -142l-176 170q-77 -39 -184 -39q-108 0 -187 39zM582 561
q73 0 115 43t42 113q0 69 -42.5 111t-114.5 42q-75 0 -117.5 -42t-42.5 -111q0 -70 42.5 -113t117.5 -43z" />
    <glyph glyph-name="yen" unicode="&#xa5;" horiz-adv-x="1302" 
d="M1030 1454h252l-438 -840h231v-147h-305v-123h305v-147h-305v-197h-238v197h-313v147h313v123h-313v147h240l-439 840h261l374 -756z" />
    <glyph glyph-name="brokenbar" unicode="&#xa6;" horiz-adv-x="710" 
d="M455 737h-197l-12 779h221zM467 -287h-221l12 799h197z" />
    <glyph glyph-name="section" unicode="&#xa7;" horiz-adv-x="1150" 
d="M801 444q83 -40 122.5 -93t39.5 -138q0 -152 -122 -244t-319 -92q-203 0 -324.5 92t-136.5 260h218q13 -90 79 -137t168 -47q94 0 153.5 38.5t59.5 106.5q0 59 -53.5 92t-206.5 83q-172 56 -249.5 130t-77.5 197q0 136 108 230q-83 42 -122.5 97t-39.5 144
q0 142 116.5 230t297.5 88q189 0 302 -87t128 -245h-215q-12 79 -69.5 121.5t-149.5 42.5q-87 0 -140 -36.5t-53 -98.5q0 -57 50.5 -87.5t201.5 -78.5q178 -55 260 -133t82 -201q0 -143 -108 -234zM356 719q0 -75 46.5 -116t164.5 -77l78 -24q53 63 53 147q0 74 -48 117
t-171 78q-12 3 -34 10t-33 10q-56 -66 -56 -145z" />
    <glyph glyph-name="dieresis" unicode="&#xa8;" horiz-adv-x="1067" 
d="M440 1516v-308h-235v308h235zM862 1516v-308h-235v308h235z" />
    <glyph glyph-name="copyright" unicode="&#xa9;" horiz-adv-x="1665" 
d="M834 -27q-163 0 -304 57t-240.5 156.5t-156.5 239.5t-57 301t57 301t156.5 239.5t240.5 156.5t304 57q217 0 390 -97t270 -269.5t97 -387.5t-97 -387.5t-270 -269.5t-390 -97zM834 119q259 0 426 172t167 436t-167 436t-426 172t-426.5 -172t-167.5 -436t167.5 -436
t426.5 -172zM844 268q-195 0 -307.5 122.5t-112.5 322.5v26q0 201 112.5 323t309.5 122q162 0 265 -88.5t122 -237.5h-193q-29 164 -198 164q-108 0 -164.5 -74t-56.5 -209v-24q0 -137 56.5 -211t164.5 -74q86 0 136 44t64 122h193q-22 -152 -125 -240t-266 -88z" />
    <glyph glyph-name="ordfeminine" unicode="&#xaa;" horiz-adv-x="720" 
d="M248 778q-95 0 -155 55.5t-60 143.5q0 83 51 134t147 63l228 28v45q0 37 -25 57.5t-72 20.5q-95 0 -104 -76h-199q4 103 88.5 162t221.5 59q135 0 216 -60.5t81 -162.5v-452h-199l-6 96q-29 -54 -84.5 -83.5t-128.5 -29.5zM322 922q57 0 97 31t40 81v45l-150 -18
q-73 -12 -73 -70q0 -32 22.5 -50.5t63.5 -18.5zM664 504h-617v137h617v-137z" />
    <glyph glyph-name="guillemotleft" unicode="&#xab;" horiz-adv-x="1079" 
d="M610 86h-217l-338 410v14l340 410h215l-344 -416zM1010 86h-217l-338 410v14l340 410h215l-344 -416z" />
    <glyph glyph-name="logicalnot" unicode="&#xac;" horiz-adv-x="1269" 
d="M1075 385h-225v270h-657v189h882v-459z" />
    <glyph glyph-name="uni00AD" unicode="&#xad;" horiz-adv-x="858" 
d="M745 502h-634v194h634v-194z" />
    <glyph glyph-name="registered" unicode="&#xae;" horiz-adv-x="1275" 
d="M639 379q-256 0 -411.5 153.5t-155.5 397.5q0 242 156 395.5t411 153.5t410 -153.5t155 -395.5q0 -244 -154.5 -397.5t-410.5 -153.5zM639 512q200 0 306 112.5t106 305.5q0 192 -106 304t-306 112t-307 -112t-107 -304q0 -193 107 -305.5t307 -112.5zM549 641h-139v582
h274q96 0 152.5 -48t56.5 -137v-12q0 -139 -135 -176l149 -209h-157l-138 199h-63v-199zM549 1100v-137h129q74 0 74 63v10q0 64 -74 64h-129z" />
    <glyph glyph-name="macron" unicode="&#xaf;" horiz-adv-x="1036" 
d="M831 1448v-191h-626v191h626z" />
    <glyph glyph-name="degree" unicode="&#xb0;" horiz-adv-x="802" 
d="M401 799q-61 0 -120.5 21t-111.5 61t-84 107.5t-32 150.5q0 86 32 154t84 107.5t111.5 60t120.5 20.5t120.5 -20.5t112 -60t84.5 -107.5t32 -154q0 -67 -21.5 -124.5t-56.5 -96.5t-81 -66.5t-94 -40t-96 -12.5zM401 971q70 0 117 46t47 122q0 80 -46.5 125t-117.5 45
q-72 0 -118.5 -45t-46.5 -125q0 -76 47 -122t118 -46z" />
    <glyph glyph-name="plusminus" unicode="&#xb1;" horiz-adv-x="1126" 
d="M674 557h-215v334h-361v205h361v338h215v-338h356v-205h-356v-334zM1030 172h-932v205h932v-205z" />
    <glyph glyph-name="uni00B2" unicode="&#xb2;" horiz-adv-x="608" 
d="M575 907h-546v94q0 115 51 184.5t180 127.5q88 38 118 65.5t30 69.5v2q0 36 -26 61t-69 25q-52 0 -81 -30.5t-29 -84.5h-166q6 117 78.5 184.5t199.5 67.5q116 0 187 -61.5t71 -153.5v-8q0 -76 -38 -129.5t-150 -103.5q-59 -28 -93 -48t-51 -39.5t-21.5 -35.5t-4.5 -43
h360v-144z" />
    <glyph glyph-name="uni00B3" unicode="&#xb3;" horiz-adv-x="653" 
d="M326 893q-133 0 -212 67.5t-79 182.5h172q6 -115 115 -115q50 0 79 27.5t29 72.5v11q0 45 -29 71.5t-82 26.5h-71v123h71q46 0 72.5 22t26.5 62v6q0 40 -26 65t-70 25q-50 0 -78 -28t-29 -82h-164q4 111 81 177t194 66q114 0 187 -57.5t73 -149.5v-10q0 -52 -31 -94
t-84 -62q62 -16 102.5 -62.5t40.5 -113.5v-10q0 -100 -78 -160.5t-210 -60.5z" />
    <glyph glyph-name="acute" unicode="&#xb4;" horiz-adv-x="940" 
d="M408 1208h-203l229 308h301z" />
    <glyph glyph-name="uni00B5" unicode="&#xb5;" horiz-adv-x="1267" 
d="M328 -348h-215v1403h229v-582q0 -151 75 -234t216 -83q143 0 218 83t75 234v582h229v-1055h-178l-6 158q-56 -89 -142.5 -137t-195.5 -48q-191 0 -305 146v-467z" />
    <glyph glyph-name="paragraph" unicode="&#xb6;" horiz-adv-x="1376" 
d="M834 -287h-187v799h-39q-230 0 -376 126.5t-146 336.5q0 105 32 190.5t97 151t172.5 101.5t249.5 36h567v-1741h-188v1544h-182v-1544z" />
    <glyph glyph-name="periodcentered" unicode="&#xb7;" horiz-adv-x="630" 
d="M436 414h-243v245h243v-245z" />
    <glyph glyph-name="cedilla" unicode="&#xb8;" horiz-adv-x="800" 
d="M348 -467q-91 0 -143 25v110q45 -20 104 -20q105 0 105 71q0 70 -88 70q-46 0 -82 -8v84l67 135h133l-55 -115h10q85 0 141 -38.5t56 -127.5q0 -93 -69 -139.5t-179 -46.5z" />
    <glyph glyph-name="uni00B9" unicode="&#xb9;" horiz-adv-x="438" 
d="M365 907h-181v539q-70 -48 -149 -66v152q124 25 203 127h127v-752z" />
    <glyph glyph-name="ordmasculine" unicode="&#xba;" horiz-adv-x="770" 
d="M385 778q-156 0 -252 95t-96 245v12q0 150 96 245t252 95t251 -95t95 -245v-12q0 -150 -95 -245t-251 -95zM385 936q135 0 135 182v12q0 183 -135 183q-137 0 -137 -183v-12q0 -182 137 -182zM692 504h-618v137h618v-137z" />
    <glyph glyph-name="guillemotright" unicode="&#xbb;" horiz-adv-x="1079" 
d="M287 86h-217l346 418l-346 416h217l340 -410v-14zM686 86h-219l346 418l-346 416h219l338 -410v-14z" />
    <glyph glyph-name="onequarter" unicode="&#xbc;" horiz-adv-x="1452" 
d="M258 0h-227l1069 1454h225zM365 702h-181v539q-68 -47 -149 -65v151q124 25 203 127h127v-752zM1331 0h-170v160h-344v133l330 459h184v-455h96v-137h-96v-160zM1161 565l-190 -268h190v268z" />
    <glyph glyph-name="onehalf" unicode="&#xbd;" horiz-adv-x="1476" 
d="M258 0h-227l1069 1454h225zM365 702h-181v539q-68 -47 -149 -65v151q124 25 203 127h127v-752zM1444 0h-547v94q0 115 51 184.5t180 127.5q88 38 118 65.5t30 69.5v2q0 37 -25.5 61.5t-68.5 24.5q-52 0 -81.5 -30.5t-29.5 -84.5h-166q6 117 79 184.5t200 67.5
q116 0 187 -61.5t71 -153.5v-8q0 -76 -38.5 -130t-150.5 -104q-59 -28 -93 -48t-51 -39.5t-21.5 -35.5t-4.5 -43h361v-143z" />
    <glyph glyph-name="threequarters" unicode="&#xbe;" horiz-adv-x="1597" 
d="M326 688q-133 0 -212 67.5t-79 182.5h172q6 -115 115 -115q50 0 79 28t29 73v10q0 45 -29 71.5t-82 26.5h-71v123h71q46 0 72.5 22t26.5 62v6q0 40 -26 65t-70 25q-50 0 -78 -28t-29 -82h-164q4 111 81 177t194 66q115 0 187.5 -57t72.5 -149v-11q0 -52 -31 -93.5
t-84 -61.5q62 -16 102.5 -62.5t40.5 -113.5v-11q0 -100 -78 -160.5t-210 -60.5zM403 0h-227l1069 1454h225zM1477 0h-170v160h-344v133l329 459h185v-455h96v-137h-96v-160zM1307 565l-191 -268h191v268z" />
    <glyph glyph-name="questiondown" unicode="&#xbf;" horiz-adv-x="1046" 
d="M711 791h-246v264h246v-264zM524 -375q-213 0 -347 110.5t-134 276.5v21q0 70 23.5 129t61 100t82.5 77t90 67t82.5 63t61 73t23.5 89v22h240v-30q0 -65 -23.5 -120.5t-60.5 -94.5t-82 -74t-90 -66.5t-82 -64t-60.5 -75t-23.5 -91.5v-21q0 -90 65 -143t174 -53
q121 0 195.5 66.5t87.5 195.5h237q-20 -220 -162.5 -338.5t-357.5 -118.5z" />
    <glyph glyph-name="Agrave" unicode="&#xc0;" horiz-adv-x="1427" 
d="M602 1913l258 -295h-229l-357 295h328zM1403 0h-252l-129 354h-625l-131 -354h-241l559 1454h260zM711 1200l-240 -647h477z" />
    <glyph glyph-name="Aacute" unicode="&#xc1;" horiz-adv-x="1427" 
d="M827 1913h328l-356 -295h-230zM1403 0h-252l-129 354h-625l-131 -354h-241l559 1454h260zM711 1200l-240 -647h477z" />
    <glyph glyph-name="Acircumflex" unicode="&#xc2;" horiz-adv-x="1427" 
d="M862 1618l-147 151l-146 -151h-204l204 295h291l205 -295h-203zM1403 0h-252l-129 354h-625l-131 -354h-241l559 1454h260zM711 1200l-240 -647h477z" />
    <glyph glyph-name="Atilde" unicode="&#xc3;" horiz-adv-x="1427" 
d="M600 1733q-66 0 -72 -80h-149q6 128 52 188t138 60q54 0 104 -21.5t89.5 -43t68.5 -21.5q34 0 50.5 19t19.5 62h152q-6 -130 -54.5 -189.5t-138.5 -59.5q-54 0 -103 21.5t-88 43t-69 21.5zM1403 0h-252l-129 354h-625l-131 -354h-241l559 1454h260zM711 1200l-240 -647
h477z" />
    <glyph glyph-name="Adieresis" unicode="&#xc4;" horiz-adv-x="1427" 
d="M373 1913h235v-287h-235v287zM819 1913h236v-287h-236v287zM1403 0h-252l-129 354h-625l-131 -354h-241l559 1454h260zM711 1200l-240 -647h477z" />
    <glyph glyph-name="Aring" unicode="&#xc5;" horiz-adv-x="1427" 
d="M715 1565q-101 0 -167.5 63t-66.5 160q0 96 66 158.5t168 62.5q104 0 168.5 -62t64.5 -159t-64.5 -160t-168.5 -63zM717 1876q-42 0 -67 -23.5t-25 -62.5q0 -41 25.5 -65.5t66.5 -24.5q40 0 64 24.5t24 65.5q0 40 -24 63t-64 23zM1403 0h-252l-129 354h-625l-131 -354
h-241l559 1454h260zM711 1200l-240 -647h477z" />
    <glyph glyph-name="AE" unicode="&#xc6;" horiz-adv-x="1955" 
d="M1094 643v-444h776v-199h-1014v360h-420l-170 -360h-241l718 1454h1115v-199h-764v-413h700v-199h-700zM856 1251l-330 -698h330v698z" />
    <glyph glyph-name="Ccedilla" unicode="&#xc7;" horiz-adv-x="1431" 
d="M756 180q164 0 264 101t108 268h244q-15 -240 -167 -398.5t-398 -175.5l-43 -90h10q85 0 141 -38.5t56 -127.5q0 -93 -69 -139.5t-179 -46.5q-91 0 -143 25v110q45 -20 104 -20q104 0 104 71q0 70 -88 70q-46 0 -82 -8v84l56 112q-273 28 -435.5 225t-162.5 500v50
q0 213 84 378.5t239.5 258t358.5 92.5q261 0 426.5 -151.5t187.5 -403.5h-242q-22 165 -120.5 257.5t-253.5 92.5q-201 0 -317.5 -144.5t-116.5 -379.5v-50q0 -235 117 -378.5t317 -143.5z" />
    <glyph glyph-name="Egrave" unicode="&#xc8;" horiz-adv-x="1222" 
d="M778 1618h-229l-356 295h327zM1137 0h-1014v1454h1001v-199h-764v-413h701v-199h-701v-444h777v-199z" />
    <glyph glyph-name="Eacute" unicode="&#xc9;" horiz-adv-x="1222" 
d="M717 1618h-230l258 295h328zM1137 0h-1014v1454h1001v-199h-764v-413h701v-199h-701v-444h777v-199z" />
    <glyph glyph-name="Ecircumflex" unicode="&#xca;" horiz-adv-x="1222" 
d="M487 1618h-204l204 295h291l205 -295h-203l-147 151zM1137 0h-1014v1454h1001v-199h-764v-413h701v-199h-701v-444h777v-199z" />
    <glyph glyph-name="Edieresis" unicode="&#xcb;" horiz-adv-x="1222" 
d="M526 1626h-235v287h235v-287zM973 1626h-236v287h236v-287zM1137 0h-1014v1454h1001v-199h-764v-413h701v-199h-701v-444h777v-199z" />
    <glyph glyph-name="Igrave" unicode="&#xcc;" horiz-adv-x="509" 
d="M365 1618h-211l-256 295h307zM375 0h-240v1454h240v-1454z" />
    <glyph glyph-name="Iacute" unicode="&#xcd;" horiz-adv-x="509" 
d="M354 1618h-211l160 295h307zM375 0h-240v1454h240v-1454z" />
    <glyph glyph-name="Icircumflex" unicode="&#xce;" horiz-adv-x="509" 
d="M162 1618h-182l163 295h228l161 -295h-180l-96 154zM375 0h-240v1454h240v-1454z" />
    <glyph glyph-name="Idieresis" unicode="&#xcf;" horiz-adv-x="509" 
d="M182 1626h-207v287h207v-287zM535 1626h-207v287h207v-287zM375 0h-240v1454h240v-1454z" />
    <glyph glyph-name="Eth" unicode="&#xd0;" horiz-adv-x="1425" 
d="M123 1454h508q215 0 375.5 -79.5t252 -239.5t91.5 -383v-50q0 -332 -196 -517t-523 -185h-508v635h-121v201h121v618zM1104 702v50q0 253 -129 377t-365 124h-250v-417h388v-201h-388v-434h254q232 0 361 124t129 377z" />
    <glyph glyph-name="Ntilde" unicode="&#xd1;" horiz-adv-x="1441" 
d="M866 1647q-54 0 -103 21.5t-88 43t-69 21.5q-65 0 -71 -80h-150q6 128 52 188t138 60q54 0 104 -21.5t90 -43t69 -21.5q34 0 50 19t19 62h152q-6 -130 -54.5 -189.5t-138.5 -59.5zM354 0h-231v1454h285l682 -1116v1116h229v-1454h-268l-697 1145v-1145z" />
    <glyph glyph-name="Ograve" unicode="&#xd2;" horiz-adv-x="1533" 
d="M911 1618h-229l-356 295h327zM766 -27q-208 0 -365.5 93t-241 258t-83.5 378v50q0 214 84 379t241 257.5t365 92.5q209 0 366.5 -92.5t241.5 -257.5t84 -379v-50q0 -213 -84 -378t-241.5 -258t-366.5 -93zM766 178q210 0 327 141.5t117 382.5v50q0 241 -117 382.5
t-327 141.5q-209 0 -326.5 -142t-117.5 -382v-50q0 -240 118.5 -382t325.5 -142z" />
    <glyph glyph-name="Oacute" unicode="&#xd3;" horiz-adv-x="1533" 
d="M850 1618h-229l258 295h327zM766 -27q-208 0 -365.5 93t-241 258t-83.5 378v50q0 214 84 379t241 257.5t365 92.5q209 0 366.5 -92.5t241.5 -257.5t84 -379v-50q0 -213 -84 -378t-241.5 -258t-366.5 -93zM766 178q210 0 327 141.5t117 382.5v50q0 241 -117 382.5
t-327 141.5q-209 0 -326.5 -142t-117.5 -382v-50q0 -240 118.5 -382t325.5 -142z" />
    <glyph glyph-name="Ocircumflex" unicode="&#xd4;" horiz-adv-x="1533" 
d="M623 1618h-205l205 295h290l205 -295h-203l-147 151zM766 -27q-208 0 -365.5 93t-241 258t-83.5 378v50q0 214 84 379t241 257.5t365 92.5q209 0 366.5 -92.5t241.5 -257.5t84 -379v-50q0 -213 -84 -378t-241.5 -258t-366.5 -93zM766 178q210 0 327 141.5t117 382.5v50
q0 241 -117 382.5t-327 141.5q-209 0 -326.5 -142t-117.5 -382v-50q0 -240 118.5 -382t325.5 -142z" />
    <glyph glyph-name="Otilde" unicode="&#xd5;" horiz-adv-x="1533" 
d="M911 1647q-54 0 -103 21.5t-88 43t-69 21.5q-65 0 -71 -80h-150q6 128 52.5 188t138.5 60q54 0 104 -21.5t89.5 -43t68.5 -21.5q34 0 50 19t19 62h152q-6 -130 -54.5 -189.5t-138.5 -59.5zM766 -27q-208 0 -365.5 93t-241 258t-83.5 378v50q0 214 84 379t241 257.5
t365 92.5q209 0 366.5 -92.5t241.5 -257.5t84 -379v-50q0 -213 -84 -378t-241.5 -258t-366.5 -93zM766 178q210 0 327 141.5t117 382.5v50q0 241 -117 382.5t-327 141.5q-209 0 -326.5 -142t-117.5 -382v-50q0 -240 118.5 -382t325.5 -142z" />
    <glyph glyph-name="Odieresis" unicode="&#xd6;" horiz-adv-x="1533" 
d="M659 1626h-235v287h235v-287zM1106 1626h-236v287h236v-287zM766 -27q-208 0 -365.5 93t-241 258t-83.5 378v50q0 214 84 379t241 257.5t365 92.5q209 0 366.5 -92.5t241.5 -257.5t84 -379v-50q0 -213 -84 -378t-241.5 -258t-366.5 -93zM766 178q210 0 327 141.5
t117 382.5v50q0 241 -117 382.5t-327 141.5q-209 0 -326.5 -142t-117.5 -382v-50q0 -240 118.5 -382t325.5 -142z" />
    <glyph glyph-name="multiply" unicode="&#xd7;" horiz-adv-x="1126" 
d="M561 655l-328 -329l-133 133l330 329l-328 330l131 133l328 -329l330 329l135 -129l-332 -334l332 -331l-135 -131z" />
    <glyph glyph-name="Oslash" unicode="&#xd8;" horiz-adv-x="1533" 
d="M1290 1454h244l-213 -240q137 -188 137 -462v-50q0 -213 -84 -378t-241.5 -258t-366.5 -93q-249 0 -428 136l-96 -109h-244l213 240q-135 189 -135 462v50q0 214 84 379t241 257.5t365 92.5q251 0 428 -135zM322 752v-50q0 -160 53 -278l672 756q-113 96 -281 96
q-209 0 -326.5 -142t-117.5 -382zM1210 702v50q0 160 -53 278l-672 -756q113 -96 281 -96q210 0 327 141.5t117 382.5z" />
    <glyph glyph-name="Ugrave" unicode="&#xd9;" horiz-adv-x="1409" 
d="M850 1618h-229l-357 295h328zM705 -27q-288 0 -438 151.5t-150 430.5v899h239v-893q0 -379 349 -379q173 0 261.5 96t88.5 285v891h237v-897q0 -279 -149.5 -431.5t-437.5 -152.5z" />
    <glyph glyph-name="Uacute" unicode="&#xda;" horiz-adv-x="1409" 
d="M788 1618h-229l258 295h328zM705 -27q-288 0 -438 151.5t-150 430.5v899h239v-893q0 -379 349 -379q173 0 261.5 96t88.5 285v891h237v-897q0 -279 -149.5 -431.5t-437.5 -152.5z" />
    <glyph glyph-name="Ucircumflex" unicode="&#xdb;" horiz-adv-x="1409" 
d="M559 1618h-205l205 295h291l205 -295h-203l-147 151zM705 -27q-288 0 -438 151.5t-150 430.5v899h239v-893q0 -379 349 -379q173 0 261.5 96t88.5 285v891h237v-897q0 -279 -149.5 -431.5t-437.5 -152.5z" />
    <glyph glyph-name="Udieresis" unicode="&#xdc;" horiz-adv-x="1409" 
d="M598 1626h-236v287h236v-287zM1044 1626h-235v287h235v-287zM705 -27q-288 0 -438 151.5t-150 430.5v899h239v-893q0 -379 349 -379q173 0 261.5 96t88.5 285v891h237v-897q0 -279 -149.5 -431.5t-437.5 -152.5z" />
    <glyph glyph-name="Yacute" unicode="&#xdd;" horiz-adv-x="1302" 
d="M735 1618h-229l258 295h328zM770 0h-238v471l-512 983h261l374 -756l375 756h252l-512 -983v-471z" />
    <glyph glyph-name="Thorn" unicode="&#xde;" horiz-adv-x="1265" 
d="M362 0h-239v1454h239v-260h353q226 0 361.5 -113.5t135.5 -320.5v-31q0 -209 -135.5 -322.5t-361.5 -113.5h-353v-293zM362 993v-499h332q127 0 200 59t73 176v31q0 118 -72.5 175.5t-200.5 57.5h-332z" />
    <glyph glyph-name="germandbls" unicode="&#xdf;" horiz-adv-x="1230" 
d="M678 -27q-116 0 -195 37v174q75 -28 172 -28q133 0 209 66.5t76 203.5v16q0 130 -75.5 200.5t-209.5 70.5h-123v178h68q252 0 252 217v16q0 106 -62 167t-180 61q-280 0 -280 -332v-1020h-226v1016q0 139 38 242.5t108 164t159.5 90t200.5 29.5q214 0 341.5 -112
t127.5 -293v-19q0 -98 -41.5 -175.5t-113.5 -121.5q117 -47 180 -147.5t63 -235.5v-18q0 -213 -128.5 -330t-360.5 -117z" />
    <glyph glyph-name="agrave" unicode="&#xe0;" horiz-adv-x="1087" 
d="M475 1516l230 -308h-205l-326 308h301zM420 -27q-161 0 -257.5 87.5t-96.5 224.5q0 126 73.5 205t208.5 98l416 61v76q0 87 -56 132.5t-157 45.5q-99 0 -160.5 -43.5t-68.5 -122.5h-216q13 161 133.5 251.5t315.5 90.5q201 0 313.5 -98t112.5 -264v-717h-207l-8 164
q-50 -90 -141 -140.5t-205 -50.5zM471 152q121 0 207 67t86 168v96l-338 -47q-72 -11 -106.5 -45.5t-34.5 -95.5q0 -67 49 -105t137 -38z" />
    <glyph glyph-name="aacute" unicode="&#xe1;" horiz-adv-x="1087" 
d="M940 1516l-328 -308h-202l229 308h301zM420 -27q-161 0 -257.5 87.5t-96.5 224.5q0 126 73.5 205t208.5 98l416 61v76q0 87 -56 132.5t-157 45.5q-99 0 -160.5 -43.5t-68.5 -122.5h-216q13 161 133.5 251.5t315.5 90.5q201 0 313.5 -98t112.5 -264v-717h-207l-8 164
q-50 -90 -141 -140.5t-205 -50.5zM471 152q121 0 207 67t86 168v96l-338 -47q-72 -11 -106.5 -45.5t-34.5 -95.5q0 -67 49 -105t137 -38z" />
    <glyph glyph-name="acircumflex" unicode="&#xe2;" horiz-adv-x="1087" 
d="M555 1384l-129 -176h-174l162 308h284l162 -308h-174zM420 -27q-161 0 -257.5 87.5t-96.5 224.5q0 126 73.5 205t208.5 98l416 61v76q0 87 -56 132.5t-157 45.5q-99 0 -160.5 -43.5t-68.5 -122.5h-216q13 161 133.5 251.5t315.5 90.5q201 0 313.5 -98t112.5 -264v-717
h-207l-8 164q-50 -90 -141 -140.5t-205 -50.5zM471 152q121 0 207 67t86 168v96l-338 -47q-72 -11 -106.5 -45.5t-34.5 -95.5q0 -67 49 -105t137 -38z" />
    <glyph glyph-name="atilde" unicode="&#xe3;" horiz-adv-x="1087" 
d="M686 1225q-44 0 -87.5 22t-80 44t-63.5 22q-55 0 -58 -82h-153q6 137 48.5 199.5t131.5 62.5q42 0 86.5 -22t82.5 -44t62 -22q30 0 42.5 19.5t15.5 62.5h153q-6 -138 -50 -200t-130 -62zM420 -27q-161 0 -257.5 87.5t-96.5 224.5q0 126 73.5 205t208.5 98l416 61v76
q0 87 -56 132.5t-157 45.5q-99 0 -160.5 -43.5t-68.5 -122.5h-216q13 161 133.5 251.5t315.5 90.5q201 0 313.5 -98t112.5 -264v-717h-207l-8 164q-50 -90 -141 -140.5t-205 -50.5zM471 152q121 0 207 67t86 168v96l-338 -47q-72 -11 -106.5 -45.5t-34.5 -95.5
q0 -67 49 -105t137 -38z" />
    <glyph glyph-name="adieresis" unicode="&#xe4;" horiz-adv-x="1087" 
d="M463 1516v-308h-236v308h236zM885 1516v-308h-236v308h236zM420 -27q-161 0 -257.5 87.5t-96.5 224.5q0 126 73.5 205t208.5 98l416 61v76q0 87 -56 132.5t-157 45.5q-99 0 -160.5 -43.5t-68.5 -122.5h-216q13 161 133.5 251.5t315.5 90.5q201 0 313.5 -98t112.5 -264
v-717h-207l-8 164q-50 -90 -141 -140.5t-205 -50.5zM471 152q121 0 207 67t86 168v96l-338 -47q-72 -11 -106.5 -45.5t-34.5 -95.5q0 -67 49 -105t137 -38z" />
    <glyph glyph-name="aring" unicode="&#xe5;" horiz-adv-x="1087" 
d="M555 1200q-101 0 -167 63t-66 160t66 159.5t167 62.5q104 0 168.5 -62.5t64.5 -159.5t-64.5 -160t-168.5 -63zM557 1335q40 0 64 24.5t24 65.5q0 40 -24 63t-64 23q-42 0 -67 -23.5t-25 -62.5q0 -41 25.5 -65.5t66.5 -24.5zM420 -27q-161 0 -257.5 87.5t-96.5 224.5
q0 126 73.5 205t208.5 98l416 61v76q0 87 -56 132.5t-157 45.5q-99 0 -160.5 -43.5t-68.5 -122.5h-216q13 161 133.5 251.5t315.5 90.5q201 0 313.5 -98t112.5 -264v-717h-207l-8 164q-50 -90 -141 -140.5t-205 -50.5zM471 152q121 0 207 67t86 168v96l-338 -47
q-72 -11 -106.5 -45.5t-34.5 -95.5q0 -67 49 -105t137 -38z" />
    <glyph glyph-name="ae" unicode="&#xe6;" horiz-adv-x="1853" 
d="M1286 1079q254 0 382 -162.5t116 -439.5h-789q7 -158 82 -240.5t209 -82.5q107 0 174.5 47t91.5 129h226q-39 -167 -167.5 -262t-324.5 -95q-139 0 -247 51.5t-175 145.5q-63 -93 -176.5 -145t-255.5 -52q-165 0 -265.5 87.5t-100.5 224.5q0 127 75.5 206t214.5 99
l408 59v84q0 89 -55.5 134.5t-157.5 45.5q-98 0 -158 -43t-71 -120h-216q13 154 133.5 241.5t315.5 87.5q243 0 356 -141q138 141 375 141zM999 639h553q-12 126 -79 194t-189 68q-247 0 -285 -262zM764 387v96l-322 -45q-157 -22 -157 -145q0 -66 48.5 -103.5t137.5 -37.5
q123 0 208 65t85 170z" />
    <glyph glyph-name="ccedilla" unicode="&#xe7;" horiz-adv-x="1110" 
d="M829 377h224q-25 -175 -135.5 -282t-286.5 -120l-43 -90h10q85 0 141 -38.5t56 -127.5q0 -93 -69 -139.5t-179 -46.5q-92 0 -144 25v110q45 -20 105 -20q104 0 104 71q0 70 -88 70q-46 0 -82 -8v84l58 112q-201 26 -314.5 170.5t-113.5 364.5v31q0 243 136 389.5
t374 146.5q197 0 321 -107.5t146 -291.5h-222q-38 217 -249 217q-136 0 -206.5 -91.5t-70.5 -262.5v-31q0 -172 70.5 -264t206.5 -92q109 0 171 58.5t80 162.5z" />
    <glyph glyph-name="egrave" unicode="&#xe8;" horiz-adv-x="1161" 
d="M215 1516h301l229 -308h-204zM594 -27q-243 0 -382.5 148t-139.5 391v31q0 242 140.5 389t381.5 147q254 0 382 -162.5t116 -439.5h-789q7 -158 82 -240.5t209 -82.5q107 0 174.5 47t91.5 129h225q-39 -168 -167 -262.5t-324 -94.5zM307 639h553q-12 126 -79 194t-189 68
q-247 0 -285 -262z" />
    <glyph glyph-name="eacute" unicode="&#xe9;" horiz-adv-x="1161" 
d="M653 1208h-202l229 308h301zM594 -27q-243 0 -382.5 148t-139.5 391v31q0 242 140.5 389t381.5 147q254 0 382 -162.5t116 -439.5h-789q7 -158 82 -240.5t209 -82.5q107 0 174.5 47t91.5 129h225q-39 -168 -167 -262.5t-324 -94.5zM307 639h553q-12 126 -79 194t-189 68
q-247 0 -285 -262z" />
    <glyph glyph-name="ecircumflex" unicode="&#xea;" horiz-adv-x="1161" 
d="M901 1208h-174l-131 176l-129 -176h-174l162 308h284zM594 -27q-243 0 -382.5 148t-139.5 391v31q0 242 140.5 389t381.5 147q254 0 382 -162.5t116 -439.5h-789q7 -158 82 -240.5t209 -82.5q107 0 174.5 47t91.5 129h225q-39 -168 -167 -262.5t-324 -94.5zM307 639h553
q-12 126 -79 194t-189 68q-247 0 -285 -262z" />
    <glyph glyph-name="edieresis" unicode="&#xeb;" horiz-adv-x="1161" 
d="M268 1516h236v-308h-236v308zM690 1516h236v-308h-236v308zM594 -27q-243 0 -382.5 148t-139.5 391v31q0 242 140.5 389t381.5 147q254 0 382 -162.5t116 -439.5h-789q7 -158 82 -240.5t209 -82.5q107 0 174.5 47t91.5 129h225q-39 -168 -167 -262.5t-324 -94.5zM307 639
h553q-12 126 -79 194t-189 68q-247 0 -285 -262z" />
    <glyph glyph-name="igrave" unicode="&#xec;" horiz-adv-x="450" 
d="M332 1208h-209l-225 308h301zM338 0h-225v1055h225v-1055z" />
    <glyph glyph-name="iacute" unicode="&#xed;" horiz-adv-x="450" 
d="M322 1208h-209l133 308h301zM338 0h-225v1055h225v-1055z" />
    <glyph glyph-name="icircumflex" unicode="&#xee;" horiz-adv-x="450" 
d="M152 1208h-156l102 308h256l103 -308h-154l-78 170zM338 0h-225v1055h225v-1055z" />
    <glyph glyph-name="idieresis" unicode="&#xef;" horiz-adv-x="450" 
d="M164 1516v-308h-201v308h201zM489 1516v-308h-200v308h200zM338 1055v-1055h-225v1055h225z" />
    <glyph glyph-name="eth" unicode="&#xf0;" horiz-adv-x="1185" 
d="M1030 1333l-139 -51q223 -231 223 -666v-10q0 -302 -140.5 -467.5t-381.5 -165.5q-234 0 -377 143t-143 369v13q0 149 55 266t159.5 184.5t243.5 67.5q128 0 220.5 -53.5t142.5 -137.5q-37 261 -188 387l-381 -141l-43 125l280 102q-122 53 -291 74l54 166
q277 -39 452 -160l211 78zM885 485v11q0 160 -78.5 250t-222.5 90q-134 0 -208.5 -90.5t-74.5 -247.5v-13q0 -156 75 -242.5t216 -86.5q143 0 218 86.5t75 242.5z" />
    <glyph glyph-name="ntilde" unicode="&#xf1;" horiz-adv-x="1144" 
d="M700 1225q-44 0 -87.5 22t-80 44t-63.5 22q-54 0 -57 -82h-154q6 137 48.5 199.5t131.5 62.5q42 0 87 -22t83 -44t62 -22q29 0 41.5 19t15.5 63h154q-6 -137 -50.5 -199.5t-130.5 -62.5zM338 0h-225v1055h217l8 -168q45 85 130.5 138.5t205.5 53.5q185 0 274.5 -105.5
t89.5 -293.5v-680h-223v625q0 133 -52 200.5t-165 67.5q-118 0 -189 -81.5t-71 -221.5v-590z" />
    <glyph glyph-name="ograve" unicode="&#xf2;" horiz-adv-x="1185" 
d="M535 1208l-326 308h301l229 -308h-204zM592 -27q-235 0 -377.5 148.5t-142.5 390.5v31q0 242 142 389t378 147q237 0 379.5 -147t142.5 -389v-31q0 -242 -142.5 -390.5t-379.5 -148.5zM592 156q144 0 218.5 92t74.5 264v31q0 171 -74.5 262.5t-218.5 91.5
q-142 0 -216.5 -91.5t-74.5 -262.5v-31q0 -171 74.5 -263.5t216.5 -92.5z" />
    <glyph glyph-name="oacute" unicode="&#xf3;" horiz-adv-x="1185" 
d="M676 1516h301l-328 -308h-203zM592 -27q-235 0 -377.5 148.5t-142.5 390.5v31q0 242 142 389t378 147q237 0 379.5 -147t142.5 -389v-31q0 -242 -142.5 -390.5t-379.5 -148.5zM592 156q144 0 218.5 92t74.5 264v31q0 171 -74.5 262.5t-218.5 91.5q-142 0 -216.5 -91.5
t-74.5 -262.5v-31q0 -171 74.5 -263.5t216.5 -92.5z" />
    <glyph glyph-name="ocircumflex" unicode="&#xf4;" horiz-adv-x="1185" 
d="M451 1516h284l162 -308h-174l-131 176l-129 -176h-174zM592 -27q-235 0 -377.5 148.5t-142.5 390.5v31q0 242 142 389t378 147q237 0 379.5 -147t142.5 -389v-31q0 -242 -142.5 -390.5t-379.5 -148.5zM592 156q144 0 218.5 92t74.5 264v31q0 171 -74.5 262.5t-218.5 91.5
q-142 0 -216.5 -91.5t-74.5 -262.5v-31q0 -171 74.5 -263.5t216.5 -92.5z" />
    <glyph glyph-name="otilde" unicode="&#xf5;" horiz-adv-x="1185" 
d="M723 1225q-44 0 -87.5 22t-80.5 44t-63 22q-55 0 -58 -82h-153q6 137 48.5 199.5t131.5 62.5q42 0 86.5 -22t82.5 -44t62 -22q30 0 42.5 19.5t15.5 62.5h153q-6 -138 -50 -200t-130 -62zM592 -27q-235 0 -377.5 148.5t-142.5 390.5v31q0 242 142 389t378 147
q237 0 379.5 -147t142.5 -389v-31q0 -242 -142.5 -390.5t-379.5 -148.5zM592 156q144 0 218.5 92t74.5 264v31q0 171 -74.5 262.5t-218.5 91.5q-142 0 -216.5 -91.5t-74.5 -262.5v-31q0 -171 74.5 -263.5t216.5 -92.5z" />
    <glyph glyph-name="odieresis" unicode="&#xf6;" horiz-adv-x="1185" 
d="M264 1208v308h236v-308h-236zM686 1208v308h236v-308h-236zM592 -27q-235 0 -377.5 148.5t-142.5 390.5v31q0 242 142 389t378 147q237 0 379.5 -147t142.5 -389v-31q0 -242 -142.5 -390.5t-379.5 -148.5zM592 156q144 0 218.5 92t74.5 264v31q0 171 -74.5 262.5
t-218.5 91.5q-142 0 -216.5 -91.5t-74.5 -262.5v-31q0 -171 74.5 -263.5t216.5 -92.5z" />
    <glyph glyph-name="divide" unicode="&#xf7;" horiz-adv-x="1126" 
d="M696 979h-264v240h264v-240zM975 631h-823v200h823v-200zM696 244h-264v239h264v-239z" />
    <glyph glyph-name="oslash" unicode="&#xf8;" horiz-adv-x="1185" 
d="M975 1055h188l-153 -168q104 -138 104 -344v-31q0 -242 -142.5 -390.5t-379.5 -148.5q-186 0 -320 97l-63 -70h-189l154 170q-102 139 -102 342v31q0 242 142 389t378 147q182 0 319 -94zM301 543v-31q0 -97 25 -174l452 500q-71 59 -186 59q-142 0 -216.5 -91.5
t-74.5 -262.5zM885 512v31q0 103 -27 176l-452 -502q70 -61 186 -61q144 0 218.5 92t74.5 264z" />
    <glyph glyph-name="ugrave" unicode="&#xf9;" horiz-adv-x="1130" 
d="M715 1208h-205l-326 308h301zM469 -27q-181 0 -273 106.5t-92 297.5v678h228v-635q0 -126 50.5 -192t160.5 -66q116 0 182 82.5t66 224.5v586h227v-1055h-219l-4 160q-49 -82 -133.5 -134.5t-192.5 -52.5z" />
    <glyph glyph-name="uacute" unicode="&#xfa;" horiz-adv-x="1130" 
d="M651 1516h301l-327 -308h-203zM469 -27q-181 0 -273 106.5t-92 297.5v678h228v-635q0 -126 50.5 -192t160.5 -66q116 0 182 82.5t66 224.5v586h227v-1055h-219l-4 160q-49 -82 -133.5 -134.5t-192.5 -52.5z" />
    <glyph glyph-name="ucircumflex" unicode="&#xfb;" horiz-adv-x="1130" 
d="M436 1208h-174l162 308h285l161 -308h-174l-131 176zM469 -27q-181 0 -273 106.5t-92 297.5v678h228v-635q0 -126 50.5 -192t160.5 -66q116 0 182 82.5t66 224.5v586h227v-1055h-219l-4 160q-49 -82 -133.5 -134.5t-192.5 -52.5z" />
    <glyph glyph-name="udieresis" unicode="&#xfc;" horiz-adv-x="1130" 
d="M473 1208h-235v308h235v-308zM895 1208h-236v308h236v-308zM469 -27q-181 0 -273 106.5t-92 297.5v678h228v-635q0 -126 50.5 -192t160.5 -66q116 0 182 82.5t66 224.5v586h227v-1055h-219l-4 160q-49 -82 -133.5 -134.5t-192.5 -52.5z" />
    <glyph glyph-name="yacute" unicode="&#xfd;" horiz-adv-x="1077" 
d="M623 1516h301l-328 -308h-203zM526 -348h-231l135 354l-405 1049h239l285 -801l274 801h232z" />
    <glyph glyph-name="thorn" unicode="&#xfe;" horiz-adv-x="1206" 
d="M340 -348h-227v1864h227v-617q47 78 136 129t208 51q205 0 328 -148.5t123 -387.5v-31q0 -239 -125 -389t-332 -150q-116 0 -204 53t-134 134v-508zM623 156q135 0 208.5 93t73.5 263v31q0 171 -73.5 264.5t-208.5 93.5q-140 0 -215.5 -93.5t-75.5 -264.5v-31
q0 -171 75 -263.5t216 -92.5z" />
    <glyph glyph-name="ydieresis" unicode="&#xff;" horiz-adv-x="1077" 
d="M446 1208h-235v308h235v-308zM868 1208h-235v308h235v-308zM526 -348h-231l135 354l-405 1049h239l285 -801l274 801h232z" />
    <glyph glyph-name="Amacron" unicode="&#x100;" horiz-adv-x="1427" 
d="M348 1860h729v-179h-729v179zM1403 0h-252l-129 354h-625l-131 -354h-241l559 1454h260zM711 1200l-240 -647h477z" />
    <glyph glyph-name="amacron" unicode="&#x101;" horiz-adv-x="1087" 
d="M868 1448v-191h-626v191h626zM420 -27q-161 0 -257.5 87.5t-96.5 224.5q0 126 73.5 205t208.5 98l416 61v76q0 87 -56 132.5t-157 45.5q-99 0 -160.5 -43.5t-68.5 -122.5h-216q13 161 133.5 251.5t315.5 90.5q201 0 313.5 -98t112.5 -264v-717h-207l-8 164
q-50 -90 -141 -140.5t-205 -50.5zM471 152q121 0 207 67t86 168v96l-338 -47q-72 -11 -106.5 -45.5t-34.5 -95.5q0 -67 49 -105t137 -38z" />
    <glyph glyph-name="Abreve" unicode="&#x102;" horiz-adv-x="1427" 
d="M713 1616q-169 0 -244.5 64t-75.5 188v45h191v-37q0 -49 29.5 -73.5t99.5 -24.5q71 0 101 25t30 73v37h190v-45q0 -124 -75 -188t-246 -64zM1403 0h-252l-129 354h-625l-131 -354h-241l559 1454h260zM711 1200l-240 -647h477z" />
    <glyph glyph-name="abreve" unicode="&#x103;" horiz-adv-x="1087" 
d="M557 1206q-153 0 -224 63.5t-71 186.5v60h170v-68q0 -51 30.5 -75.5t94.5 -24.5q123 0 123 100v68h170v-60q0 -123 -70.5 -186.5t-222.5 -63.5zM420 -27q-161 0 -257.5 87.5t-96.5 224.5q0 126 73.5 205t208.5 98l416 61v76q0 87 -56 132.5t-157 45.5q-99 0 -160.5 -43.5
t-68.5 -122.5h-216q13 161 133.5 251.5t315.5 90.5q201 0 313.5 -98t112.5 -264v-717h-207l-8 164q-50 -90 -141 -140.5t-205 -50.5zM471 152q121 0 207 67t86 168v96l-338 -47q-72 -11 -106.5 -45.5t-34.5 -95.5q0 -67 49 -105t137 -38z" />
    <glyph glyph-name="Aogonek" unicode="&#x104;" horiz-adv-x="1427" 
d="M1157 -190q0 -80 103 -80q51 0 86 14v-135q-50 -25 -125 -25q-112 0 -179 51t-67 144q0 135 174 227l-127 348h-625l-131 -354h-241l559 1454h260l559 -1454q-129 -37 -187.5 -87.5t-58.5 -102.5zM711 1200l-240 -647h477z" />
    <glyph glyph-name="aogonek" unicode="&#x105;" horiz-adv-x="1087" 
d="M737 -190q0 -80 103 -80q51 0 86 14v-135q-50 -25 -125 -25q-112 0 -179 51t-67 144q0 151 217 250l-6 135q-50 -90 -141 -140.5t-205 -50.5q-161 0 -257.5 87.5t-96.5 224.5q0 126 73.5 205t208.5 98l416 61v76q0 87 -56 132.5t-157 45.5q-99 0 -160.5 -43.5
t-68.5 -122.5h-216q13 161 133.5 251.5t315.5 90.5q201 0 313.5 -98t112.5 -264v-717h2q-129 -37 -187.5 -87.5t-58.5 -102.5zM764 387v96l-338 -47q-72 -11 -106.5 -45.5t-34.5 -95.5q0 -67 49 -105t137 -38q121 0 207 67t86 168z" />
    <glyph glyph-name="Cacute" unicode="&#x106;" horiz-adv-x="1431" 
d="M838 1618h-230l258 295h328zM756 -27q-307 0 -493.5 201.5t-186.5 527.5v50q0 213 84 378.5t239.5 258t358.5 92.5q261 0 426.5 -151.5t187.5 -403.5h-242q-22 165 -120.5 257.5t-253.5 92.5q-201 0 -317.5 -144.5t-116.5 -379.5v-50q0 -235 117 -378.5t317 -143.5
q164 0 264 101t108 268h244q-18 -254 -184 -415t-432 -161z" />
    <glyph glyph-name="cacute" unicode="&#x107;" horiz-adv-x="1110" 
d="M434 1208l230 308h301l-328 -308h-203zM580 -27q-236 0 -372 148t-136 391v31q0 243 136 389.5t374 146.5q197 0 321 -107.5t146 -291.5h-222q-38 217 -249 217q-136 0 -206.5 -91.5t-70.5 -262.5v-31q0 -172 70.5 -264t206.5 -92q109 0 171 58.5t80 162.5h224
q-26 -188 -151.5 -296t-321.5 -108z" />
    <glyph glyph-name="Ccircumflex" unicode="&#x108;" horiz-adv-x="1431" 
d="M608 1618h-205l205 295h291l205 -295h-203l-147 151zM756 -27q-307 0 -493.5 201.5t-186.5 527.5v50q0 213 84 378.5t239.5 258t358.5 92.5q261 0 426.5 -151.5t187.5 -403.5h-242q-22 165 -120.5 257.5t-253.5 92.5q-201 0 -317.5 -144.5t-116.5 -379.5v-50
q0 -235 117 -378.5t317 -143.5q164 0 264 101t108 268h244q-18 -254 -184 -415t-432 -161z" />
    <glyph glyph-name="ccircumflex" unicode="&#x109;" horiz-adv-x="1110" 
d="M711 1208l-131 176l-129 -176h-175l162 308h285l162 -308h-174zM580 -27q-236 0 -372 148t-136 391v31q0 243 136 389.5t374 146.5q197 0 321 -107.5t146 -291.5h-222q-38 217 -249 217q-136 0 -206.5 -91.5t-70.5 -262.5v-31q0 -172 70.5 -264t206.5 -92q109 0 171 58.5
t80 162.5h224q-26 -188 -151.5 -296t-321.5 -108z" />
    <glyph glyph-name="Cdotaccent" unicode="&#x10a;" horiz-adv-x="1431" 
d="M870 1626h-235v287h235v-287zM756 -27q-307 0 -493.5 201.5t-186.5 527.5v50q0 213 84 378.5t239.5 258t358.5 92.5q261 0 426.5 -151.5t187.5 -403.5h-242q-22 165 -120.5 257.5t-253.5 92.5q-201 0 -317.5 -144.5t-116.5 -379.5v-50q0 -235 117 -378.5t317 -143.5
q164 0 264 101t108 268h244q-18 -254 -184 -415t-432 -161z" />
    <glyph glyph-name="cdotaccent" unicode="&#x10b;" horiz-adv-x="1110" 
d="M698 1516v-308h-235v308h235zM580 -27q-236 0 -372 148t-136 391v31q0 243 136 389.5t374 146.5q197 0 321 -107.5t146 -291.5h-222q-38 217 -249 217q-136 0 -206.5 -91.5t-70.5 -262.5v-31q0 -172 70.5 -264t206.5 -92q109 0 171 58.5t80 162.5h224
q-26 -188 -151.5 -296t-321.5 -108z" />
    <glyph glyph-name="Ccaron" unicode="&#x10c;" horiz-adv-x="1431" 
d="M899 1618h-291l-205 295h205l146 -152l147 152h203zM756 -27q-307 0 -493.5 201.5t-186.5 527.5v50q0 213 84 378.5t239.5 258t358.5 92.5q261 0 426.5 -151.5t187.5 -403.5h-242q-22 165 -120.5 257.5t-253.5 92.5q-201 0 -317.5 -144.5t-116.5 -379.5v-50
q0 -235 117 -378.5t317 -143.5q164 0 264 101t108 268h244q-18 -254 -184 -415t-432 -161z" />
    <glyph glyph-name="ccaron" unicode="&#x10d;" horiz-adv-x="1110" 
d="M885 1516l-160 -308h-289l-160 308h187l117 -170l118 170h187zM580 -27q-236 0 -372 148t-136 391v31q0 243 136 389.5t374 146.5q197 0 321 -107.5t146 -291.5h-222q-38 217 -249 217q-136 0 -206.5 -91.5t-70.5 -262.5v-31q0 -172 70.5 -264t206.5 -92q109 0 171 58.5
t80 162.5h224q-26 -188 -151.5 -296t-321.5 -108z" />
    <glyph glyph-name="Dcaron" unicode="&#x10e;" horiz-adv-x="1425" 
d="M817 1618h-291l-204 295h204l146 -152l147 152h203zM631 0h-508v1454h508q215 0 375.5 -79.5t252 -239.5t91.5 -383v-50q0 -332 -196 -517t-523 -185zM360 1253v-1052h254q232 0 361 124t129 377v50q0 253 -129 377t-365 124h-250z" />
    <glyph glyph-name="dcaron" unicode="&#x10f;" horiz-adv-x="1204" 
d="M526 -27q-205 0 -329.5 150t-124.5 389v31q0 238 122 387t328 149q119 0 207 -49.5t137 -128.5v615h226v-1516h-209l-6 176q-43 -84 -134.5 -143.5t-216.5 -59.5zM1499 1516l-133 -308h-186l92 308h227zM584 156q140 0 215 92.5t75 263.5v31q0 171 -75.5 264.5
t-214.5 93.5q-135 0 -209 -94t-74 -264v-31q0 -169 73.5 -262.5t209.5 -93.5z" />
    <glyph glyph-name="Dcroat" unicode="&#x110;" horiz-adv-x="1425" 
d="M123 1454h508q215 0 375.5 -79.5t252 -239.5t91.5 -383v-50q0 -332 -196 -517t-523 -185h-508v637h-121v201h121v616zM1104 702v50q0 253 -129 377t-365 124h-250v-415h385v-201h-385v-436h254q232 0 361 124t129 377z" />
    <glyph glyph-name="dcroat" unicode="&#x111;" horiz-adv-x="1204" 
d="M1092 1370h116v-170h-116v-1200h-209l-6 176q-43 -84 -134.5 -143.5t-216.5 -59.5q-205 0 -329.5 150t-124.5 389v31q0 238 122 387t328 149q119 0 207 -49.5t137 -128.5v299h-374v170h374v146h226v-146zM874 512v31q0 171 -75.5 264.5t-214.5 93.5q-135 0 -209 -94
t-74 -264v-31q0 -169 73.5 -262.5t209.5 -93.5q140 0 215 92.5t75 263.5z" />
    <glyph glyph-name="Emacron" unicode="&#x112;" horiz-adv-x="1222" 
d="M997 1681h-729v179h729v-179zM1137 0h-1014v1454h1001v-199h-764v-413h701v-199h-701v-444h777v-199z" />
    <glyph glyph-name="emacron" unicode="&#x113;" horiz-adv-x="1161" 
d="M283 1448h626v-191h-626v191zM594 -27q-243 0 -382.5 148t-139.5 391v31q0 242 140.5 389t381.5 147q254 0 382 -162.5t116 -439.5h-789q7 -158 82 -240.5t209 -82.5q107 0 174.5 47t91.5 129h225q-39 -168 -167 -262.5t-324 -94.5zM307 639h553q-12 126 -79 194t-189 68
q-247 0 -285 -262z" />
    <glyph glyph-name="Ebreve" unicode="&#x114;" horiz-adv-x="1222" 
d="M631 1616q-169 0 -244.5 64t-75.5 188v45h191v-37q0 -49 29.5 -73.5t99.5 -24.5q71 0 101 25t30 73v37h190v-45q0 -124 -75 -188t-246 -64zM1137 0h-1014v1454h1001v-199h-764v-413h701v-199h-701v-444h777v-199z" />
    <glyph glyph-name="ebreve" unicode="&#x115;" horiz-adv-x="1161" 
d="M598 1206q-153 0 -224 63.5t-71 186.5v60h170v-68q0 -51 30.5 -75.5t94.5 -24.5q123 0 123 100v68h170v-60q0 -123 -70.5 -186.5t-222.5 -63.5zM594 -27q-243 0 -382.5 148t-139.5 391v31q0 242 140.5 389t381.5 147q254 0 382 -162.5t116 -439.5h-789q7 -158 82 -240.5
t209 -82.5q107 0 174.5 47t91.5 129h225q-39 -168 -167 -262.5t-324 -94.5zM307 639h553q-12 126 -79 194t-189 68q-247 0 -285 -262z" />
    <glyph glyph-name="Edotaccent" unicode="&#x116;" horiz-adv-x="1222" 
d="M750 1626h-236v287h236v-287zM1137 0h-1014v1454h1001v-199h-764v-413h701v-199h-701v-444h777v-199z" />
    <glyph glyph-name="edotaccent" unicode="&#x117;" horiz-adv-x="1161" 
d="M479 1516h236v-308h-236v308zM594 -27q-243 0 -382.5 148t-139.5 391v31q0 242 140.5 389t381.5 147q254 0 382 -162.5t116 -439.5h-789q7 -158 82 -240.5t209 -82.5q107 0 174.5 47t91.5 129h225q-39 -168 -167 -262.5t-324 -94.5zM307 639h553q-12 126 -79 194t-189 68
q-247 0 -285 -262z" />
    <glyph glyph-name="Eogonek" unicode="&#x118;" horiz-adv-x="1222" 
d="M1137 199v-199q-129 -37 -187.5 -87.5t-58.5 -102.5q0 -80 102 -80q51 0 86 14v-135q-50 -25 -125 -25q-111 0 -178 51t-67 144q0 131 161 221h-747v1454h1001v-199h-764v-413h701v-199h-701v-444h777z" />
    <glyph glyph-name="eogonek" unicode="&#x119;" horiz-adv-x="1161" 
d="M594 1079q254 0 382 -162.5t116 -439.5h-789q7 -158 82 -240.5t209 -82.5q107 0 174.5 47t91.5 129h225q-29 -129 -113.5 -215.5t-213.5 -120.5q-118 -37 -170.5 -85t-52.5 -99q0 -80 102 -80q51 0 86 14v-135q-50 -25 -125 -25q-112 0 -179 51t-67 144q0 120 133 203
q-195 34 -304 175t-109 355v31q0 242 140.5 389t381.5 147zM307 639h553q-12 126 -79 194t-189 68q-247 0 -285 -262z" />
    <glyph glyph-name="Ecaron" unicode="&#x11a;" horiz-adv-x="1222" 
d="M778 1618h-291l-204 295h204l146 -152l147 152h203zM1137 0h-1014v1454h1001v-199h-764v-413h701v-199h-701v-444h777v-199z" />
    <glyph glyph-name="ecaron" unicode="&#x11b;" horiz-adv-x="1161" 
d="M715 1516h186l-160 -308h-288l-160 308h186l117 -170zM594 -27q-243 0 -382.5 148t-139.5 391v31q0 242 140.5 389t381.5 147q254 0 382 -162.5t116 -439.5h-789q7 -158 82 -240.5t209 -82.5q107 0 174.5 47t91.5 129h225q-39 -168 -167 -262.5t-324 -94.5zM307 639h553
q-12 126 -79 194t-189 68q-247 0 -285 -262z" />
    <glyph glyph-name="Gcircumflex" unicode="&#x11c;" horiz-adv-x="1474" 
d="M608 1618h-205l205 295h291l205 -295h-203l-147 151zM735 -27q-195 0 -345 92t-232 258t-82 379v50q0 212 84.5 378t240.5 258.5t359 92.5q251 0 415 -138.5t195 -363.5h-242q-28 140 -125 218.5t-245 78.5q-204 0 -320 -144t-116 -380v-50q0 -236 118 -380t320 -144
q100 0 179 31.5t127 85.5t73 121t26 143v31h-430v194h639v-784h-186l-23 201q-55 -102 -171.5 -165t-258.5 -63z" />
    <glyph glyph-name="gcircumflex" unicode="&#x11d;" horiz-adv-x="1204" 
d="M766 1516l162 -308h-174l-131 176l-129 -176h-175l162 308h285zM575 -375q-212 0 -335.5 85.5t-141.5 228.5h246q19 -144 244 -144q132 0 205 64.5t73 187.5v156q-44 -82 -132.5 -134.5t-205.5 -52.5q-137 0 -242 67.5t-159.5 183t-54.5 261.5v41q0 223 123 366.5
t327 143.5q126 0 218.5 -57.5t136.5 -140.5l6 174h209v-987q0 -207 -134.5 -325t-382.5 -118zM584 197q138 0 214 89t76 242v41q0 156 -75.5 244t-214.5 88q-135 0 -209 -88.5t-74 -243.5v-41q0 -152 74.5 -241.5t208.5 -89.5z" />
    <glyph glyph-name="Gbreve" unicode="&#x11e;" horiz-adv-x="1474" 
d="M752 1616q-169 0 -244.5 64t-75.5 188v45h191v-37q0 -49 29.5 -73.5t99.5 -24.5q71 0 101 25t30 73v37h190v-45q0 -124 -75 -188t-246 -64zM735 -27q-195 0 -345 92t-232 258t-82 379v50q0 212 84.5 378t240.5 258.5t359 92.5q251 0 415 -138.5t195 -363.5h-242
q-28 140 -125 218.5t-245 78.5q-204 0 -320 -144t-116 -380v-50q0 -236 118 -380t320 -144q100 0 179 31.5t127 85.5t73 121t26 143v31h-430v194h639v-784h-186l-23 201q-55 -102 -171.5 -165t-258.5 -63z" />
    <glyph glyph-name="gbreve" unicode="&#x11f;" horiz-adv-x="1204" 
d="M625 1206q-153 0 -224 63.5t-71 186.5v60h170v-68q0 -51 30.5 -75.5t94.5 -24.5q123 0 123 100v68h170v-60q0 -123 -70.5 -186.5t-222.5 -63.5zM575 -375q-212 0 -335.5 85.5t-141.5 228.5h246q19 -144 244 -144q132 0 205 64.5t73 187.5v156q-44 -82 -132.5 -134.5
t-205.5 -52.5q-137 0 -242 67.5t-159.5 183t-54.5 261.5v41q0 223 123 366.5t327 143.5q126 0 218.5 -57.5t136.5 -140.5l6 174h209v-987q0 -207 -134.5 -325t-382.5 -118zM584 197q138 0 214 89t76 242v41q0 156 -75.5 244t-214.5 88q-135 0 -209 -88.5t-74 -243.5v-41
q0 -152 74.5 -241.5t208.5 -89.5z" />
    <glyph glyph-name="Gdotaccent" unicode="&#x120;" horiz-adv-x="1474" 
d="M870 1626h-235v287h235v-287zM735 -27q-195 0 -345 92t-232 258t-82 379v50q0 212 84.5 378t240.5 258.5t359 92.5q251 0 415 -138.5t195 -363.5h-242q-28 140 -125 218.5t-245 78.5q-204 0 -320 -144t-116 -380v-50q0 -236 118 -380t320 -144q100 0 179 31.5t127 85.5
t73 121t26 143v31h-430v194h639v-784h-186l-23 201q-55 -102 -171.5 -165t-258.5 -63z" />
    <glyph glyph-name="gdotaccent" unicode="&#x121;" horiz-adv-x="1204" 
d="M506 1208v308h235v-308h-235zM575 -375q-212 0 -335.5 85.5t-141.5 228.5h246q19 -144 244 -144q132 0 205 64.5t73 187.5v156q-44 -82 -132.5 -134.5t-205.5 -52.5q-137 0 -242 67.5t-159.5 183t-54.5 261.5v41q0 223 123 366.5t327 143.5q126 0 218.5 -57.5
t136.5 -140.5l6 174h209v-987q0 -207 -134.5 -325t-382.5 -118zM584 197q138 0 214 89t76 242v41q0 156 -75.5 244t-214.5 88q-135 0 -209 -88.5t-74 -243.5v-41q0 -152 74.5 -241.5t208.5 -89.5z" />
    <glyph glyph-name="uni0122" unicode="&#x122;" horiz-adv-x="1474" 
d="M735 -27q-195 0 -345 92t-232 258t-82 379v50q0 212 84.5 378t240.5 258.5t359 92.5q251 0 415 -138.5t195 -363.5h-242q-28 140 -125 218.5t-245 78.5q-204 0 -320 -144t-116 -380v-50q0 -236 118 -380t320 -144q100 0 179 31.5t127 85.5t73 121t26 143v31h-430v194h639
v-784h-186l-23 201q-55 -102 -171.5 -165t-258.5 -63zM645 -633h-39v121h41q49 0 71.5 22t22.5 68v70h-86v223h217v-289q0 -108 -54.5 -161.5t-172.5 -53.5z" />
    <glyph glyph-name="uni0123" unicode="&#x123;" horiz-adv-x="1204" 
d="M696 1710h37v-119h-41q-94 0 -94 -90v-69h88v-224h-219v287q0 109 55 162t174 53zM575 -375q-212 0 -335.5 85.5t-141.5 228.5h246q19 -144 244 -144q132 0 205 64.5t73 187.5v156q-44 -82 -132.5 -134.5t-205.5 -52.5q-137 0 -242 67.5t-159.5 183t-54.5 261.5v41
q0 223 123 366.5t327 143.5q126 0 218.5 -57.5t136.5 -140.5l6 174h209v-987q0 -207 -134.5 -325t-382.5 -118zM584 197q138 0 214 89t76 242v41q0 156 -75.5 244t-214.5 88q-135 0 -209 -88.5t-74 -243.5v-41q0 -152 74.5 -241.5t208.5 -89.5z" />
    <glyph glyph-name="Hcircumflex" unicode="&#x124;" horiz-adv-x="1439" 
d="M575 1618h-204l204 295h291l205 -295h-203l-147 151zM362 0h-239v1454h239v-606h715v606h240v-1454h-240v647h-715v-647z" />
    <glyph glyph-name="hcircumflex" unicode="&#x125;" horiz-adv-x="1144" 
d="M227 1769l-145 -151h-205l205 295h291l205 -295h-203zM338 0h-225v1516h227v-623q46 84 130.5 135t203.5 51q185 0 274.5 -105.5t89.5 -293.5v-680h-223v625q0 133 -52 200.5t-165 67.5q-118 0 -189 -81.5t-71 -221.5v-590z" />
    <glyph glyph-name="Hbar" unicode="&#x126;" horiz-adv-x="1439" 
d="M1317 1214h117v-155h-117v-1059h-240v647h-715v-647h-239v1059h-115v155h115v240h239v-240h715v240h240v-240zM362 848h715v211h-715v-211z" />
    <glyph glyph-name="hbar" unicode="&#x127;" horiz-adv-x="1144" 
d="M674 1079q185 0 274.5 -105.5t89.5 -293.5v-680h-223v625q0 133 -52 200.5t-165 67.5q-118 0 -189 -81.5t-71 -221.5v-590h-225v1200h-117v170h117v146h227v-146h373v-170h-373v-307q46 84 130.5 135t203.5 51z" />
    <glyph glyph-name="Itilde" unicode="&#x128;" horiz-adv-x="509" 
d="M367 1647q-42 0 -79.5 22t-66 44t-49.5 22q-37 0 -43 -82h-143q7 129 47 188.5t114 59.5q42 0 80 -22.5t66.5 -44.5t48.5 -22t30 19t13 65h143q-7 -131 -47 -190t-114 -59zM375 0h-240v1454h240v-1454z" />
    <glyph glyph-name="itilde" unicode="&#x129;" horiz-adv-x="450" 
d="M340 1225q-40 0 -77 21.5t-65.5 43t-45.5 21.5q-40 0 -43 -80h-142q6 129 41 189.5t107 60.5q39 0 76 -21.5t66 -43t46 -21.5q38 0 41 80h141q-5 -128 -39.5 -189t-105.5 -61zM338 0h-225v1055h225v-1055z" />
    <glyph glyph-name="Imacron" unicode="&#x12a;" horiz-adv-x="509" 
d="M526 1681h-542v179h542v-179zM375 0h-240v1454h240v-1454z" />
    <glyph glyph-name="imacron" unicode="&#x12b;" horiz-adv-x="450" 
d="M463 1257h-475v191h475v-191zM338 0h-225v1055h225v-1055z" />
    <glyph glyph-name="Ibreve" unicode="&#x12c;" horiz-adv-x="509" 
d="M256 1616q-143 0 -207.5 60t-64.5 173v64h174v-60q0 -88 98 -88t98 88v60h172v-64q0 -113 -63.5 -173t-206.5 -60zM375 0h-240v1454h240v-1454z" />
    <glyph glyph-name="ibreve" unicode="&#x12d;" horiz-adv-x="450" 
d="M227 1206q-247 0 -247 224v86h167v-86q0 -76 80 -76t80 76v86h168v-86q0 -224 -248 -224zM338 0h-225v1055h225v-1055z" />
    <glyph glyph-name="Iogonek" unicode="&#x12e;" horiz-adv-x="509" 
d="M375 1454v-1454q-88 -44 -128 -95.5t-40 -97.5q0 -77 86 -77q25 0 57 8v-131q-41 -23 -108 -23q-91 0 -153 44.5t-62 133.5q0 71 43.5 132.5t115.5 105.5h-51v1454h240z" />
    <glyph glyph-name="iogonek" unicode="&#x12f;" horiz-adv-x="450" 
d="M109 1208v308h235v-308h-235zM150 0h-37v1055h225v-1055q-88 -44 -128 -95.5t-40 -97.5q0 -77 86 -77q25 0 57 8v-131q-41 -23 -108 -23q-91 0 -153 44.5t-62 133.5q0 71 44 132.5t116 105.5z" />
    <glyph glyph-name="Idotaccent" unicode="&#x130;" horiz-adv-x="509" 
d="M373 1626h-236v287h236v-287zM375 0h-240v1454h240v-1454z" />
    <glyph glyph-name="dotlessi" unicode="&#x131;" horiz-adv-x="450" 
d="M338 0h-225v1055h225v-1055z" />
    <glyph glyph-name="IJ" unicode="&#x132;" horiz-adv-x="1673" 
d="M375 0h-240v1454h240v-1454zM1065 -27q-239 0 -366.5 124.5t-127.5 334.5v80h236v-76q0 -254 254 -254q132 0 195 69.5t63 215.5v987h237v-977q0 -236 -129.5 -370t-361.5 -134z" />
    <glyph glyph-name="ij" unicode="&#x133;" horiz-adv-x="913" 
d="M109 1208v308h235v-308h-235zM567 1208v308h236v-308h-236zM338 0h-225v1055h225v-1055zM479 -375q-81 0 -160 27v176q58 -21 115 -21q76 0 108.5 37t32.5 117v1094h226v-1118q0 -152 -80.5 -232t-241.5 -80z" />
    <glyph glyph-name="Jcircumflex" unicode="&#x134;" horiz-adv-x="1163" 
d="M840 1618h-183l164 295h228l161 -295h-180l-96 154zM555 -27q-239 0 -366.5 124.5t-127.5 334.5v80h236v-76q0 -254 254 -254q132 0 195 69.5t63 215.5v987h238v-977q0 -236 -130 -370t-362 -134z" />
    <glyph glyph-name="jcircumflex" unicode="&#x135;" horiz-adv-x="503" 
d="M201 1208h-156l102 308h256l103 -308h-154l-78 170zM70 -375q-81 0 -160 27v176q54 -21 115 -21q76 0 108.5 37t32.5 117v1094h225v-1118q0 -153 -80 -232.5t-241 -79.5z" />
    <glyph glyph-name="uni0136" unicode="&#x136;" horiz-adv-x="1294" 
d="M362 0h-239v1454h239v-694l611 694h282l-563 -627l584 -827h-275l-469 668l-170 -189v-479zM510 -633h-39v121h41q49 0 71.5 22t22.5 68v70h-86v223h217v-289q0 -108 -54.5 -161.5t-172.5 -53.5z" />
    <glyph glyph-name="uni0137" unicode="&#x137;" horiz-adv-x="1048" 
d="M338 0h-225v1516h225v-883l414 422h272l-420 -422l434 -633h-258l-338 494l-104 -105v-389zM387 -633h-39v121h41q49 0 71.5 22t22.5 68v70h-86v223h217v-289q0 -108 -54.5 -161.5t-172.5 -53.5z" />
    <glyph glyph-name="Lacute" unicode="&#x139;" horiz-adv-x="1013" 
d="M330 1618h-230l258 295h328zM971 0h-848v1454h239v-1255h609v-199z" />
    <glyph glyph-name="lacute" unicode="&#x13a;" horiz-adv-x="450" 
d="M309 1618h-229l258 295h328zM338 0h-225v1516h225v-1516z" />
    <glyph glyph-name="uni013B" unicode="&#x13b;" horiz-adv-x="1013" 
d="M971 0h-848v1454h239v-1255h609v-199zM453 -633h-39v121h41q49 0 71.5 22t22.5 68v70h-86v223h217v-289q0 -108 -54.5 -161.5t-172.5 -53.5z" />
    <glyph glyph-name="uni013C" unicode="&#x13c;" horiz-adv-x="450" 
d="M338 0h-225v1516h225v-1516zM106 -633h-38v121h41q49 0 71.5 22t22.5 68v70h-86v223h217v-289q0 -108 -55 -161.5t-173 -53.5z" />
    <glyph glyph-name="Lcaron" unicode="&#x13d;" horiz-adv-x="1013" 
d="M971 0h-848v1454h239v-1255h609v-199zM836 1024h-187l92 430h228z" />
    <glyph glyph-name="lcaron" unicode="&#x13e;" horiz-adv-x="450" 
d="M338 0h-225v1516h225v-1516zM745 1516l-133 -308h-186l92 308h227z" />
    <glyph glyph-name="Ldot" unicode="&#x13f;" horiz-adv-x="1013" 
d="M971 0h-848v1454h239v-1255h609v-199zM907 692h-243v246h243v-246z" />
    <glyph glyph-name="ldot" unicode="&#x140;" horiz-adv-x="768" 
d="M338 0h-225v1516h225v-1516zM729 629h-244v245h244v-245z" />
    <glyph glyph-name="Lslash" unicode="&#x141;" horiz-adv-x="1013" 
d="M362 686v-487h609v-199h-848v565l-180 -92v209l180 92v680h239v-559l357 182v-209z" />
    <glyph glyph-name="lslash" unicode="&#x142;" horiz-adv-x="450" 
d="M338 922l170 90v-205l-170 -88v-719h-225v600l-168 -88v203l168 88v713h225v-594z" />
    <glyph glyph-name="Nacute" unicode="&#x143;" horiz-adv-x="1441" 
d="M805 1618h-230l259 295h327zM354 0h-231v1454h285l682 -1116v1116h229v-1454h-268l-697 1145v-1145z" />
    <glyph glyph-name="nacute" unicode="&#x144;" horiz-adv-x="1144" 
d="M952 1516l-327 -308h-203l229 308h301zM338 0h-225v1055h217l8 -168q45 85 130.5 138.5t205.5 53.5q185 0 274.5 -105.5t89.5 -293.5v-680h-223v625q0 133 -52 200.5t-165 67.5q-118 0 -189 -81.5t-71 -221.5v-590z" />
    <glyph glyph-name="uni0145" unicode="&#x145;" horiz-adv-x="1441" 
d="M354 0h-231v1454h285l682 -1116v1116h229v-1454h-268l-697 1145v-1145zM614 -633h-39v121h41q49 0 72 22t23 68v70h-86v223h217v-289q0 -108 -55 -161.5t-173 -53.5z" />
    <glyph glyph-name="uni0146" unicode="&#x146;" horiz-adv-x="1144" 
d="M338 0h-225v1055h217l8 -168q45 85 130.5 138.5t205.5 53.5q185 0 274.5 -105.5t89.5 -293.5v-680h-223v625q0 133 -52 200.5t-165 67.5q-118 0 -189 -81.5t-71 -221.5v-590zM457 -633h-39v121h41q49 0 71.5 22t22.5 68v70h-86v223h217v-289q0 -108 -54.5 -161.5
t-172.5 -53.5z" />
    <glyph glyph-name="Ncaron" unicode="&#x147;" horiz-adv-x="1441" 
d="M866 1618h-291l-204 295h204l146 -152l147 152h203zM354 0h-231v1454h285l682 -1116v1116h229v-1454h-268l-697 1145v-1145z" />
    <glyph glyph-name="ncaron" unicode="&#x148;" horiz-adv-x="1144" 
d="M567 1346l119 170h186l-159 -308h-289l-160 308h187zM338 0h-225v1055h217l8 -168q45 85 130.5 138.5t205.5 53.5q185 0 274.5 -105.5t89.5 -293.5v-680h-223v625q0 133 -52 200.5t-165 67.5q-118 0 -189 -81.5t-71 -221.5v-590z" />
    <glyph glyph-name="Eng" unicode="&#x14a;" horiz-adv-x="1429" 
d="M1090 1454h229v-1454h-2v-102q0 -130 -77.5 -201.5t-229.5 -71.5q-90 0 -174 31v172q51 -21 102 -21q58 0 84.5 28t26.5 87v82l-695 1141v-1145h-231v1454h285l682 -1116v1116z" />
    <glyph glyph-name="eng" unicode="&#x14b;" horiz-adv-x="1150" 
d="M674 1079q185 0 274.5 -105.5t89.5 -293.5v-743q0 -153 -80 -232.5t-241 -79.5q-81 0 -160 27v176q58 -21 115 -21q78 0 110.5 37t32.5 117v664q0 133 -52 200.5t-165 67.5q-118 0 -189 -81.5t-71 -221.5v-590h-225v1055h217l8 -168q45 85 130.5 138.5t205.5 53.5z" />
    <glyph glyph-name="Omacron" unicode="&#x14c;" horiz-adv-x="1533" 
d="M1130 1681h-729v179h729v-179zM766 -27q-208 0 -365.5 93t-241 258t-83.5 378v50q0 214 84 379t241 257.5t365 92.5q209 0 366.5 -92.5t241.5 -257.5t84 -379v-50q0 -213 -84 -378t-241.5 -258t-366.5 -93zM766 178q210 0 327 141.5t117 382.5v50q0 241 -117 382.5
t-327 141.5q-209 0 -326.5 -142t-117.5 -382v-50q0 -240 118.5 -382t325.5 -142z" />
    <glyph glyph-name="omacron" unicode="&#x14d;" horiz-adv-x="1185" 
d="M279 1257v191h626v-191h-626zM592 -27q-235 0 -377.5 148.5t-142.5 390.5v31q0 242 142 389t378 147q237 0 379.5 -147t142.5 -389v-31q0 -242 -142.5 -390.5t-379.5 -148.5zM592 156q144 0 218.5 92t74.5 264v31q0 171 -74.5 262.5t-218.5 91.5q-142 0 -216.5 -91.5
t-74.5 -262.5v-31q0 -171 74.5 -263.5t216.5 -92.5z" />
    <glyph glyph-name="Obreve" unicode="&#x14e;" horiz-adv-x="1533" 
d="M764 1616q-169 0 -244.5 64t-75.5 188v45h191v-37q0 -49 29.5 -73.5t99.5 -24.5q71 0 101 25t30 73v37h190v-45q0 -124 -75 -188t-246 -64zM766 -27q-208 0 -365.5 93t-241 258t-83.5 378v50q0 214 84 379t241 257.5t365 92.5q209 0 366.5 -92.5t241.5 -257.5t84 -379
v-50q0 -213 -84 -378t-241.5 -258t-366.5 -93zM766 178q210 0 327 141.5t117 382.5v50q0 241 -117 382.5t-327 141.5q-209 0 -326.5 -142t-117.5 -382v-50q0 -240 118.5 -382t325.5 -142z" />
    <glyph glyph-name="obreve" unicode="&#x14f;" horiz-adv-x="1185" 
d="M592 1206q-153 0 -224 63.5t-71 186.5v60h170v-68q0 -51 30.5 -75.5t94.5 -24.5q123 0 123 100v68h170v-60q0 -123 -70.5 -186.5t-222.5 -63.5zM592 -27q-235 0 -377.5 148.5t-142.5 390.5v31q0 242 142 389t378 147q237 0 379.5 -147t142.5 -389v-31
q0 -242 -142.5 -390.5t-379.5 -148.5zM592 156q144 0 218.5 92t74.5 264v31q0 171 -74.5 262.5t-218.5 91.5q-142 0 -216.5 -91.5t-74.5 -262.5v-31q0 -171 74.5 -263.5t216.5 -92.5z" />
    <glyph glyph-name="Ohungarumlaut" unicode="&#x150;" horiz-adv-x="1533" 
d="M657 1618h-172l131 295h205zM993 1618h-172l131 295h205zM766 -27q-208 0 -365.5 93t-241 258t-83.5 378v50q0 214 84 379t241 257.5t365 92.5q209 0 366.5 -92.5t241.5 -257.5t84 -379v-50q0 -213 -84 -378t-241.5 -258t-366.5 -93zM766 178q210 0 327 141.5t117 382.5
v50q0 241 -117 382.5t-327 141.5q-209 0 -326.5 -142t-117.5 -382v-50q0 -240 118.5 -382t325.5 -142z" />
    <glyph glyph-name="ohungarumlaut" unicode="&#x151;" horiz-adv-x="1185" 
d="M643 1516l-162 -308h-168l131 308h199zM973 1516l-162 -308h-168l131 308h199zM592 -27q-235 0 -377.5 148.5t-142.5 390.5v31q0 242 142 389t378 147q237 0 379.5 -147t142.5 -389v-31q0 -242 -142.5 -390.5t-379.5 -148.5zM592 156q144 0 218.5 92t74.5 264v31
q0 171 -74.5 262.5t-218.5 91.5q-142 0 -216.5 -91.5t-74.5 -262.5v-31q0 -171 74.5 -263.5t216.5 -92.5z" />
    <glyph glyph-name="OE" unicode="&#x152;" horiz-adv-x="2310" 
d="M1448 643v-444h776v-199h-1014v158q-182 -185 -456 -185q-202 0 -356.5 92.5t-238 258t-83.5 378.5v50q0 214 83.5 379t238 257.5t356.5 92.5q276 0 456 -183v156h1002v-199h-764v-413h700v-199h-700zM766 178q196 0 312.5 124.5t131.5 340.5v168q-15 216 -131.5 340.5
t-312.5 124.5q-209 0 -326.5 -142t-117.5 -382v-50q0 -240 118.5 -382t325.5 -142z" />
    <glyph glyph-name="oe" unicode="&#x153;" horiz-adv-x="1972" 
d="M1405 1079q254 0 382 -162.5t116 -439.5h-789q7 -158 82 -240.5t209 -82.5q107 0 174.5 47t91.5 129h225q-39 -168 -167 -262.5t-324 -94.5q-264 0 -408 177q-147 -177 -405 -177q-235 0 -377.5 148.5t-142.5 390.5v31q0 242 142 389t378 147q129 0 233 -46t172 -130
q143 176 408 176zM1118 639h553q-12 126 -79 194t-189 68q-247 0 -285 -262zM592 156q134 0 208.5 82t82.5 235v39v31v39q-8 153 -82 234t-209 81q-142 0 -216.5 -91.5t-74.5 -262.5v-31q0 -171 74.5 -263.5t216.5 -92.5z" />
    <glyph glyph-name="Racute" unicode="&#x154;" horiz-adv-x="1288" 
d="M696 1618h-229l258 295h328zM358 0h-235v1454h612q226 0 362 -113.5t136 -320.5v-33q0 -168 -91 -274.5t-251 -141.5l373 -571h-273l-352 553h-281v-553zM358 1253v-499h359q127 0 199.5 58t72.5 175v33q0 117 -72.5 175t-199.5 58h-359z" />
    <glyph glyph-name="racute" unicode="&#x155;" horiz-adv-x="749" 
d="M436 1208h-203l230 308h301zM338 0h-225v1055h217l6 -205q44 105 126 165t193 60q31 0 58 -6v-219q-40 4 -70 4q-145 0 -225 -81t-80 -236v-537z" />
    <glyph glyph-name="uni0156" unicode="&#x156;" horiz-adv-x="1288" 
d="M358 0h-235v1454h612q226 0 362 -113.5t136 -320.5v-33q0 -168 -91 -274.5t-251 -141.5l373 -571h-273l-352 553h-281v-553zM358 1253v-499h359q127 0 199.5 58t72.5 175v33q0 117 -72.5 175t-199.5 58h-359zM532 -633h-38v121h41q49 0 71.5 22t22.5 68v70h-86v223h217
v-289q0 -108 -55 -161.5t-173 -53.5z" />
    <glyph glyph-name="uni0157" unicode="&#x157;" horiz-adv-x="749" 
d="M338 0h-225v1055h217l6 -205q44 105 126 165t193 60q31 0 58 -6v-219q-40 4 -70 4q-145 0 -225 -81t-80 -236v-537zM109 -633h-39v121h41q49 0 71.5 22t22.5 68v70h-86v223h217v-289q0 -108 -54.5 -161.5t-172.5 -53.5z" />
    <glyph glyph-name="Rcaron" unicode="&#x158;" horiz-adv-x="1288" 
d="M758 1618h-291l-205 295h205l145 -152l148 152h203zM358 0h-235v1454h612q226 0 362 -113.5t136 -320.5v-33q0 -168 -91 -274.5t-251 -141.5l373 -571h-273l-352 553h-281v-553zM358 1253v-499h359q127 0 199.5 58t72.5 175v33q0 117 -72.5 175t-199.5 58h-359z" />
    <glyph glyph-name="rcaron" unicode="&#x159;" horiz-adv-x="749" 
d="M262 1516l117 -170l119 170h186l-160 -308h-288l-160 308h186zM338 0h-225v1055h217l6 -205q44 105 126 165t193 60q31 0 58 -6v-219q-40 4 -70 4q-145 0 -225 -81t-80 -236v-537z" />
    <glyph glyph-name="Sacute" unicode="&#x15a;" horiz-adv-x="1284" 
d="M733 1618h-229l258 295h328zM659 -27q-264 0 -424 128.5t-172 359.5h238q7 -75 37.5 -131t79.5 -90t112 -51t140 -17q142 0 227.5 56t85.5 161v10q0 95 -82.5 149t-300.5 93q-261 46 -373 146t-112 268v14q0 181 144.5 296.5t379.5 115.5q154 0 273 -49.5t193.5 -152
t88.5 -247.5h-240q-15 124 -98.5 188t-220.5 64q-134 0 -210.5 -56.5t-76.5 -152.5v-10q0 -60 26.5 -98.5t104 -70.5t219.5 -56q267 -45 394 -144t127 -274v-16q0 -192 -152.5 -312.5t-407.5 -120.5z" />
    <glyph glyph-name="sacute" unicode="&#x15b;" horiz-adv-x="1028" 
d="M897 1516l-328 -308h-202l229 308h301zM524 -27q-204 0 -326 93t-137 262h218q13 -92 77 -138.5t170 -46.5q97 0 155 38.5t58 107.5q0 64 -55.5 99.5t-204.5 62.5q-198 33 -289.5 104.5t-91.5 208.5q0 140 115 227.5t297 87.5q191 0 304 -86t128 -243h-215
q-12 79 -69.5 121t-149.5 42q-89 0 -141 -36.5t-52 -100.5q0 -62 54 -95t198 -56q204 -33 300 -107t96 -209q0 -151 -120.5 -243.5t-318.5 -92.5z" />
    <glyph glyph-name="Scircumflex" unicode="&#x15c;" horiz-adv-x="1284" 
d="M506 1618h-205l205 295h291l204 -295h-202l-148 151zM659 -27q-264 0 -424 128.5t-172 359.5h238q7 -75 37.5 -131t79.5 -90t112 -51t140 -17q142 0 227.5 56t85.5 161v10q0 95 -82.5 149t-300.5 93q-261 46 -373 146t-112 268v14q0 181 144.5 296.5t379.5 115.5
q154 0 273 -49.5t193.5 -152t88.5 -247.5h-240q-15 124 -98.5 188t-220.5 64q-134 0 -210.5 -56.5t-76.5 -152.5v-10q0 -60 26.5 -98.5t104 -70.5t219.5 -56q267 -45 394 -144t127 -274v-16q0 -192 -152.5 -312.5t-407.5 -120.5z" />
    <glyph glyph-name="scircumflex" unicode="&#x15d;" horiz-adv-x="1028" 
d="M207 1208l162 308h284l162 -308h-174l-131 176l-129 -176h-174zM524 -27q-204 0 -326 93t-137 262h218q13 -92 77 -138.5t170 -46.5q97 0 155 38.5t58 107.5q0 64 -55.5 99.5t-204.5 62.5q-198 33 -289.5 104.5t-91.5 208.5q0 140 115 227.5t297 87.5q191 0 304 -86
t128 -243h-215q-12 79 -69.5 121t-149.5 42q-89 0 -141 -36.5t-52 -100.5q0 -62 54 -95t198 -56q204 -33 300 -107t96 -209q0 -151 -120.5 -243.5t-318.5 -92.5z" />
    <glyph glyph-name="Scedilla" unicode="&#x15e;" horiz-adv-x="1284" 
d="M698 840q267 -45 394 -144t127 -274v-16q0 -179 -134 -297.5t-362 -133.5l-43 -90h10q85 0 141 -38.5t56 -127.5q0 -93 -69 -139.5t-179 -46.5q-91 0 -143 25v110q45 -20 104 -20q105 0 105 71q0 70 -89 70q-45 0 -81 -8v84l55 110q-235 18 -376 144.5t-151 341.5h238
q7 -75 37.5 -131t79.5 -90t112 -51t140 -17q142 0 227.5 56t85.5 161v10q0 95 -82.5 149t-300.5 93q-261 46 -373 146t-112 268v14q0 181 144.5 296.5t379.5 115.5q154 0 273 -49.5t193.5 -152t88.5 -247.5h-240q-15 124 -98.5 188t-220.5 64q-134 0 -210.5 -56.5
t-76.5 -152.5v-10q0 -60 26.5 -98.5t104 -70.5t219.5 -56z" />
    <glyph glyph-name="scedilla" unicode="&#x15f;" horiz-adv-x="1028" 
d="M963 309q0 -141 -106.5 -231.5t-283.5 -102.5l-43 -90h11q85 0 140.5 -38.5t55.5 -127.5q0 -93 -69 -139.5t-179 -46.5q-91 0 -143 25v110q45 -20 105 -20q104 0 104 71q0 70 -88 70q-46 0 -82 -8v84l57 112q-169 19 -268.5 110t-112.5 241h218q13 -92 77 -138.5
t170 -46.5q97 0 155 38.5t58 107.5q0 64 -55.5 99.5t-204.5 62.5q-198 33 -289.5 104.5t-91.5 208.5q0 140 115 227.5t297 87.5q191 0 304 -86t128 -243h-215q-12 79 -69.5 121t-149.5 42q-89 0 -141 -36.5t-52 -100.5q0 -62 54 -95t198 -56q204 -33 300 -107t96 -209z" />
    <glyph glyph-name="Scaron" unicode="&#x160;" horiz-adv-x="1284" 
d="M797 1618h-291l-205 295h205l145 -152l148 152h202zM659 -27q-264 0 -424 128.5t-172 359.5h238q7 -75 37.5 -131t79.5 -90t112 -51t140 -17q142 0 227.5 56t85.5 161v10q0 95 -82.5 149t-300.5 93q-261 46 -373 146t-112 268v14q0 181 144.5 296.5t379.5 115.5
q154 0 273 -49.5t193.5 -152t88.5 -247.5h-240q-15 124 -98.5 188t-220.5 64q-134 0 -210.5 -56.5t-76.5 -152.5v-10q0 -60 26.5 -98.5t104 -70.5t219.5 -56q267 -45 394 -144t127 -274v-16q0 -192 -152.5 -312.5t-407.5 -120.5z" />
    <glyph glyph-name="scaron" unicode="&#x161;" horiz-adv-x="1028" 
d="M207 1516h186l117 -170l119 170h186l-160 -308h-288zM524 -27q-204 0 -326 93t-137 262h218q13 -92 77 -138.5t170 -46.5q97 0 155 38.5t58 107.5q0 64 -55.5 99.5t-204.5 62.5q-198 33 -289.5 104.5t-91.5 208.5q0 140 115 227.5t297 87.5q191 0 304 -86t128 -243h-215
q-12 79 -69.5 121t-149.5 42q-89 0 -141 -36.5t-52 -100.5q0 -62 54 -95t198 -56q204 -33 300 -107t96 -209q0 -151 -120.5 -243.5t-318.5 -92.5z" />
    <glyph glyph-name="uni0162" unicode="&#x162;" horiz-adv-x="1181" 
d="M711 1255v-1255h-56l-55 -115h10q85 0 141 -38.5t56 -127.5q0 -93 -69 -139.5t-179 -46.5q-91 0 -143 25v110q45 -20 104 -20q105 0 105 71q0 70 -88 70q-46 0 -82 -8v84l67 135h-51v1255h-428v199h1098v-199h-430z" />
    <glyph glyph-name="uni0163" unicode="&#x163;" horiz-adv-x="806" 
d="M573 -27h-2l-43 -88h11q85 0 140.5 -38.5t55.5 -127.5q0 -93 -69 -139.5t-179 -46.5q-91 0 -143 25v110q45 -20 105 -20q104 0 104 71q0 70 -88 70q-46 0 -82 -8v84l61 123q-217 52 -217 297v600h-204v170h204v329h226v-329h286v-170h-286v-576q0 -80 36 -115.5
t127 -35.5q67 0 129 20v-180q-84 -25 -172 -25z" />
    <glyph glyph-name="Tcaron" unicode="&#x164;" horiz-adv-x="1181" 
d="M737 1618h-291l-204 295h204l146 -152l147 152h203zM711 0h-240v1255h-428v199h1098v-199h-430v-1255z" />
    <glyph glyph-name="tcaron" unicode="&#x165;" horiz-adv-x="806" 
d="M633 1516h227l-133 -308h-186zM573 -27q-346 0 -346 312v600h-204v170h204v329h226v-329h286v-170h-286v-576q0 -80 36 -115.5t127 -35.5q67 0 129 20v-180q-84 -25 -172 -25z" />
    <glyph glyph-name="Tbar" unicode="&#x166;" horiz-adv-x="1181" 
d="M1141 1454v-199h-430v-440h252v-201h-252v-614h-240v614h-252v201h252v440h-428v199h1098z" />
    <glyph glyph-name="tbar" unicode="&#x167;" horiz-adv-x="806" 
d="M616 158q67 0 129 20v-180q-84 -25 -172 -25q-346 0 -346 312v196h-204v170h204v234h-204v170h204v329h226v-329h286v-170h-286v-234h286v-170h-286v-172q0 -80 36 -115.5t127 -35.5z" />
    <glyph glyph-name="Utilde" unicode="&#x168;" horiz-adv-x="1409" 
d="M850 1647q-54 0 -103 21.5t-88 43t-69 21.5q-66 0 -72 -80h-149q6 128 52 188t138 60q54 0 104 -21.5t89.5 -43t68.5 -21.5q34 0 50.5 19t19.5 62h151q-6 -130 -54 -189.5t-138 -59.5zM705 -27q-288 0 -438 151.5t-150 430.5v899h239v-893q0 -379 349 -379
q173 0 261.5 96t88.5 285v891h237v-897q0 -279 -149.5 -431.5t-437.5 -152.5z" />
    <glyph glyph-name="utilde" unicode="&#x169;" horiz-adv-x="1130" 
d="M698 1225q-44 0 -87.5 22t-80 44t-63.5 22q-54 0 -57 -82h-154q6 137 48.5 199.5t131.5 62.5q42 0 87 -22t83 -44t62 -22q29 0 41.5 19t15.5 63h154q-6 -137 -50.5 -199.5t-130.5 -62.5zM469 -27q-181 0 -273 106.5t-92 297.5v678h228v-635q0 -126 50.5 -192t160.5 -66
q116 0 182 82.5t66 224.5v586h227v-1055h-219l-4 160q-49 -82 -133.5 -134.5t-192.5 -52.5z" />
    <glyph glyph-name="Umacron" unicode="&#x16a;" horiz-adv-x="1409" 
d="M1069 1681h-729v179h729v-179zM705 -27q-288 0 -438 151.5t-150 430.5v899h239v-893q0 -379 349 -379q173 0 261.5 96t88.5 285v891h237v-897q0 -279 -149.5 -431.5t-437.5 -152.5z" />
    <glyph glyph-name="umacron" unicode="&#x16b;" horiz-adv-x="1130" 
d="M881 1257h-627v191h627v-191zM469 -27q-181 0 -273 106.5t-92 297.5v678h228v-635q0 -126 50.5 -192t160.5 -66q116 0 182 82.5t66 224.5v586h227v-1055h-219l-4 160q-49 -82 -133.5 -134.5t-192.5 -52.5z" />
    <glyph glyph-name="Ubreve" unicode="&#x16c;" horiz-adv-x="1409" 
d="M702 1616q-169 0 -244 64t-75 188v45h190v-37q0 -49 29.5 -73.5t99.5 -24.5q71 0 101.5 25t30.5 73v37h190v-45q0 -124 -75.5 -188t-246.5 -64zM705 -27q-288 0 -438 151.5t-150 430.5v899h239v-893q0 -379 349 -379q173 0 261.5 96t88.5 285v891h237v-897
q0 -279 -149.5 -431.5t-437.5 -152.5z" />
    <glyph glyph-name="ubreve" unicode="&#x16d;" horiz-adv-x="1130" 
d="M567 1206q-153 0 -224 63.5t-71 186.5v60h170v-68q0 -51 30.5 -75.5t94.5 -24.5q123 0 123 100v68h170v-60q0 -123 -70.5 -186.5t-222.5 -63.5zM469 -27q-181 0 -273 106.5t-92 297.5v678h228v-635q0 -126 50.5 -192t160.5 -66q116 0 182 82.5t66 224.5v586h227v-1055
h-219l-4 160q-49 -82 -133.5 -134.5t-192.5 -52.5z" />
    <glyph glyph-name="Uring" unicode="&#x16e;" horiz-adv-x="1409" 
d="M705 1565q-101 0 -167.5 63t-66.5 160q0 96 66 158.5t168 62.5q104 0 168.5 -62t64.5 -159t-64.5 -160t-168.5 -63zM707 1700q40 0 64 24.5t24 65.5q0 40 -24 63t-64 23q-42 0 -67.5 -23.5t-25.5 -62.5q0 -41 25.5 -65.5t67.5 -24.5zM705 -27q-288 0 -438 151.5
t-150 430.5v899h239v-893q0 -379 349 -379q173 0 261.5 96t88.5 285v891h237v-897q0 -279 -149.5 -431.5t-437.5 -152.5z" />
    <glyph glyph-name="uring" unicode="&#x16f;" horiz-adv-x="1130" 
d="M567 1200q-101 0 -167 63t-66 160t66 159.5t167 62.5q104 0 169 -62.5t65 -159.5t-65 -160t-169 -63zM569 1335q40 0 64 24.5t24 65.5q0 40 -24 63t-64 23q-42 0 -67 -23.5t-25 -62.5q0 -41 25.5 -65.5t66.5 -24.5zM469 -27q-181 0 -273 106.5t-92 297.5v678h228v-635
q0 -126 50.5 -192t160.5 -66q116 0 182 82.5t66 224.5v586h227v-1055h-219l-4 160q-49 -82 -133.5 -134.5t-192.5 -52.5z" />
    <glyph glyph-name="Uhungarumlaut" unicode="&#x170;" horiz-adv-x="1409" 
d="M596 1618h-172l131 295h205zM932 1618h-172l131 295h205zM705 -27q-288 0 -438 151.5t-150 430.5v899h239v-893q0 -379 349 -379q173 0 261.5 96t88.5 285v891h237v-897q0 -279 -149.5 -431.5t-437.5 -152.5z" />
    <glyph glyph-name="uhungarumlaut" unicode="&#x171;" horiz-adv-x="1130" 
d="M420 1516h198l-161 -308h-168zM750 1516h198l-162 -308h-168zM469 -27q-181 0 -273 106.5t-92 297.5v678h228v-635q0 -126 50.5 -192t160.5 -66q116 0 182 82.5t66 224.5v586h227v-1055h-219l-4 160q-49 -82 -133.5 -134.5t-192.5 -52.5z" />
    <glyph glyph-name="Uogonek" unicode="&#x172;" horiz-adv-x="1409" 
d="M1055 563v891h237v-897q0 -224 -98 -368t-289 -193q-122 -37 -177.5 -86t-55.5 -100q0 -80 102 -80q51 0 86 14v-135q-50 -25 -125 -25q-112 0 -179 51t-67 144q0 114 125 198q-244 23 -370.5 172t-126.5 406v899h239v-893q0 -379 349 -379q173 0 261.5 96t88.5 285z" />
    <glyph glyph-name="uogonek" unicode="&#x173;" horiz-adv-x="1130" 
d="M1018 1055v-1055q-129 -37 -187.5 -87.5t-58.5 -102.5q0 -80 102 -80q52 0 87 14v-135q-50 -25 -125 -25q-112 0 -179 51t-67 144q0 147 209 246l-4 135q-49 -82 -133.5 -134.5t-192.5 -52.5q-181 0 -273 106.5t-92 297.5v678h228v-635q0 -126 50.5 -192t160.5 -66
q116 0 182 82.5t66 224.5v586h227z" />
    <glyph glyph-name="Wcircumflex" unicode="&#x174;" horiz-adv-x="1978" 
d="M846 1618h-205l205 295h291l204 -295h-202l-148 151zM690 0h-276l-389 1454h247l287 -1157l309 1157h258l306 -1159l284 1159h238l-391 -1454h-267l-303 1135z" />
    <glyph glyph-name="wcircumflex" unicode="&#x175;" horiz-adv-x="1605" 
d="M674 1208h-174l162 308h284l162 -308h-174l-131 176zM580 0h-238l-317 1055h227l219 -803l219 803h223l224 -809l221 809h223l-319 -1055h-238l-223 784z" />
    <glyph glyph-name="Ycircumflex" unicode="&#x176;" horiz-adv-x="1302" 
d="M506 1618h-205l205 295h291l204 -295h-202l-148 151zM770 0h-238v471l-512 983h261l374 -756l375 756h252l-512 -983v-471z" />
    <glyph glyph-name="ycircumflex" unicode="&#x177;" horiz-adv-x="1077" 
d="M410 1208h-174l161 308h285l162 -308h-174l-131 176zM526 -348h-231l135 354l-405 1049h239l285 -801l274 801h232z" />
    <glyph glyph-name="Ydieresis" unicode="&#x178;" horiz-adv-x="1302" 
d="M545 1626h-236v287h236v-287zM991 1626h-235v287h235v-287zM770 0h-238v471l-512 983h261l374 -756l375 756h252l-512 -983v-471z" />
    <glyph glyph-name="Zacute" unicode="&#x179;" horiz-adv-x="1138" 
d="M653 1618h-229l258 295h328zM1081 0h-1024v180l727 1075h-688v199h969v-180l-725 -1075h741v-199z" />
    <glyph glyph-name="zacute" unicode="&#x17a;" horiz-adv-x="972" 
d="M598 1516h301l-328 -308h-202zM905 0h-833v164l546 710h-512v181h777v-162l-541 -711h563v-182z" />
    <glyph glyph-name="Zdotaccent" unicode="&#x17b;" horiz-adv-x="1138" 
d="M686 1626h-235v287h235v-287zM1081 0h-1024v180l727 1075h-688v199h969v-180l-725 -1075h741v-199z" />
    <glyph glyph-name="zdotaccent" unicode="&#x17c;" horiz-adv-x="972" 
d="M397 1208v308h236v-308h-236zM905 0h-833v164l546 710h-512v181h777v-162l-541 -711h563v-182z" />
    <glyph glyph-name="Zcaron" unicode="&#x17d;" horiz-adv-x="1138" 
d="M715 1618h-291l-205 295h205l145 -152l148 152h203zM1081 0h-1024v180l727 1075h-688v199h969v-180l-725 -1075h741v-199z" />
    <glyph glyph-name="zcaron" unicode="&#x17e;" horiz-adv-x="972" 
d="M211 1516h186l117 -170l119 170h186l-160 -308h-288zM905 0h-833v164l546 710h-512v181h777v-162l-541 -711h563v-182z" />
    <glyph glyph-name="florin" unicode="&#x192;" horiz-adv-x="1103" 
d="M930 1360q-97 0 -143.5 -37.5t-55.5 -116.5l-18 -151h282v-170h-303l-119 -948q-19 -154 -110 -233t-250 -79q-74 0 -172 25v174q79 -17 133 -17q84 0 126.5 37.5t51.5 116.5l113 924h-189v170h209l23 176q38 311 383 311q78 0 172 -24v-175q-79 17 -133 17z" />
    <glyph glyph-name="uni01EA" unicode="&#x1ea;" horiz-adv-x="1533" 
d="M766 1481q209 0 366.5 -92.5t241.5 -257.5t84 -379v-50q0 -270 -135 -459.5t-369 -246.5q-120 -37 -174.5 -86t-54.5 -100q0 -80 102 -80q51 0 86 14v-135q-50 -25 -125 -25q-111 0 -178 51t-67 144q0 115 127 201q-274 31 -434 227.5t-160 494.5v50q0 214 84 379
t241 257.5t365 92.5zM1210 702v50q0 241 -117 382.5t-327 141.5q-209 0 -326.5 -142t-117.5 -382v-50q0 -240 118.5 -382t325.5 -142q210 0 327 141.5t117 382.5z" />
    <glyph glyph-name="uni01EB" unicode="&#x1eb;" horiz-adv-x="1185" 
d="M592 1079q237 0 379.5 -147t142.5 -389v-31q0 -197 -97.5 -335.5t-266.5 -182.5q-117 -37 -170.5 -85.5t-53.5 -98.5q0 -80 103 -80q51 0 86 14v-135q-50 -25 -125 -25q-112 0 -179 51t-67 144q0 118 135 205q-189 34 -298 175.5t-109 352.5v31q0 242 142 389t378 147z
M885 512v31q0 171 -74.5 262.5t-218.5 91.5q-142 0 -216.5 -91.5t-74.5 -262.5v-31q0 -171 74.5 -263.5t216.5 -92.5q144 0 218.5 92t74.5 264z" />
    <glyph glyph-name="Aringacute" unicode="&#x1fa;" horiz-adv-x="1427" 
d="M715 1565q-101 0 -167.5 63t-66.5 160q0 74 41 129.5t109 77.5l57 131h252l-121 -137q60 -25 94.5 -78t34.5 -123q0 -97 -64.5 -160t-168.5 -63zM717 1876q-42 0 -67 -23.5t-25 -62.5q0 -41 25.5 -65.5t66.5 -24.5q40 0 64 24.5t24 65.5q0 40 -24 63t-64 23zM1403 0h-252
l-129 354h-625l-131 -354h-241l559 1454h260zM711 1200l-240 -647h477z" />
    <glyph glyph-name="aringacute" unicode="&#x1fb;" horiz-adv-x="1087" 
d="M555 1200q-101 0 -167 63t-66 160q0 73 39 128t104 79l74 178h239l-123 -184q62 -23 97.5 -76.5t35.5 -124.5q0 -97 -64.5 -160t-168.5 -63zM557 1335q40 0 64 24.5t24 65.5q0 40 -24 63t-64 23q-42 0 -67 -23.5t-25 -62.5q0 -41 25.5 -65.5t66.5 -24.5zM420 -27
q-161 0 -257.5 87.5t-96.5 224.5q0 126 73.5 205t208.5 98l416 61v76q0 87 -56 132.5t-157 45.5q-99 0 -160.5 -43.5t-68.5 -122.5h-216q13 161 133.5 251.5t315.5 90.5q201 0 313.5 -98t112.5 -264v-717h-207l-8 164q-50 -90 -141 -140.5t-205 -50.5zM471 152q121 0 207 67
t86 168v96l-338 -47q-72 -11 -106.5 -45.5t-34.5 -95.5q0 -67 49 -105t137 -38z" />
    <glyph glyph-name="AEacute" unicode="&#x1fc;" horiz-adv-x="1955" 
d="M1401 1913h328l-357 -295h-229zM1094 643v-444h776v-199h-1014v360h-420l-170 -360h-241l718 1454h1115v-199h-764v-413h700v-199h-700zM856 1251l-330 -698h330v698z" />
    <glyph glyph-name="aeacute" unicode="&#x1fd;" horiz-adv-x="1853" 
d="M1028 1516h301l-328 -308h-202zM1286 1079q254 0 382 -162.5t116 -439.5h-789q7 -158 82 -240.5t209 -82.5q107 0 174.5 47t91.5 129h226q-39 -167 -167.5 -262t-324.5 -95q-139 0 -247 51.5t-175 145.5q-63 -93 -176.5 -145t-255.5 -52q-165 0 -265.5 87.5t-100.5 224.5
q0 127 75.5 206t214.5 99l408 59v84q0 89 -55.5 134.5t-157.5 45.5q-98 0 -158 -43t-71 -120h-216q13 154 133.5 241.5t315.5 87.5q243 0 356 -141q138 141 375 141zM999 639h553q-12 126 -79 194t-189 68q-247 0 -285 -262zM764 387v96l-322 -45q-157 -22 -157 -145
q0 -66 48.5 -103.5t137.5 -37.5q123 0 208 65t85 170z" />
    <glyph glyph-name="Oslashacute" unicode="&#x1fe;" horiz-adv-x="1533" 
d="M879 1913h327l-356 -295h-229zM1290 1454h244l-213 -240q137 -188 137 -462v-50q0 -213 -84 -378t-241.5 -258t-366.5 -93q-249 0 -428 136l-96 -109h-244l213 240q-135 189 -135 462v50q0 214 84 379t241 257.5t365 92.5q251 0 428 -135zM322 752v-50q0 -160 53 -278
l672 756q-113 96 -281 96q-209 0 -326.5 -142t-117.5 -382zM1210 702v50q0 160 -53 278l-672 -756q113 -96 281 -96q210 0 327 141.5t117 382.5z" />
    <glyph glyph-name="oslashacute" unicode="&#x1ff;" horiz-adv-x="1185" 
d="M676 1516h301l-328 -308h-203zM975 1055h188l-153 -168q104 -138 104 -344v-31q0 -242 -142.5 -390.5t-379.5 -148.5q-186 0 -320 97l-63 -70h-189l154 170q-102 139 -102 342v31q0 242 142 389t378 147q182 0 319 -94zM301 543v-31q0 -97 25 -174l452 500
q-71 59 -186 59q-142 0 -216.5 -91.5t-74.5 -262.5zM885 512v31q0 103 -27 176l-452 -502q70 -61 186 -61q144 0 218.5 92t74.5 264z" />
    <glyph glyph-name="uni0218" unicode="&#x218;" horiz-adv-x="1284" 
d="M659 -27q-264 0 -424 128.5t-172 359.5h238q7 -75 37.5 -131t79.5 -90t112 -51t140 -17q142 0 227.5 56t85.5 161v10q0 95 -82.5 149t-300.5 93q-261 46 -373 146t-112 268v14q0 181 144.5 296.5t379.5 115.5q154 0 273 -49.5t193.5 -152t88.5 -247.5h-240
q-15 124 -98.5 188t-220.5 64q-134 0 -210.5 -56.5t-76.5 -152.5v-10q0 -60 26.5 -98.5t104 -70.5t219.5 -56q267 -45 394 -144t127 -274v-16q0 -192 -152.5 -312.5t-407.5 -120.5zM551 -633h-39v121h41q49 0 71.5 22t22.5 68v70h-86v223h217v-289q0 -108 -54.5 -161.5
t-172.5 -53.5z" />
    <glyph glyph-name="uni0219" unicode="&#x219;" horiz-adv-x="1028" 
d="M524 -27q-204 0 -326 93t-137 262h218q13 -92 77 -138.5t170 -46.5q97 0 155 38.5t58 107.5q0 64 -55.5 99.5t-204.5 62.5q-198 33 -289.5 104.5t-91.5 208.5q0 140 115 227.5t297 87.5q191 0 304 -86t128 -243h-215q-12 79 -69.5 121t-149.5 42q-89 0 -141 -36.5
t-52 -100.5q0 -62 54 -95t198 -56q204 -33 300 -107t96 -209q0 -151 -120.5 -243.5t-318.5 -92.5zM403 -633h-38v121h41q49 0 71.5 22t22.5 68v70h-86v223h217v-289q0 -108 -55 -161.5t-173 -53.5z" />
    <glyph glyph-name="uni021A" unicode="&#x21a;" horiz-adv-x="1181" 
d="M711 0h-240v1255h-428v199h1098v-199h-430v-1255zM473 -633h-39v121h41q49 0 71.5 22t22.5 68v70h-86v223h217v-289q0 -108 -54.5 -161.5t-172.5 -53.5z" />
    <glyph glyph-name="uni021B" unicode="&#x21b;" horiz-adv-x="806" 
d="M573 -27q-346 0 -346 312v600h-204v170h204v329h226v-329h286v-170h-286v-576q0 -80 36 -115.5t127 -35.5q67 0 129 20v-180q-84 -25 -172 -25zM399 -633h-39v121h41q49 0 72 22t23 68v70h-86v223h217v-289q0 -108 -55 -161.5t-173 -53.5z" />
    <glyph glyph-name="uni0237" unicode="&#x237;" horiz-adv-x="503" 
d="M70 -375q-81 0 -160 27v176q54 -21 115 -21q76 0 108.5 37t32.5 117v1094h225v-1118q0 -153 -80 -232.5t-241 -79.5z" />
    <glyph glyph-name="circumflex" unicode="&#x2c6;" horiz-adv-x="1017" 
d="M508 1384l-129 -176h-174l162 308h284l162 -308h-174z" />
    <glyph glyph-name="caron" unicode="&#x2c7;" horiz-adv-x="1017" 
d="M205 1516h186l117 -170l119 170h186l-160 -308h-288z" />
    <glyph glyph-name="breve" unicode="&#x2d8;" horiz-adv-x="997" 
d="M500 1206q-153 0 -224 63.5t-71 186.5v60h170v-68q0 -51 30.5 -75.5t94.5 -24.5q123 0 123 100v68h170v-60q0 -123 -70.5 -186.5t-222.5 -63.5z" />
    <glyph glyph-name="dotaccent" unicode="&#x2d9;" horiz-adv-x="645" 
d="M205 1208v308h235v-308h-235z" />
    <glyph glyph-name="ring" unicode="&#x2da;" horiz-adv-x="876" 
d="M438 1200q-101 0 -167 63t-66 160t66 159.5t167 62.5q104 0 169 -62.5t65 -159.5t-65 -160t-169 -63zM440 1335q40 0 64 24.5t24 65.5q0 40 -24 63t-64 23q-42 0 -67 -23.5t-25 -62.5q0 -41 25.5 -65.5t66.5 -24.5z" />
    <glyph glyph-name="ogonek" unicode="&#x2db;" horiz-adv-x="837" 
d="M451 -416q-112 0 -179 51t-67 144q0 172 289 278l139 -57q-129 -37 -187.5 -87.5t-58.5 -102.5q0 -80 102 -80q51 0 86 14v-135q-50 -25 -124 -25z" />
    <glyph glyph-name="tilde" unicode="&#x2dc;" horiz-adv-x="1032" 
d="M647 1225q-43 0 -87 22t-80.5 44t-63.5 22q-55 0 -58 -82h-153q6 137 48.5 199.5t131.5 62.5q42 0 86.5 -22t82.5 -44t62 -22q30 0 42.5 19.5t15.5 62.5h153q-6 -138 -50 -200t-130 -62z" />
    <glyph glyph-name="hungarumlaut" unicode="&#x2dd;" horiz-adv-x="1069" 
d="M336 1516h199l-162 -308h-168zM666 1516h198l-162 -308h-167z" />
    <glyph glyph-name="gravecomb" unicode="&#x300;" 
d="M-434 1516l229 -308h-205l-325 308h301z" />
    <glyph glyph-name="acutecomb" unicode="&#x301;" 
d="M-532 1208h-203l229 308h301z" />
    <glyph glyph-name="uni0302" unicode="&#x302;" 
d="M-510 1384l-129 -176h-174l162 308h284l162 -308h-174z" />
    <glyph glyph-name="tildecomb" unicode="&#x303;" 
d="M-385 1225q-44 0 -87.5 22t-80.5 44t-63 22q-55 0 -58 -82h-153q6 137 48.5 199.5t131.5 62.5q42 0 86.5 -22t82.5 -44t62 -22q30 0 42.5 19.5t15.5 62.5h153q-6 -138 -50 -200t-130 -62z" />
    <glyph glyph-name="uni0304" unicode="&#x304;" 
d="M-205 1448v-191h-626v191h626z" />
    <glyph glyph-name="uni0306" unicode="&#x306;" 
d="M-498 1206q-153 0 -224 63.5t-71 186.5v60h170v-68q0 -51 30.5 -75.5t94.5 -24.5q123 0 123 100v68h170v-60q0 -123 -70.5 -186.5t-222.5 -63.5z" />
    <glyph glyph-name="uni0307" unicode="&#x307;" 
d="M-440 1208v308h235v-308h-235z" />
    <glyph glyph-name="uni0308" unicode="&#x308;" 
d="M-627 1516v-308h-235v308h235zM-205 1516v-308h-235v308h235z" />
    <glyph glyph-name="uni030A" unicode="&#x30a;" 
d="M-438 1200q-101 0 -167.5 63t-66.5 160t66.5 159.5t167.5 62.5q104 0 168.5 -62.5t64.5 -159.5t-64.5 -160t-168.5 -63zM-436 1335q40 0 64 24.5t24 65.5q0 40 -24 63t-64 23q-42 0 -67 -23.5t-25 -62.5q0 -41 25.5 -65.5t66.5 -24.5z" />
    <glyph glyph-name="uni030B" unicode="&#x30b;" 
d="M-733 1516h198l-161 -308h-168zM-403 1516h198l-162 -308h-168z" />
    <glyph glyph-name="uni030C" unicode="&#x30c;" 
d="M-813 1516h186l117 -170l119 170h186l-160 -308h-288z" />
    <glyph glyph-name="uni0312" unicode="&#x312;" 
d="M-242 1710h37v-119h-41q-94 0 -94 -90v-69h88v-224h-219v287q0 109 55 162t174 53z" />
    <glyph glyph-name="uni0326" unicode="&#x326;" 
d="M-432 -633h-39v121h41q49 0 71.5 22t22.5 68v70h-86v223h217v-289q0 -108 -54.5 -161.5t-172.5 -53.5z" />
    <glyph glyph-name="uni0327" unicode="&#x327;" 
d="M-453 -467q-91 0 -143 25v110q45 -20 104 -20q105 0 105 71q0 70 -88 70q-46 0 -82 -8v84l68 135h133l-56 -115h11q85 0 140.5 -38.5t55.5 -127.5q0 -93 -69 -139.5t-179 -46.5z" />
    <glyph glyph-name="uni0328" unicode="&#x328;" 
d="M-387 -416q-112 0 -179 51t-67 144q0 172 289 278l139 -57q-129 -37 -187.5 -87.5t-58.5 -102.5q0 -80 103 -80q51 0 86 14v-135q-50 -25 -125 -25z" />
    <glyph glyph-name="uni0394" unicode="&#x394;" horiz-adv-x="1380" 
d="M1335 0h-1290v137l514 1317h283l493 -1317v-137zM702 1247l-393 -1040h760z" />
    <glyph glyph-name="uni03A9" unicode="&#x3a9;" horiz-adv-x="1533" 
d="M637 0h-561v188h229q-110 95 -169.5 236.5t-59.5 310.5v49q0 204 84 362t241 246.5t365 88.5q209 0 366.5 -88.5t241.5 -246.5t84 -362v-49q0 -169 -59.5 -310.5t-169.5 -236.5h229v-188h-561v156q97 30 170 115t109 196.5t36 234.5v50q0 241 -118 382.5t-328 141.5
q-209 0 -326.5 -142t-117.5 -382v-50q0 -123 35.5 -234.5t108.5 -196.5t171 -115v-156z" />
    <glyph glyph-name="uni03BC" unicode="&#x3bc;" horiz-adv-x="1267" 
d="M328 -348h-215v1403h229v-582q0 -151 75 -234t216 -83q143 0 218 83t75 234v582h229v-1055h-178l-6 158q-56 -89 -142.5 -137t-195.5 -48q-191 0 -305 146v-467z" />
    <glyph glyph-name="pi" unicode="&#x3c0;" horiz-adv-x="1429" 
d="M1202 -27q-161 0 -241 79.5t-80 232.5v581h-365v-866h-225v866h-254v189h1335v-189h-266v-557q0 -79 32 -115t109 -36q60 0 115 20v-178q-79 -27 -160 -27z" />
    <glyph glyph-name="Wgrave" unicode="&#x1e80;" horiz-adv-x="1978" 
d="M1137 1618h-230l-356 295h328zM690 0h-276l-389 1454h247l287 -1157l309 1157h258l306 -1159l284 1159h238l-391 -1454h-267l-303 1135z" />
    <glyph glyph-name="wgrave" unicode="&#x1e81;" horiz-adv-x="1605" 
d="M952 1208h-204l-326 308h301zM580 0h-238l-317 1055h227l219 -803l219 803h223l224 -809l221 809h223l-319 -1055h-238l-223 784z" />
    <glyph glyph-name="Wacute" unicode="&#x1e82;" horiz-adv-x="1978" 
d="M1073 1618h-229l258 295h328zM690 0h-276l-389 1454h247l287 -1157l309 1157h258l306 -1159l284 1159h238l-391 -1454h-267l-303 1135z" />
    <glyph glyph-name="wacute" unicode="&#x1e83;" horiz-adv-x="1605" 
d="M887 1516h301l-328 -308h-203zM580 0h-238l-317 1055h227l219 -803l219 803h223l224 -809l221 809h223l-319 -1055h-238l-223 784z" />
    <glyph glyph-name="Wdieresis" unicode="&#x1e84;" horiz-adv-x="1978" 
d="M883 1626h-236v287h236v-287zM1329 1626h-235v287h235v-287zM690 0h-276l-389 1454h247l287 -1157l309 1157h258l306 -1159l284 1159h238l-391 -1454h-267l-303 1135z" />
    <glyph glyph-name="wdieresis" unicode="&#x1e85;" horiz-adv-x="1605" 
d="M711 1208h-236v308h236v-308zM1133 1208h-236v308h236v-308zM580 0h-238l-317 1055h227l219 -803l219 803h223l224 -809l221 809h223l-319 -1055h-238l-223 784z" />
    <glyph glyph-name="uni1E9E" unicode="&#x1e9e;" horiz-adv-x="1486" 
d="M838 -27q-167 0 -293 50v198q132 -47 266 -47q371 0 371 246v12q0 252 -369 252q-98 0 -190 -20v149l352 442h-205q-215 0 -315.5 -100t-100.5 -313v-842h-237v858q0 293 163.5 444.5t479.5 151.5h493v-164l-331 -416q242 -15 371.5 -131t129.5 -307v-20
q0 -208 -152.5 -325.5t-432.5 -117.5z" />
    <glyph glyph-name="Ygrave" unicode="&#x1ef2;" horiz-adv-x="1302" 
d="M797 1618h-230l-356 295h328zM770 0h-238v471l-512 983h261l374 -756l375 756h252l-512 -983v-471z" />
    <glyph glyph-name="ygrave" unicode="&#x1ef3;" horiz-adv-x="1077" 
d="M686 1208h-205l-325 308h301zM526 -348h-231l135 354l-405 1049h239l285 -801l274 801h232z" />
    <glyph glyph-name="uni2009" unicode="&#x2009;" horiz-adv-x="163" 
 />
    <glyph glyph-name="endash" unicode="&#x2013;" horiz-adv-x="1255" 
d="M1135 492h-1014v188h1014v-188z" />
    <glyph glyph-name="emdash" unicode="&#x2014;" horiz-adv-x="1626" 
d="M1606 487h-1586v197h1586v-197z" />
    <glyph glyph-name="quoteleft" unicode="&#x2018;" horiz-adv-x="630" 
d="M436 932h-243v276q0 156 79.5 235t229.5 79v-123q-90 0 -131 -42.5t-41 -135.5v-43h106v-246z" />
    <glyph glyph-name="quoteright" unicode="&#x2019;" horiz-adv-x="630" 
d="M127 926v123q91 0 131.5 42t40.5 136v43h-106v246h243v-277q0 -156 -78.5 -234.5t-230.5 -78.5z" />
    <glyph glyph-name="quotesinglbase" unicode="&#x201a;" horiz-adv-x="630" 
d="M127 -344v125q91 0 131.5 41t40.5 135v43h-106v246h243v-275q0 -157 -78.5 -236t-230.5 -79z" />
    <glyph glyph-name="quotedblleft" unicode="&#x201c;" horiz-adv-x="1042" 
d="M436 932h-243v276q0 156 79.5 235t229.5 79v-123q-90 0 -131 -42.5t-41 -135.5v-43h106v-246zM848 932h-244v276q0 156 79 235t230 79v-123q-90 0 -131 -42.5t-41 -135.5v-43h107v-246z" />
    <glyph glyph-name="quotedblright" unicode="&#x201d;" horiz-adv-x="1042" 
d="M127 926v123q91 0 131.5 42t40.5 136v43h-106v246h243v-277q0 -156 -78.5 -234.5t-230.5 -78.5zM539 926v123q91 0 131.5 42t40.5 136v43h-107v246h244v-277q0 -156 -78.5 -234.5t-230.5 -78.5z" />
    <glyph glyph-name="quotedblbase" unicode="&#x201e;" horiz-adv-x="1042" 
d="M127 -344v125q91 0 131.5 41t40.5 135v43h-106v246h243v-275q0 -157 -78.5 -236t-230.5 -79zM539 -344v125q91 0 131.5 41t40.5 135v43h-107v246h244v-275q0 -157 -78.5 -236t-230.5 -79z" />
    <glyph glyph-name="dagger" unicode="&#x2020;" horiz-adv-x="1140" 
d="M680 1047h397v-191h-397v-1143h-221v1143h-396v191h396v469h221v-469z" />
    <glyph glyph-name="daggerdbl" unicode="&#x2021;" horiz-adv-x="1140" 
d="M1077 1047v-191h-397v-463h397v-188h-397v-492h-221v492h-396v188h396v463h-396v191h396v469h221v-469h397z" />
    <glyph glyph-name="bullet" unicode="&#x2022;" horiz-adv-x="872" 
d="M434 375q-89 0 -151 55t-62 154q0 102 61.5 156.5t151.5 54.5q91 0 153 -54.5t62 -156.5q0 -99 -62.5 -154t-152.5 -55z" />
    <glyph glyph-name="ellipsis" unicode="&#x2026;" horiz-adv-x="1443" 
d="M436 0h-243v246h243v-246zM844 0h-244v246h244v-246zM1249 0h-243v246h243v-246z" />
    <glyph glyph-name="perthousand" unicode="&#x2030;" horiz-adv-x="2484" 
d="M387 799q-61 0 -121 21t-111.5 61t-83.5 107t-32 151q0 86 31.5 154t83.5 107.5t111.5 60t121.5 20.5q61 0 120.5 -20.5t111.5 -60t84 -107.5t32 -154q0 -83 -32 -150.5t-84 -107.5t-111.5 -61t-120.5 -21zM416 0h-228l1072 1454h225zM387 971q70 0 117 46t47 122
q0 80 -46.5 125t-117.5 45q-72 0 -119 -45t-47 -125q0 -76 47.5 -122t118.5 -46zM1294 -27q-61 0 -120.5 21t-110.5 61t-83 107t-32 151q0 69 21 127t55.5 97t80 66.5t93.5 39.5t96 12q62 0 122 -20.5t112.5 -60t84.5 -107.5t32 -154q0 -84 -32.5 -151t-84.5 -107
t-112.5 -61t-121.5 -21zM2097 -27q-61 0 -120.5 21t-111.5 61t-84 107.5t-32 150.5q0 86 32 154t84 107.5t111.5 60t120.5 20.5t120.5 -20.5t111.5 -60t84 -107.5t32 -154q0 -83 -32 -150.5t-84 -107.5t-111.5 -61t-120.5 -21zM1294 145q71 0 118.5 46t47.5 122
q0 82 -47 126t-119 44q-71 0 -117.5 -44.5t-46.5 -125.5q0 -76 47 -122t117 -46zM2097 145q70 0 117 46t47 122q0 81 -46.5 125.5t-117.5 44.5q-72 0 -119 -44t-47 -126q0 -76 47.5 -122t118.5 -46z" />
    <glyph glyph-name="guilsinglleft" unicode="&#x2039;" horiz-adv-x="690" 
d="M621 86h-228l-338 410v14l340 410h226l-345 -416z" />
    <glyph glyph-name="guilsinglright" unicode="&#x203a;" horiz-adv-x="688" 
d="M293 86h-223l346 418l-346 416h225l338 -410v-14z" />
    <glyph glyph-name="fraction" unicode="&#x2044;" horiz-adv-x="380" 
d="M-231 0h-226l1069 1454h226z" />
    <glyph glyph-name="uni2070" unicode="&#x2070;" horiz-adv-x="655" 
d="M328 893q-142 0 -215.5 104t-73.5 275v18q0 173 73 277t216 104q142 0 215 -104.5t73 -276.5v-18q0 -172 -73 -275.5t-215 -103.5zM328 1036q60 0 84 54t24 186v12q0 134 -24 188t-84 54q-59 0 -85 -55t-26 -187v-12q0 -132 26 -186t85 -54z" />
    <glyph glyph-name="uni2074" unicode="&#x2074;" horiz-adv-x="655" 
d="M535 907h-170v160h-345v133l330 459h185v-455h96v-137h-96v-160zM365 1473l-191 -269h191v269z" />
    <glyph glyph-name="uni2075" unicode="&#x2075;" horiz-adv-x="653" 
d="M330 893q-126 0 -202 62.5t-83 172.5h170q6 -46 37 -72t78 -26q49 0 79.5 32t30.5 83v8q0 54 -29.5 85.5t-80.5 31.5q-36 0 -65 -16t-44 -40l-149 11l67 434h434v-148h-315l-25 -159q53 47 144 47q103 0 170 -66t67 -172v-10q0 -117 -78 -187.5t-206 -70.5z" />
    <glyph glyph-name="uni2076" unicode="&#x2076;" horiz-adv-x="653" 
d="M332 893q-139 0 -216 95.5t-77 264.5v41q0 184 77.5 281.5t215.5 97.5q114 0 186.5 -58t87.5 -161h-166q-8 39 -35.5 62.5t-72.5 23.5q-62 0 -96.5 -51.5t-34.5 -151.5v-28q58 88 174 88q102 0 168.5 -65.5t66.5 -170.5v-10q0 -115 -76.5 -186.5t-201.5 -71.5zM330 1028
q51 0 77.5 32.5t26.5 84.5v10q0 49 -28 81t-76 32q-49 0 -78 -33t-29 -82v-6q0 -54 28.5 -86.5t78.5 -32.5z" />
    <glyph glyph-name="uni2077" unicode="&#x2077;" horiz-adv-x="608" 
d="M307 907h-198q79 334 286 604h-366v148h561v-121q-221 -277 -283 -631z" />
    <glyph glyph-name="uni2078" unicode="&#x2078;" horiz-adv-x="653" 
d="M326 893q-131 0 -208 60t-77 161v10q0 67 37.5 112.5t101.5 63.5q-51 17 -81.5 59.5t-30.5 96.5v12q0 91 72 147t186 56q115 0 187.5 -56t72.5 -147v-12q0 -53 -29.5 -95t-81.5 -61q62 -18 99.5 -63.5t37.5 -112.5v-10q0 -101 -77 -161t-209 -60zM326 1360q46 0 74 23.5
t28 62.5v10q0 40 -27.5 63t-74.5 23q-46 0 -72.5 -23t-26.5 -63v-10q0 -39 27 -62.5t72 -23.5zM326 1024q52 0 83 27t31 73v11q0 46 -31.5 73t-82.5 27q-50 0 -82.5 -27.5t-32.5 -72.5v-11q0 -44 32 -72t83 -28z" />
    <glyph glyph-name="uni2079" unicode="&#x2079;" horiz-adv-x="653" 
d="M319 893q-114 0 -185.5 58.5t-88.5 162.5h168q17 -88 111 -88q127 0 127 193v36q-59 -86 -172 -86q-102 0 -170 65.5t-68 168.5v12q0 115 76 186.5t202 71.5q139 0 217 -95.5t78 -264.5v-41q0 -184 -77.5 -281.5t-217.5 -97.5zM322 1300q49 0 77.5 32t28.5 81v6
q0 54 -27 86.5t-77 32.5q-51 0 -79 -33t-28 -86v-8q0 -48 28.5 -79.5t76.5 -31.5z" />
    <glyph glyph-name="uni207A" unicode="&#x207a;" horiz-adv-x="702" 
d="M430 983h-156v244h-229v151h229v248h156v-248h229v-151h-229v-244z" />
    <glyph glyph-name="uni207B" unicode="&#x207b;" horiz-adv-x="702" 
d="M612 1217h-520v157h520v-157z" />
    <glyph glyph-name="uni207C" unicode="&#x207c;" horiz-adv-x="702" 
d="M649 1364h-598v145h598v-145zM649 1094h-598v143h598v-143z" />
    <glyph glyph-name="uni2080" unicode="&#x2080;" horiz-adv-x="655" 
d="M328 -219q-142 0 -215.5 104t-73.5 275v18q0 173 73 277t216 104q142 0 215 -104.5t73 -276.5v-18q0 -172 -73 -275.5t-215 -103.5zM328 -76q60 0 84 54t24 186v12q0 134 -24 188t-84 54q-59 0 -85 -55t-26 -187v-12q0 -132 26 -186t85 -54z" />
    <glyph glyph-name="uni2081" unicode="&#x2081;" horiz-adv-x="438" 
d="M365 -205h-181v539q-70 -48 -149 -66v152q124 25 203 127h127v-752z" />
    <glyph glyph-name="uni2082" unicode="&#x2082;" horiz-adv-x="608" 
d="M575 -205h-546v94q0 115 51 184.5t180 127.5q88 38 118 65.5t30 69.5v2q0 36 -26 61t-69 25q-52 0 -81 -30.5t-29 -84.5h-166q6 117 78.5 184.5t199.5 67.5q116 0 187 -61.5t71 -153.5v-8q0 -77 -38 -130.5t-150 -103.5q-60 -28 -93.5 -47.5t-50.5 -39.5t-21.5 -36
t-4.5 -44h360v-142z" />
    <glyph glyph-name="uni2083" unicode="&#x2083;" horiz-adv-x="653" 
d="M326 -219q-133 0 -212 67.5t-79 182.5h172q6 -115 115 -115q50 0 79 27.5t29 72.5v11q0 45 -29 71.5t-82 26.5h-71v123h71q46 0 72.5 22t26.5 62v6q0 40 -26 65t-70 25q-50 0 -78 -28.5t-29 -82.5h-164q4 111 81 177.5t194 66.5q114 0 187 -57.5t73 -149.5v-10
q0 -52 -31 -94t-84 -62q62 -16 102.5 -62.5t40.5 -113.5v-10q0 -100 -78 -160.5t-210 -60.5z" />
    <glyph glyph-name="uni2084" unicode="&#x2084;" horiz-adv-x="655" 
d="M535 -205h-170v160h-345v133l330 459h185v-455h96v-137h-96v-160zM365 360l-191 -268h191v268z" />
    <glyph glyph-name="uni2085" unicode="&#x2085;" horiz-adv-x="653" 
d="M330 -219q-126 0 -202 62.5t-83 172.5h170q6 -46 37 -72t78 -26q49 0 79.5 32t30.5 83v8q0 54 -29.5 85.5t-80.5 31.5q-36 0 -65 -16t-44 -40l-149 11l67 434h434v-148h-315l-25 -159q53 47 144 47q103 0 170 -66t67 -172v-10q0 -117 -78 -187.5t-206 -70.5z" />
    <glyph glyph-name="uni2086" unicode="&#x2086;" horiz-adv-x="653" 
d="M332 -219q-139 0 -216 95.5t-77 264.5v41q0 184 77.5 281.5t215.5 97.5q114 0 186.5 -58t87.5 -161h-166q-8 39 -35.5 62.5t-72.5 23.5q-62 0 -96.5 -51.5t-34.5 -151.5v-28q58 88 174 88q102 0 168.5 -65.5t66.5 -170.5v-10q0 -115 -76.5 -186.5t-201.5 -71.5zM330 -84
q51 0 77.5 32.5t26.5 84.5v10q0 49 -28 81t-76 32q-49 0 -78 -33t-29 -82v-6q0 -54 28.5 -86.5t78.5 -32.5z" />
    <glyph glyph-name="uni2087" unicode="&#x2087;" horiz-adv-x="608" 
d="M307 -205h-198q79 334 286 604h-366v148h561v-121q-221 -277 -283 -631z" />
    <glyph glyph-name="uni2088" unicode="&#x2088;" horiz-adv-x="653" 
d="M326 -219q-131 0 -208 60t-77 161v10q0 67 37.5 112.5t101.5 63.5q-51 17 -81.5 59.5t-30.5 96.5v12q0 91 72 147t186 56q115 0 187.5 -56t72.5 -147v-12q0 -53 -29.5 -95t-81.5 -61q62 -18 99.5 -63.5t37.5 -112.5v-10q0 -101 -77 -161t-209 -60zM326 248q46 0 74 23.5
t28 62.5v10q0 40 -27.5 63t-74.5 23q-46 0 -72.5 -23t-26.5 -63v-10q0 -39 27 -62.5t72 -23.5zM326 -88q52 0 83 27t31 73v11q0 46 -31.5 73t-82.5 27q-50 0 -82.5 -27.5t-32.5 -72.5v-11q0 -44 32 -72t83 -28z" />
    <glyph glyph-name="uni2089" unicode="&#x2089;" horiz-adv-x="653" 
d="M319 -219q-114 0 -185.5 58.5t-88.5 162.5h168q17 -88 111 -88q127 0 127 192v37q-59 -86 -172 -86q-102 0 -170 65.5t-68 168.5v12q0 115 76 186.5t202 71.5q139 0 217 -95.5t78 -264.5v-41q0 -184 -77.5 -281.5t-217.5 -97.5zM322 188q49 0 77.5 32t28.5 81v6
q0 54 -27 86.5t-77 32.5q-51 0 -79 -33t-28 -86v-8q0 -48 28.5 -79.5t76.5 -31.5z" />
    <glyph glyph-name="uni208A" unicode="&#x208a;" horiz-adv-x="702" 
d="M430 -129h-156v244h-229v149h229v248h156v-248h229v-149h-229v-244z" />
    <glyph glyph-name="uni208B" unicode="&#x208b;" horiz-adv-x="702" 
d="M612 104h-520v158h520v-158z" />
    <glyph glyph-name="uni208C" unicode="&#x208c;" horiz-adv-x="702" 
d="M649 252h-598v143h598v-143zM649 -20h-598v145h598v-145z" />
    <glyph glyph-name="Euro" unicode="&#x20ac;" horiz-adv-x="1189" 
d="M885 1276q-182 0 -300.5 -75.5t-168.5 -217.5h434v-168h-469q-2 -20 -2 -63v-50v-40h471v-168h-442q47 -152 167.5 -234t309.5 -82q116 0 219 29v-193q-109 -41 -248 -41q-270 0 -454.5 140.5t-243.5 380.5h-158v168h133v40v50q0 43 2 63h-135v168h164q64 230 246 364
t446 134q136 0 248 -39v-195q-103 29 -219 29z" />
    <glyph glyph-name="uni20B9" unicode="&#x20b9;" horiz-adv-x="1392" 
d="M184 1454h1133v-172h-299q91 -76 112 -197h187v-172h-187q-21 -145 -118 -234t-252 -114l448 -565h-272l-438 553h-314v201h432q104 0 173 39.5t92 119.5h-697v172h699q-20 84 -90 126t-177 42h-432v201z" />
    <glyph glyph-name="uni20BA" unicode="&#x20ba;" horiz-adv-x="1050" 
d="M762 625h244q0 -184 -78 -324.5t-228.5 -220.5t-353.5 -80h-223v514l-180 -92v172l180 92v148l-180 -93v172l180 93v448h239v-328l357 183v-172l-357 -183v-147l357 180v-170l-357 -182v-430q193 4 296.5 117t103.5 303z" />
    <glyph glyph-name="uni20BF" unicode="&#x20bf;" horiz-adv-x="1390" 
d="M1004 768q118 -36 184.5 -127t66.5 -211v-24q0 -153 -90.5 -254t-246.5 -136v-180h-173v164h-153v-164h-172v164h-297v1454h297v164h172v-164h125h28v164h173v-188q131 -35 201.5 -122.5t70.5 -226.5v-22q0 -95 -48.5 -172.5t-137.5 -118.5zM698 1257h-342v-417h349
q245 0 245 200v23q0 103 -62.5 148.5t-189.5 45.5zM1014 410v26q0 101 -66.5 154t-193.5 53h-398v-446h387q126 0 198.5 54.5t72.5 158.5z" />
    <glyph glyph-name="uni2113" unicode="&#x2113;" horiz-adv-x="843" 
d="M358 438v-129q0 -79 33.5 -115t110.5 -36q59 0 114 20v-178q-79 -27 -159 -27q-161 0 -242.5 80t-81.5 232v82l-78 -13v191l78 18v527q0 198 87.5 293.5t240.5 95.5q79 0 141 -25.5t100 -65.5t63 -94t34.5 -106t9.5 -107q0 -218 -121 -384.5t-330 -258.5zM358 1143v-492
q238 136 238 428q0 98 -31 153.5t-94 55.5q-113 0 -113 -145z" />
    <glyph glyph-name="uni2116" unicode="&#x2116;" horiz-adv-x="2295" 
d="M1827 778q-156 0 -252 95t-96 245v12q0 150 96 245t252 95t251 -95t95 -245v-12q0 -150 -95 -245t-251 -95zM354 0h-231v1454h285l682 -1116v1116h229v-1454h-268l-697 1145v-1145zM1827 936q135 0 135 182v12q0 183 -135 183q-137 0 -137 -183v-12q0 -182 137 -182z
M2134 504h-618v137h618v-137z" />
    <glyph glyph-name="uni2117" unicode="&#x2117;" horiz-adv-x="1658" 
d="M829 -27q-217 0 -390 97t-270 269.5t-97 387.5t97 387.5t270 269.5t390 97q163 0 304 -57t240.5 -156.5t156.5 -239.5t57 -301t-57 -301t-156.5 -239.5t-240.5 -156.5t-304 -57zM829 119q259 0 426.5 172t167.5 436t-167.5 436t-426.5 172t-426 -172t-167 -436t167 -436
t426 -172zM733 324h-174v784h363q131 0 207.5 -63.5t76.5 -184.5v-16q0 -121 -77 -186.5t-207 -65.5h-189v-268zM733 952v-200h199q49 0 75.5 24.5t26.5 69.5v12q0 45 -26.5 69.5t-75.5 24.5h-199z" />
    <glyph glyph-name="uni2120" unicode="&#x2120;" horiz-adv-x="1476" 
d="M324 780q-133 0 -209.5 60t-83.5 172h170q12 -111 125 -111q49 0 75.5 21.5t26.5 58.5q0 35 -29.5 52.5t-122.5 35.5q-122 24 -174.5 66.5t-52.5 126.5q0 92 74 149t194 57q123 0 196 -58t81 -161h-166q-9 99 -113 99q-44 0 -69 -20t-25 -54q0 -31 26.5 -48.5
t110.5 -33.5q132 -25 189 -69t57 -126q0 -97 -75.5 -157t-204.5 -60zM844 795h-150v659h193l172 -471l176 471h184v-659h-145v409l-158 -409h-117l-155 409v-409z" />
    <glyph glyph-name="trademark" unicode="&#x2122;" horiz-adv-x="1406" 
d="M354 795h-151v524h-195v135h541v-135h-195v-524zM772 795h-147v659h190l174 -471l174 471h185v-659h-146v409l-155 -409h-119l-156 409v-409z" />
    <glyph glyph-name="estimated" unicode="&#x212e;" horiz-adv-x="1564" 
d="M782 -29q-142 0 -271.5 57t-223.5 153.5t-149.5 229t-55.5 277.5t55.5 277.5t150 227.5t224 151.5t272.5 56.5q142 0 271.5 -56.5t223 -151.5t149 -227.5t55.5 -277.5v-16h-1145v-484q61 -69 183.5 -123.5t260.5 -54.5q155 0 293 63.5t217 172.5h49q-92 -129 -240.5 -202
t-318.5 -73zM338 1186v-475h889v475q-59 63 -184.5 119.5t-258.5 56.5q-257 0 -446 -176z" />
    <glyph glyph-name="uni2150" unicode="&#x2150;" horiz-adv-x="1517" 
d="M258 0h-227l1069 1454h225zM365 702h-181v539q-68 -47 -149 -65v151q124 25 203 127h127v-752zM1217 0h-199q79 332 287 604h-367v148h561v-121q-219 -275 -282 -631z" />
    <glyph glyph-name="uni2151" unicode="&#x2151;" horiz-adv-x="1521" 
d="M258 0h-227l1069 1454h225zM365 702h-181v539q-68 -47 -149 -65v151q124 25 203 127h127v-752zM1188 -14q-114 0 -186 58.5t-89 162.5h168q17 -88 111 -88q127 0 127 192v37q-59 -86 -172 -86q-102 0 -170 65.5t-68 168.5v12q0 115 76 186.5t203 71.5q139 0 217 -95.5
t78 -264.5v-41q0 -184 -77.5 -281.5t-217.5 -97.5zM1190 393q49 0 77.5 32t28.5 81v6q0 54 -27 86.5t-77 32.5q-51 0 -79 -33t-28 -86v-8q0 -48 28.5 -79.5t76.5 -31.5z" />
    <glyph glyph-name="uni2153" unicode="&#x2153;" horiz-adv-x="1521" 
d="M258 0h-227l1069 1454h225zM365 702h-181v539q-68 -47 -149 -65v151q124 25 203 127h127v-752zM1194 -14q-133 0 -212 67.5t-79 182.5h172q6 -115 115 -115q50 0 79 27.5t29 72.5v10q0 45 -28.5 72t-81.5 27h-72v123h72q46 0 72 22t26 62v6q0 40 -26 65t-70 25
q-50 0 -78 -28.5t-29 -82.5h-163q4 111 80.5 177.5t193.5 66.5q114 0 187 -57.5t73 -149.5v-10q0 -52 -31 -94t-84 -62q62 -16 103 -62.5t41 -113.5v-10q0 -100 -78.5 -160.5t-210.5 -60.5z" />
    <glyph glyph-name="uni2154" unicode="&#x2154;" horiz-adv-x="1673" 
d="M575 702h-546v95q0 115 50.5 184t180.5 127q88 38 118 65.5t30 69.5v2q0 36 -26 61t-69 25q-52 0 -81 -30t-29 -84h-166q6 117 78.5 184t199.5 67q116 0 187 -61.5t71 -153.5v-8q0 -76 -38 -129.5t-150 -103.5q-59 -28 -93 -48t-51 -39.5t-21.5 -35.5t-4.5 -43h360v-144z
M410 0h-228l1069 1454h226zM1346 -14q-133 0 -212 67.5t-79 182.5h172q6 -115 114 -115q50 0 79.5 27.5t29.5 72.5v10q0 45 -29 72t-82 27h-71v123h71q46 0 72.5 22t26.5 62v6q0 40 -26.5 65t-70.5 25q-50 0 -77.5 -28.5t-28.5 -82.5h-164q4 111 81 177.5t194 66.5
q114 0 187 -57.5t73 -149.5v-10q0 -52 -31 -94t-84 -62q62 -16 102.5 -62.5t40.5 -113.5v-10q0 -100 -78 -160.5t-210 -60.5z" />
    <glyph glyph-name="uni2155" unicode="&#x2155;" horiz-adv-x="1513" 
d="M258 0h-227l1069 1454h225zM365 702h-181v539q-68 -47 -149 -65v151q124 25 203 127h127v-752zM1190 -14q-126 0 -202 62.5t-83 172.5h170q6 -46 37 -72t78 -26q49 0 79.5 32t30.5 83v8q0 54 -29.5 85t-80.5 31q-36 0 -65.5 -16t-43.5 -39l-149 10l67 435h435v-148h-316
l-24 -160q54 48 143 48q103 0 170.5 -66t67.5 -172v-10q0 -117 -78.5 -187.5t-206.5 -70.5z" />
    <glyph glyph-name="uni2156" unicode="&#x2156;" horiz-adv-x="1665" 
d="M575 702h-546v95q0 115 50.5 184t180.5 127q88 38 118 65.5t30 69.5v2q0 36 -26 61t-69 25q-52 0 -81 -30t-29 -84h-166q6 117 78.5 184t199.5 67q116 0 187 -61.5t71 -153.5v-8q0 -76 -38 -129.5t-150 -103.5q-59 -28 -93 -48t-51 -39.5t-21.5 -35.5t-4.5 -43h360v-144z
M410 0h-228l1069 1454h226zM1341 -14q-126 0 -201 62.5t-83 172.5h170q6 -47 36.5 -72.5t77.5 -25.5q49 0 80 32t31 83v8q0 54 -30 85t-81 31q-36 0 -64.5 -16t-43.5 -39l-150 10l68 435h434v-148h-315l-25 -160q54 48 144 48q103 0 170 -66t67 -172v-10
q0 -117 -78.5 -187.5t-206.5 -70.5z" />
    <glyph glyph-name="uni2157" unicode="&#x2157;" horiz-adv-x="1658" 
d="M326 688q-133 0 -212 67.5t-79 182.5h172q6 -115 115 -115q50 0 79 28t29 73v10q0 45 -29 71.5t-82 26.5h-71v123h71q46 0 72.5 22t26.5 62v6q0 40 -26 65t-70 25q-50 0 -78 -28t-29 -82h-164q4 111 81 177t194 66q115 0 187.5 -57t72.5 -149v-11q0 -52 -31 -93.5
t-84 -61.5q62 -16 102.5 -62.5t40.5 -113.5v-11q0 -100 -78 -160.5t-210 -60.5zM403 0h-227l1069 1454h225zM1335 -14q-126 0 -201 62.5t-83 172.5h170q6 -47 36.5 -72.5t77.5 -25.5q49 0 80 32t31 83v8q0 54 -30 85t-81 31q-36 0 -64.5 -16t-43.5 -39l-150 10l68 435h434
v-148h-315l-25 -160q54 48 143 48q103 0 170.5 -66t67.5 -172v-10q0 -117 -78.5 -187.5t-206.5 -70.5z" />
    <glyph glyph-name="uni2158" unicode="&#x2158;" horiz-adv-x="1681" 
d="M535 702h-170v160h-345v133l330 459h185v-455h96v-137h-96v-160zM426 0h-227l1069 1454h225zM365 1268l-191 -269h191v269zM1358 -14q-126 0 -202 62.5t-83 172.5h170q6 -46 37 -72t78 -26q49 0 79.5 32t30.5 83v8q0 54 -29.5 85t-80.5 31q-36 0 -65.5 -16t-43.5 -39
l-149 10l67 435h435v-148h-316l-24 -160q54 48 143 48q103 0 170 -66t67 -172v-10q0 -117 -78 -187.5t-206 -70.5z" />
    <glyph glyph-name="uni2159" unicode="&#x2159;" horiz-adv-x="1521" 
d="M258 0h-227l1069 1454h225zM365 702h-181v539q-68 -47 -149 -65v151q124 25 203 127h127v-752zM1200 -14q-139 0 -216 95.5t-77 264.5v41q0 184 77.5 281.5t215.5 97.5q114 0 187 -58t88 -161h-166q-8 39 -36 62.5t-73 23.5q-62 0 -96.5 -51.5t-34.5 -151.5v-29
q58 88 174 88q102 0 169 -65t67 -170v-10q0 -115 -77 -186.5t-202 -71.5zM1198 121q51 0 78 32.5t27 84.5v10q0 49 -28.5 80.5t-76.5 31.5q-49 0 -77.5 -32.5t-28.5 -81.5v-6q0 -54 28 -86.5t78 -32.5z" />
    <glyph glyph-name="oneeighth" unicode="&#x215b;" horiz-adv-x="1521" 
d="M258 0h-227l1069 1454h225zM365 702h-181v539q-68 -47 -149 -65v151q124 25 203 127h127v-752zM1194 -14q-131 0 -208 60t-77 161v10q0 67 38 112.5t102 63.5q-51 17 -82 59.5t-31 96.5v12q0 91 72 147t186 56q115 0 187.5 -56t72.5 -147v-12q0 -53 -29.5 -95t-81.5 -61
q62 -18 100 -63.5t38 -112.5v-10q0 -101 -77.5 -161t-209.5 -60zM1194 453q46 0 74 23.5t28 62.5v10q0 40 -27.5 63t-74.5 23q-46 0 -72 -23t-26 -63v-10q0 -40 26.5 -63t71.5 -23zM1194 117q53 0 84 27t31 73v10q0 46 -32 73.5t-83 27.5q-50 0 -82.5 -28t-32.5 -73v-10
q0 -44 32 -72t83 -28z" />
    <glyph glyph-name="threeeighths" unicode="&#x215c;" horiz-adv-x="1667" 
d="M326 688q-133 0 -212 67.5t-79 182.5h172q6 -115 115 -115q50 0 79 28t29 73v10q0 45 -29 71.5t-82 26.5h-71v123h71q46 0 72.5 22t26.5 62v6q0 40 -26 65t-70 25q-50 0 -78 -28t-29 -82h-164q4 111 81 177t194 66q115 0 187.5 -57t72.5 -149v-11q0 -52 -31 -93.5
t-84 -61.5q62 -16 102.5 -62.5t40.5 -113.5v-11q0 -100 -78 -160.5t-210 -60.5zM403 0h-227l1069 1454h225zM1339 -14q-130 0 -207 60t-77 161v10q0 67 37.5 112.5t101.5 63.5q-51 17 -82 59.5t-31 96.5v12q0 91 72 147t186 56q115 0 187.5 -56t72.5 -147v-12
q0 -53 -29 -95.5t-81 -60.5q62 -18 99.5 -63.5t37.5 -112.5v-10q0 -101 -77.5 -161t-209.5 -60zM1339 453q46 0 74.5 23.5t28.5 62.5v10q0 40 -28 63t-75 23q-46 0 -72 -23t-26 -63v-10q0 -40 26.5 -63t71.5 -23zM1339 117q53 0 84 27t31 73v10q0 46 -32 73.5t-83 27.5
q-50 0 -82 -28t-32 -73v-10q0 -44 31.5 -72t82.5 -28z" />
    <glyph glyph-name="fiveeighths" unicode="&#x215d;" horiz-adv-x="1687" 
d="M330 688q-126 0 -201.5 63t-83.5 173h170q6 -47 37 -73t78 -26q49 0 79.5 32t30.5 83v8q0 54 -29.5 85.5t-80.5 31.5q-36 0 -65.5 -16t-43.5 -39l-149 10l67 434h434v-147h-315l-25 -160q53 47 144 47q103 0 170 -66t67 -172v-10q0 -117 -78 -187.5t-206 -70.5zM424 0
h-227l1069 1454h225zM1360 -14q-131 0 -208 60t-77 161v10q0 67 37.5 112.5t101.5 63.5q-51 17 -81.5 59.5t-30.5 96.5v12q0 91 72 147t186 56q115 0 187.5 -56t72.5 -147v-12q0 -53 -29.5 -95t-81.5 -61q62 -18 100 -63.5t38 -112.5v-10q0 -101 -77.5 -161t-209.5 -60z
M1360 453q46 0 74 23.5t28 62.5v10q0 40 -27.5 63t-74.5 23q-46 0 -72 -23t-26 -63v-10q0 -40 26.5 -63t71.5 -23zM1360 117q53 0 84 27t31 73v10q0 46 -32 73.5t-83 27.5q-50 0 -82.5 -28t-32.5 -73v-10q0 -44 32 -72t83 -28z" />
    <glyph glyph-name="seveneighths" unicode="&#x215e;" horiz-adv-x="1581" 
d="M307 702h-198q80 336 286 605h-366v147h561v-121q-221 -277 -283 -631zM317 0h-227l1069 1454h225zM1253 -14q-130 0 -207 60t-77 161v10q0 67 37.5 112.5t101.5 63.5q-51 17 -82 59.5t-31 96.5v12q0 91 72 147t186 56q115 0 187.5 -56t72.5 -147v-12q0 -53 -29 -95.5
t-81 -60.5q62 -18 99.5 -63.5t37.5 -112.5v-10q0 -101 -77.5 -161t-209.5 -60zM1253 453q46 0 74.5 23.5t28.5 62.5v10q0 40 -28 63t-75 23q-46 0 -72 -23t-26 -63v-10q0 -40 26.5 -63t71.5 -23zM1253 117q53 0 84 27t31 73v10q0 46 -32 73.5t-83 27.5q-50 0 -82 -28
t-32 -73v-10q0 -44 31.5 -72t82.5 -28z" />
    <glyph glyph-name="arrowleft" unicode="&#x2190;" horiz-adv-x="1411" 
d="M641 143h-252l-313 375v19l313 374h252l-242 -284h936v-199h-936z" />
    <glyph glyph-name="arrowup" unicode="&#x2191;" horiz-adv-x="919" 
d="M559 0h-199v766l-284 -242v242l375 313h18l375 -313v-242l-285 240v-764z" />
    <glyph glyph-name="arrowright" unicode="&#x2192;" horiz-adv-x="1411" 
d="M1022 143h-252l244 285h-938v199h936l-240 284h250l313 -374v-19z" />
    <glyph glyph-name="arrowdown" unicode="&#x2193;" horiz-adv-x="919" 
d="M469 -27h-18l-375 314v243l284 -241v766h199v-766l285 241v-241z" />
    <glyph glyph-name="arrowboth" unicode="&#x2194;" horiz-adv-x="1691" 
d="M639 143h-250l-313 375v19l313 374h250l-242 -284h893l-239 284h252l313 -374v-19l-313 -375h-252l241 285h-895z" />
    <glyph glyph-name="arrowupdn" unicode="&#x2195;" horiz-adv-x="919" 
d="M469 -27h-18l-375 226v211l284 -172v579l-284 -174v213l375 223h18l375 -223v-211l-285 170v-575l285 170v-211z" />
    <glyph glyph-name="uni2196" unicode="&#x2196;" horiz-adv-x="1198" 
d="M1122 147l-139 -139l-721 725v-368h-186v675l12 15h676v-189h-363z" />
    <glyph glyph-name="uni2197" unicode="&#x2197;" horiz-adv-x="1198" 
d="M936 733l-721 -725l-139 139l719 719h-361v189h676l12 -15v-675h-186v368z" />
    <glyph glyph-name="uni2198" unicode="&#x2198;" horiz-adv-x="1198" 
d="M1110 0h-676v188h361l-719 719l139 140l721 -725v368h186v-676z" />
    <glyph glyph-name="uni2199" unicode="&#x2199;" horiz-adv-x="1198" 
d="M764 0h-676l-12 14v676h186v-368l721 725l139 -140l-721 -719h363v-188z" />
    <glyph glyph-name="partialdiff" unicode="&#x2202;" horiz-adv-x="1185" 
d="M592 -27q-234 0 -377 143t-143 369v13q0 148 54 265t158.5 185t241.5 68q115 0 200 -45.5t136 -120.5q-21 116 -60 198t-109.5 146t-176.5 103.5t-258 60.5l72 180q179 -25 317 -89t225 -150.5t142.5 -201t77.5 -231t22 -250.5v-10q0 -302 -140.5 -467.5t-381.5 -165.5z
M592 156q143 0 218 86.5t75 242.5v11q0 160 -78.5 250t-222.5 90q-134 0 -208.5 -90.5t-74.5 -247.5v-13q0 -156 75 -242.5t216 -86.5z" />
    <glyph glyph-name="product" unicode="&#x220f;" horiz-adv-x="1265" 
d="M348 -348h-225v1802h1020v-1802h-225v1614h-570v-1614z" />
    <glyph glyph-name="summation" unicode="&#x2211;" horiz-adv-x="1255" 
d="M1180 -348h-1104v178l514 739v13l-514 694v178h1077v-201h-784l491 -667v-17l-498 -716h818v-201z" />
    <glyph glyph-name="minus" unicode="&#x2212;" horiz-adv-x="1126" 
d="M975 631h-823v200h823v-200z" />
    <glyph glyph-name="radical" unicode="&#x221a;" horiz-adv-x="1398" 
d="M844 0h-248l-317 848h-242v207h405l283 -826l420 1225h229z" />
    <glyph glyph-name="infinity" unicode="&#x221e;" horiz-adv-x="1708" 
d="M1223 911q154 0 257 -89.5t103 -237.5t-103 -238t-257 -90q-181 0 -318 141l-51 54l-51 -54q-137 -141 -318 -141q-155 0 -258.5 90.5t-103.5 237.5t103.5 237t258.5 90q177 0 318 -141l51 -53l51 53q141 141 318 141zM674 524l57 60l-57 59q-71 84 -176 84
q-73 0 -117.5 -41.5t-44.5 -101.5q0 -62 44.5 -103t117.5 -41q101 0 176 84zM1210 440q72 0 117 41.5t45 102.5q0 60 -45 101.5t-117 41.5q-103 0 -178 -84l-55 -59l55 -60q79 -84 178 -84z" />
    <glyph glyph-name="integral" unicode="&#x222b;" horiz-adv-x="802" 
d="M190 -375q-80 0 -159 27v176q58 -21 114 -21q78 0 111 37t33 117v1270q0 311 323 311q84 0 160 -26v-177q-58 21 -115 21q-78 0 -111.5 -37t-33.5 -117v-1269q0 -152 -80.5 -232t-241.5 -80z" />
    <glyph glyph-name="approxequal" unicode="&#x2248;" horiz-adv-x="1126" 
d="M766 852q-64 0 -141.5 23t-147 46t-112.5 23q-51 0 -77.5 -20t-35.5 -66h-160q36 250 266 250q81 0 219.5 -46t182.5 -46q53 0 78 20t36 66h160q-17 -127 -87 -188.5t-181 -61.5zM766 406q-64 0 -141.5 23t-147 46t-112.5 23q-51 0 -77.5 -20.5t-35.5 -65.5h-160
q36 250 266 250q81 0 219.5 -46.5t182.5 -46.5q53 0 78 20t36 66h160q-17 -128 -87 -188.5t-181 -60.5z" />
    <glyph glyph-name="notequal" unicode="&#x2260;" horiz-adv-x="1126" 
d="M539 121h-191l70 328h-326v192h365l49 242h-414v192h457l61 309h189l-64 -309h299v-192h-340l-49 -242h389v-192h-430z" />
    <glyph glyph-name="lessequal" unicode="&#x2264;" horiz-adv-x="1126" 
d="M1004 614v-178l-891 346v166l891 344v-174l-668 -252zM1004 279v-179l-891 346v175z" />
    <glyph glyph-name="greaterequal" unicode="&#x2265;" horiz-adv-x="1126" 
d="M1014 782l-891 -346v178l668 252l-668 252v174l891 -344v-166zM1014 446l-891 -346v179l891 342v-175z" />
    <glyph glyph-name="uni22A0" unicode="&#x22a0;" horiz-adv-x="1767" 
d="M1642 0h-1519v1454h1519v-1454zM287 1311v-1168h1192v1168h-1192zM883 600l-320 -321l-129 129l322 319l-320 322l127 129l320 -322l319 322l131 -127l-323 -324l321 -321l-129 -127z" />
    <glyph glyph-name="house" unicode="&#x2302;" horiz-adv-x="1445" 
d="M1333 0h-1220v645l610 434l610 -434v-645z" />
    <glyph glyph-name="uni2460" unicode="&#x2460;" horiz-adv-x="1665" 
d="M834 -27q-163 0 -304 57t-240.5 156.5t-156.5 239.5t-57 301t57 301t156.5 239.5t240.5 156.5t304 57q217 0 390 -97t270 -269.5t97 -387.5t-97 -387.5t-270 -269.5t-390 -97zM834 135q250 0 411.5 167.5t161.5 424.5t-161.5 424.5t-411.5 167.5t-413 -167.5t-163 -424.5
t163 -424.5t413 -167.5zM938 352h-180v537q-72 -46 -150 -64v152q124 25 203 127h127v-752z" />
    <glyph glyph-name="uni2461" unicode="&#x2461;" horiz-adv-x="1665" 
d="M831 -27q-217 0 -390 97t-270 269.5t-97 387.5t97 387.5t270 269.5t390 97q163 0 304 -57t240.5 -156.5t156.5 -239.5t57 -301t-57 -301t-156.5 -239.5t-240.5 -156.5t-304 -57zM831 135q250 0 413 167.5t163 424.5t-163 424.5t-413 167.5t-411.5 -167.5t-161.5 -424.5
t161.5 -424.5t411.5 -167.5zM1102 354h-547v97q0 114 50 183.5t179 125.5q89 39 118.5 67t29.5 70v2q0 36 -25 61t-67 25q-52 0 -81.5 -31t-31.5 -84h-164q6 116 79 183t200 67q116 0 187 -61.5t71 -153.5v-6q0 -76 -39 -129.5t-152 -105.5q-59 -27 -92.5 -46.5t-50 -39.5
t-21 -36t-4.5 -44h361v-144z" />
    <glyph glyph-name="uni2462" unicode="&#x2462;" horiz-adv-x="1665" 
d="M834 -27q-163 0 -304 57t-240.5 156.5t-156.5 239.5t-57 301t57 301t156.5 239.5t240.5 156.5t304 57q217 0 390 -97t270 -269.5t97 -387.5t-97 -387.5t-270 -269.5t-390 -97zM834 135q250 0 411.5 167.5t161.5 424.5t-161.5 424.5t-411.5 167.5t-413 -167.5t-163 -424.5
t163 -424.5t413 -167.5zM834 338q-132 0 -212 67.5t-81 182.5h174q3 -115 112 -115q52 0 81.5 27.5t29.5 72.5v9q0 46 -29 72t-82 26h-71v123h71q46 0 71.5 22.5t25.5 63.5v6q0 40 -25.5 64t-69.5 24q-50 0 -77.5 -28.5t-30.5 -82.5h-162q3 112 80 178t195 66q114 0 187 -57
t73 -148v-10q0 -53 -31 -95.5t-84 -62.5q62 -16 101.5 -62t39.5 -112v-10q0 -101 -77 -161t-209 -60z" />
    <glyph glyph-name="uni2463" unicode="&#x2463;" horiz-adv-x="1662" 
d="M831 -27q-217 0 -390 97t-270 269.5t-97 387.5t97 387.5t270 269.5t390 97q163 0 304 -57t240.5 -156.5t156.5 -239.5t57 -301t-57 -301t-156.5 -239.5t-240.5 -156.5t-304 -57zM831 135q250 0 412 167.5t162 424.5t-162 424.5t-412 167.5t-412.5 -167.5t-162.5 -424.5
t162.5 -424.5t412.5 -167.5zM1010 352h-170v160h-342v131l327 461h185v-455h96v-137h-96v-160zM840 918l-189 -269h189v269z" />
    <glyph glyph-name="uni2464" unicode="&#x2464;" horiz-adv-x="1665" 
d="M834 -27q-163 0 -304 57t-240.5 156.5t-156.5 239.5t-57 301t57 301t156.5 239.5t240.5 156.5t304 57q217 0 390 -97t270 -269.5t97 -387.5t-97 -387.5t-270 -269.5t-390 -97zM834 135q250 0 411.5 167.5t161.5 424.5t-161.5 424.5t-411.5 167.5t-413 -167.5t-163 -424.5
t163 -424.5t413 -167.5zM831 352q-126 0 -201.5 62t-82.5 172h170q6 -46 37 -72.5t77 -26.5q50 0 80.5 32.5t30.5 84.5v8q0 53 -30 84t-81 31q-36 0 -64.5 -16t-43.5 -39l-150 10l68 434h434v-147h-315l-25 -158q54 45 144 45q103 0 170 -65.5t67 -172.5v-10
q0 -115 -78.5 -185.5t-206.5 -70.5z" />
    <glyph glyph-name="uni2465" unicode="&#x2465;" horiz-adv-x="1665" 
d="M834 -27q-163 0 -304 57t-240.5 156.5t-156.5 239.5t-57 301t57 301t156.5 239.5t240.5 156.5t304 57q217 0 390 -97t270 -269.5t97 -387.5t-97 -387.5t-270 -269.5t-390 -97zM834 135q250 0 411.5 167.5t161.5 424.5t-161.5 424.5t-411.5 167.5t-413 -167.5t-163 -424.5
t163 -424.5t413 -167.5zM836 338q-139 0 -217 95t-78 263v43q0 183 77.5 280t217.5 97q114 0 185.5 -58t86.5 -161h-166q-18 86 -106 86q-131 0 -131 -203v-26q24 37 68 61.5t104 24.5q103 0 170 -65t67 -169v-12q0 -114 -76.5 -185t-201.5 -71zM831 471q51 0 79 33t28 86v8
q0 49 -28 81t-76 32q-49 0 -78 -32.5t-29 -80.5v-8q0 -53 27.5 -86t76.5 -33z" />
    <glyph glyph-name="uni2466" unicode="&#x2466;" horiz-adv-x="1662" 
d="M831 -27q-217 0 -390 97t-270 269.5t-97 387.5t97 387.5t270 269.5t390 97q163 0 304 -57t240.5 -156.5t156.5 -239.5t57 -301t-57 -301t-156.5 -239.5t-240.5 -156.5t-304 -57zM831 135q250 0 412 167.5t162 424.5t-162 424.5t-412 167.5t-412.5 -167.5t-162.5 -424.5
t162.5 -424.5t412.5 -167.5zM838 348h-199q80 337 287 604h-367v148h561v-121q-219 -275 -282 -631z" />
    <glyph glyph-name="uni2467" unicode="&#x2467;" horiz-adv-x="1665" 
d="M831 -27q-217 0 -390 97t-270 269.5t-97 387.5t97 387.5t270 269.5t390 97q163 0 304 -57t240.5 -156.5t156.5 -239.5t57 -301t-57 -301t-156.5 -239.5t-240.5 -156.5t-304 -57zM831 135q250 0 413 167.5t163 424.5t-163 424.5t-413 167.5t-411.5 -167.5t-161.5 -424.5
t161.5 -424.5t411.5 -167.5zM831 336q-131 0 -208.5 60.5t-77.5 160.5v12q0 66 38 112.5t101 61.5q-51 19 -81 61t-30 97v10q0 92 71 148.5t187 56.5q115 0 187 -56.5t72 -148.5v-10q0 -54 -29.5 -96t-81.5 -62q62 -16 100.5 -61.5t38.5 -112.5v-12q0 -100 -78 -160.5
t-209 -60.5zM831 803q45 0 73 24.5t28 63.5v8q0 41 -27.5 64.5t-73.5 23.5t-73 -24t-27 -64v-8q0 -40 27 -64t73 -24zM831 469q51 0 83 27.5t32 72.5v9q0 45 -32.5 72.5t-82.5 27.5q-51 0 -82.5 -27t-31.5 -73v-9q0 -46 31 -73t83 -27z" />
    <glyph glyph-name="uni2468" unicode="&#x2468;" horiz-adv-x="1665" 
d="M831 -27q-217 0 -390 97t-270 269.5t-97 387.5t97 387.5t270 269.5t390 97q163 0 304 -57t240.5 -156.5t156.5 -239.5t57 -301t-57 -301t-156.5 -239.5t-240.5 -156.5t-304 -57zM831 135q250 0 413 167.5t163 424.5t-163 424.5t-413 167.5t-411.5 -167.5t-161.5 -424.5
t161.5 -424.5t411.5 -167.5zM836 338q-115 0 -187.5 58t-89.5 161h168q18 -86 111 -86q127 0 127 191v36q-24 -37 -68 -61.5t-104 -24.5q-102 0 -169 65.5t-67 170.5v10q0 115 76 186.5t201 71.5q139 0 216.5 -95.5t77.5 -264.5v-39q0 -184 -77 -281.5t-215 -97.5zM838 743
q48 0 77 32t29 81v8q0 52 -28 84.5t-78 32.5q-51 0 -79 -33t-28 -84v-10q0 -47 29 -79t78 -32z" />
    <glyph glyph-name="uni24EA" unicode="&#x24ea;" horiz-adv-x="1665" 
d="M831 -27q-217 0 -390 97t-270 269.5t-97 387.5t97 387.5t270 269.5t390 97q163 0 304 -57t240.5 -156.5t156.5 -239.5t57 -301t-57 -301t-156.5 -239.5t-240.5 -156.5t-304 -57zM831 135q250 0 413 167.5t163 424.5t-163 424.5t-413 167.5t-411.5 -167.5t-161.5 -424.5
t161.5 -424.5t411.5 -167.5zM831 336q-142 0 -215 104.5t-73 276.5v18q0 172 73 276.5t215 104.5q143 0 216 -105t73 -276v-18q0 -172 -73.5 -276.5t-215.5 -104.5zM831 479q60 0 84.5 54t24.5 186v14q0 132 -24.5 186t-84.5 54q-59 0 -84.5 -54.5t-25.5 -185.5v-14
q0 -132 25.5 -186t84.5 -54z" />
    <glyph glyph-name="uni24FF" unicode="&#x24ff;" horiz-adv-x="1665" 
d="M834 -27q-163 0 -304 57t-240.5 156.5t-156.5 239.5t-57 301t57 301t156.5 239.5t240.5 156.5t304 57q217 0 390 -97t270 -269.5t97 -387.5t-97 -387.5t-270 -269.5t-390 -97zM834 324q145 0 219.5 107t74.5 274v40q0 82 -17.5 150t-52.5 121t-92 82.5t-132 29.5
q-99 0 -167 -52.5t-98 -136.5t-30 -194v-40q0 -168 75 -274.5t220 -106.5zM834 494q-53 0 -72 47.5t-19 167.5v34q0 123 19 170.5t72 47.5q51 0 69.5 -50.5t18.5 -167.5v-34q0 -118 -18.5 -166.5t-69.5 -48.5z" />
    <glyph glyph-name="filledbox" unicode="&#x25a0;" horiz-adv-x="1767" 
d="M1642 0h-1519v1454h1519v-1454z" />
    <glyph glyph-name="uni25A1" unicode="&#x25a1;" horiz-adv-x="1767" 
d="M1642 0h-1519v1454h1519v-1454zM287 1311v-1168h1192v1168h-1192z" />
    <glyph glyph-name="uni25AA" unicode="&#x25aa;" horiz-adv-x="1323" 
d="M1210 0h-1097v1055h1097v-1055z" />
    <glyph glyph-name="uni25AB" unicode="&#x25ab;" horiz-adv-x="1323" 
d="M1210 0h-1097v1055h1097v-1055zM266 920v-785h791v785h-791z" />
    <glyph glyph-name="triagup" unicode="&#x25b2;" horiz-adv-x="1486" 
d="M1374 0h-1261l630 1079z" />
    <glyph glyph-name="triagrt" unicode="&#x25ba;" horiz-adv-x="1368" 
d="M1255 528l-1142 -555v1106z" />
    <glyph glyph-name="triagdn" unicode="&#x25bc;" horiz-adv-x="1486" 
d="M1374 1055l-631 -1082l-630 1082h1261z" />
    <glyph glyph-name="triaglf" unicode="&#x25c4;" horiz-adv-x="1368" 
d="M1255 1079v-1106l-1142 555z" />
    <glyph glyph-name="lozenge" unicode="&#x25ca;" horiz-adv-x="1255" 
d="M1208 733l-583 -760l-580 760l580 748zM295 733l330 -438l329 438l-329 428z" />
    <glyph glyph-name="circle" unicode="&#x25cb;" horiz-adv-x="1665" 
d="M834 -27q-163 0 -304 57t-240.5 156.5t-156.5 239.5t-57 301t57 301t156.5 239.5t240.5 156.5t304 57q217 0 390 -97t270 -269.5t97 -387.5t-97 -387.5t-270 -269.5t-390 -97zM834 135q250 0 411.5 167.5t161.5 424.5t-161.5 424.5t-411.5 167.5t-413 -167.5t-163 -424.5
t163 -424.5t413 -167.5z" />
    <glyph glyph-name="uni25CF" unicode="&#x25cf;" horiz-adv-x="1665" 
d="M834 -27q-163 0 -304 57t-240.5 156.5t-156.5 239.5t-57 301t57 301t156.5 239.5t240.5 156.5t304 57q217 0 390 -97t270 -269.5t97 -387.5t-97 -387.5t-270 -269.5t-390 -97z" />
    <glyph glyph-name="uni2612" unicode="&#x2612;" horiz-adv-x="1323" 
d="M1210 0h-1097v1055h1097v-1055zM266 920v-785h791v785h-791zM664 440l-218 -217l-88 84l220 221l-220 217l88 86l218 -217l217 217l86 -83l-217 -220l217 -219l-86 -86z" />
    <glyph glyph-name="uni26AB" unicode="&#x26ab;" horiz-adv-x="1275" 
d="M641 -27q-257 0 -413 154t-156 401q0 245 156 398t413 153q255 0 409 -153t154 -398q0 -246 -154 -400.5t-409 -154.5z" />
    <glyph glyph-name="uni26AC" unicode="&#x26ac;" horiz-adv-x="1275" 
d="M639 -25q-257 0 -412 153t-155 398q0 244 155 396.5t412 152.5t411 -152.5t154 -396.5q0 -245 -154 -398t-411 -153zM639 131q183 0 285 108.5t102 286.5q0 177 -102.5 286.5t-284.5 109.5t-285.5 -109.5t-103.5 -286.5q0 -178 103 -286.5t286 -108.5z" />
    <glyph glyph-name="uni2776" unicode="&#x2776;" horiz-adv-x="1665" 
d="M834 -27q-163 0 -304 57t-240.5 156.5t-156.5 239.5t-57 301t57 301t156.5 239.5t240.5 156.5t304 57q217 0 390 -97t270 -269.5t97 -387.5t-97 -387.5t-270 -269.5t-390 -97zM752 860v-508h215v752h-148q-100 -106 -217 -133v-170q78 18 150 59z" />
    <glyph glyph-name="uni2777" unicode="&#x2777;" horiz-adv-x="1665" 
d="M831 -27q-217 0 -390 97t-270 269.5t-97 387.5t97 387.5t270 269.5t390 97q163 0 304 -57t240.5 -156.5t156.5 -239.5t57 -301t-57 -301t-156.5 -239.5t-240.5 -156.5t-304 -57zM549 438v-100h569v160h-350q0 31 10 50.5t48.5 48t119.5 69.5q56 27 91 54.5t51 56t21 52
t5 56.5v6q0 95 -72 160t-192 65q-135 0 -211.5 -73t-81.5 -197h205q0 115 80 115q33 0 51 -19t18 -51v-6q0 -35 -27 -63t-112 -70q-126 -61 -174.5 -130t-48.5 -184z" />
    <glyph glyph-name="uni2778" unicode="&#x2778;" horiz-adv-x="1665" 
d="M834 1481q217 0 390 -97t270 -269.5t97 -387.5t-97 -387.5t-270 -269.5t-390 -97q-163 0 -304 57t-240.5 156.5t-156.5 239.5t-57 301t57 301t156.5 239.5t240.5 156.5t304 57zM1128 559v8q0 67 -40 111.5t-103 64.5q50 20 82.5 61.5t32.5 94.5v8q0 100 -74 160.5
t-192 60.5t-195.5 -70.5t-81.5 -189.5h178q1 59 26 90t70 31q87 0 87 -98q0 -82 -80 -82h-82v-133h80q92 0 92 -98q0 -50 -24.5 -80.5t-72.5 -30.5q-46 0 -72.5 33.5t-29.5 93.5h-190q0 -124 79 -196t216 -72q141 0 217.5 61.5t76.5 171.5zM918 891v-2v2z" />
    <glyph glyph-name="uni2779" unicode="&#x2779;" horiz-adv-x="1662" 
d="M831 -27q-217 0 -390 97t-270 269.5t-97 387.5t97 387.5t270 269.5t390 97q163 0 304 -57t240.5 -156.5t156.5 -239.5t57 -301t-57 -301t-156.5 -239.5t-240.5 -156.5t-304 -57zM831 502v-150h195v150h88v160h-88v442h-217l-311 -453v-149h333zM831 659h-165l165 252
v-252z" />
    <glyph glyph-name="uni277A" unicode="&#x277a;" horiz-adv-x="1665" 
d="M834 -27q-163 0 -304 57t-240.5 156.5t-156.5 239.5t-57 301t57 301t156.5 239.5t240.5 156.5t304 57q217 0 390 -97t270 -269.5t97 -387.5t-97 -387.5t-270 -269.5t-390 -97zM836 340q131 0 209.5 71t78.5 189v10q0 106 -65 171t-166 65q-86 0 -143 -47l20 147h309v170
h-440l-68 -452l172 -13q10 21 34.5 36t56.5 15q42 0 65 -28.5t23 -75.5v-4q0 -43 -25 -71.5t-66 -28.5q-39 0 -65 23.5t-31 60.5h-192q8 -111 83.5 -174.5t209.5 -63.5z" />
    <glyph glyph-name="uni277B" unicode="&#x277b;" horiz-adv-x="1665" 
d="M834 -27q-163 0 -304 57t-240.5 156.5t-156.5 239.5t-57 301t57 301t156.5 239.5t240.5 156.5t304 57q217 0 390 -97t270 -269.5t97 -387.5t-97 -387.5t-270 -269.5t-390 -97zM842 326q131 0 206.5 72t75.5 190v10q0 105 -63.5 171.5t-167.5 66.5q-107 0 -160 -76v41
q0 84 26.5 132t78.5 48q73 0 92 -76h188q-18 102 -88 162.5t-190 60.5q-142 0 -218.5 -98t-76.5 -293v-71q0 -157 77.5 -248.5t219.5 -91.5zM838 475q-46 0 -67 31.5t-21 75.5v8q0 40 21 70t65 30q43 0 66.5 -30.5t23.5 -69.5v-8q0 -43 -22.5 -75t-65.5 -32z" />
    <glyph glyph-name="uni277C" unicode="&#x277c;" horiz-adv-x="1662" 
d="M831 -27q-217 0 -390 97t-270 269.5t-97 387.5t97 387.5t270 269.5t390 97q163 0 304 -57t240.5 -156.5t156.5 -239.5t57 -301t-57 -301t-156.5 -239.5t-240.5 -156.5t-304 -57zM625 352h204q79 370 291 611v141h-575v-170h358q-183 -228 -278 -582z" />
    <glyph glyph-name="uni277D" unicode="&#x277d;" horiz-adv-x="1665" 
d="M831 -27q-217 0 -390 97t-270 269.5t-97 387.5t97 387.5t270 269.5t390 97q163 0 304 -57t240.5 -156.5t156.5 -239.5t57 -301t-57 -301t-156.5 -239.5t-240.5 -156.5t-304 -57zM834 326q135 0 212.5 62t77.5 167v10q0 73 -38.5 119.5t-100.5 60.5q49 16 80 59t31 103v11
q0 97 -71.5 153.5t-190.5 56.5q-120 0 -191.5 -56.5t-71.5 -153.5v-11q0 -59 32 -103t83 -59q-64 -16 -103.5 -62t-39.5 -118v-10q0 -105 77 -167t214 -62zM834 807q-44 0 -67.5 23.5t-23.5 64.5v8q0 39 24 62.5t67 23.5q42 0 65 -23.5t23 -62.5v-8q0 -40 -23 -64t-65 -24z
M834 469q-48 0 -74.5 27.5t-26.5 72.5v9q0 45 26.5 72.5t74.5 27.5q46 0 72 -27.5t26 -72.5v-9q0 -45 -26 -72.5t-72 -27.5z" />
    <glyph glyph-name="uni277E" unicode="&#x277e;" horiz-adv-x="1665" 
d="M831 -27q-217 0 -390 97t-270 269.5t-97 387.5t97 387.5t270 269.5t390 97q163 0 304 -57t240.5 -156.5t156.5 -239.5t57 -301t-57 -301t-156.5 -239.5t-240.5 -156.5t-304 -57zM827 326q142 0 219.5 98t77.5 293v71q0 156 -78 248t-219 92q-131 0 -206.5 -72t-75.5 -190
v-10q0 -105 63.5 -171.5t165.5 -66.5q109 0 162 76v-41q0 -82 -27.5 -131t-79.5 -49q-74 0 -90 76h-188q18 -102 87.5 -162.5t188.5 -60.5zM831 764q-41 0 -64.5 30.5t-23.5 69.5v8q0 43 22.5 75t65.5 32q45 0 66 -31.5t21 -75.5v-8q0 -40 -21.5 -70t-65.5 -30z" />
    <glyph glyph-name="Iacute_J.loclNLD" horiz-adv-x="1673" 
d="M340 1618h-229l258 295h327zM1526 1618h-230l258 295h328zM375 0h-240v1454h240v-1454zM1065 -27q-239 0 -366.5 124.5t-127.5 334.5v80h236v-76q0 -254 254 -254q132 0 195 69.5t63 215.5v987h237v-977q0 -236 -129.5 -370t-361.5 -134z" />
    <glyph glyph-name="iacute_j.loclNLD" horiz-adv-x="915" 
d="M322 1208h-209l133 308h301zM782 1208h-209l134 308h301zM338 0h-225v1055h225v-1055zM479 -375q-81 0 -160 27v176q58 -21 115 -21q76 0 108.5 37t32.5 117v1094h226v-1118q0 -152 -80.5 -232t-241.5 -80z" />
    <glyph glyph-name="a.ss01" horiz-adv-x="1204" 
d="M526 -27q-205 0 -329.5 150t-124.5 389v31q0 238 122 387t328 149q127 0 218 -55t137 -143l6 174h209v-1055h-209l-6 176q-43 -84 -134.5 -143.5t-216.5 -59.5zM584 156q140 0 215 92.5t75 263.5v31q0 171 -75.5 264.5t-214.5 93.5q-135 0 -209 -94t-74 -264v-31
q0 -169 73.5 -262.5t209.5 -93.5z" />
    <glyph glyph-name="aacute.ss01" horiz-adv-x="1204" 
d="M457 1208l229 308h301l-328 -308h-202zM526 -27q-205 0 -329.5 150t-124.5 389v31q0 238 122 387t328 149q127 0 218 -55t137 -143l6 174h209v-1055h-209l-6 176q-43 -84 -134.5 -143.5t-216.5 -59.5zM584 156q140 0 215 92.5t75 263.5v31q0 171 -75.5 264.5t-214.5 93.5
q-135 0 -209 -94t-74 -264v-31q0 -169 73.5 -262.5t209.5 -93.5z" />
    <glyph glyph-name="abreve.ss01" horiz-adv-x="1204" 
d="M602 1206q-153 0 -224 63.5t-71 186.5v60h170v-68q0 -51 30.5 -75.5t94.5 -24.5q123 0 123 100v68h170v-60q0 -123 -70.5 -186.5t-222.5 -63.5zM526 -27q-205 0 -329.5 150t-124.5 389v31q0 238 122 387t328 149q127 0 218 -55t137 -143l6 174h209v-1055h-209l-6 176
q-43 -84 -134.5 -143.5t-216.5 -59.5zM584 156q140 0 215 92.5t75 263.5v31q0 171 -75.5 264.5t-214.5 93.5q-135 0 -209 -94t-74 -264v-31q0 -169 73.5 -262.5t209.5 -93.5z" />
    <glyph glyph-name="acircumflex.ss01" horiz-adv-x="1204" 
d="M602 1384l-129 -176h-174l162 308h284l162 -308h-174zM526 -27q-205 0 -329.5 150t-124.5 389v31q0 238 122 387t328 149q127 0 218 -55t137 -143l6 174h209v-1055h-209l-6 176q-43 -84 -134.5 -143.5t-216.5 -59.5zM584 156q140 0 215 92.5t75 263.5v31
q0 171 -75.5 264.5t-214.5 93.5q-135 0 -209 -94t-74 -264v-31q0 -169 73.5 -262.5t209.5 -93.5z" />
    <glyph glyph-name="adieresis.ss01" horiz-adv-x="1204" 
d="M510 1516v-308h-236v308h236zM932 1516v-308h-236v308h236zM526 -27q-205 0 -329.5 150t-124.5 389v31q0 238 122 387t328 149q127 0 218 -55t137 -143l6 174h209v-1055h-209l-6 176q-43 -84 -134.5 -143.5t-216.5 -59.5zM584 156q140 0 215 92.5t75 263.5v31
q0 171 -75.5 264.5t-214.5 93.5q-135 0 -209 -94t-74 -264v-31q0 -169 73.5 -262.5t209.5 -93.5z" />
    <glyph glyph-name="agrave.ss01" horiz-adv-x="1204" 
d="M520 1516l230 -308h-205l-326 308h301zM526 -27q-205 0 -329.5 150t-124.5 389v31q0 238 122 387t328 149q127 0 218 -55t137 -143l6 174h209v-1055h-209l-6 176q-43 -84 -134.5 -143.5t-216.5 -59.5zM584 156q140 0 215 92.5t75 263.5v31q0 171 -75.5 264.5t-214.5 93.5
q-135 0 -209 -94t-74 -264v-31q0 -169 73.5 -262.5t209.5 -93.5z" />
    <glyph glyph-name="amacron.ss01" horiz-adv-x="1204" 
d="M915 1448v-191h-626v191h626zM526 -27q-205 0 -329.5 150t-124.5 389v31q0 238 122 387t328 149q127 0 218 -55t137 -143l6 174h209v-1055h-209l-6 176q-43 -84 -134.5 -143.5t-216.5 -59.5zM584 156q140 0 215 92.5t75 263.5v31q0 171 -75.5 264.5t-214.5 93.5
q-135 0 -209 -94t-74 -264v-31q0 -169 73.5 -262.5t209.5 -93.5z" />
    <glyph glyph-name="aogonek.ss01" horiz-adv-x="1204" 
d="M848 -190q0 -80 102 -80q51 0 86 14v-135q-50 -25 -125 -25q-111 0 -178 51t-67 144q0 152 217 248l-6 149q-43 -84 -134.5 -143.5t-216.5 -59.5q-205 0 -329.5 150t-124.5 389v31q0 238 122 387t328 149q127 0 218 -55t137 -143l6 174h209v-1055h2
q-129 -37 -187.5 -87.5t-58.5 -102.5zM874 512v31q0 171 -75.5 264.5t-214.5 93.5q-135 0 -209 -94t-74 -264v-31q0 -169 73.5 -262.5t209.5 -93.5q140 0 215 92.5t75 263.5z" />
    <glyph glyph-name="aring.ss01" horiz-adv-x="1204" 
d="M602 1200q-101 0 -167 63t-66 160t66 159.5t167 62.5q104 0 169 -62.5t65 -159.5t-65 -160t-169 -63zM604 1335q40 0 64 24.5t24 65.5q0 40 -24 63t-64 23q-42 0 -67 -23.5t-25 -62.5q0 -41 25.5 -65.5t66.5 -24.5zM526 -27q-205 0 -329.5 150t-124.5 389v31
q0 238 122 387t328 149q127 0 218 -55t137 -143l6 174h209v-1055h-209l-6 176q-43 -84 -134.5 -143.5t-216.5 -59.5zM584 156q140 0 215 92.5t75 263.5v31q0 171 -75.5 264.5t-214.5 93.5q-135 0 -209 -94t-74 -264v-31q0 -169 73.5 -262.5t209.5 -93.5z" />
    <glyph glyph-name="aringacute.ss01" horiz-adv-x="1204" 
d="M602 1200q-101 0 -167 63t-66 160q0 73 39 128t104 79l74 178h239l-123 -184q62 -23 98 -76.5t36 -124.5q0 -97 -65 -160t-169 -63zM604 1335q40 0 64 24.5t24 65.5q0 40 -24 63t-64 23q-42 0 -67 -23.5t-25 -62.5q0 -41 25.5 -65.5t66.5 -24.5zM526 -27
q-205 0 -329.5 150t-124.5 389v31q0 238 122 387t328 149q127 0 218 -55t137 -143l6 174h209v-1055h-209l-6 176q-43 -84 -134.5 -143.5t-216.5 -59.5zM584 156q140 0 215 92.5t75 263.5v31q0 171 -75.5 264.5t-214.5 93.5q-135 0 -209 -94t-74 -264v-31q0 -169 73.5 -262.5
t209.5 -93.5z" />
    <glyph glyph-name="atilde.ss01" horiz-adv-x="1204" 
d="M733 1225q-43 0 -87 22t-80.5 44t-63.5 22q-55 0 -58 -82h-153q6 137 48.5 199.5t131.5 62.5q42 0 86.5 -22t82.5 -44t62 -22q30 0 42.5 19.5t15.5 62.5h153q-6 -138 -50 -200t-130 -62zM526 -27q-205 0 -329.5 150t-124.5 389v31q0 238 122 387t328 149q127 0 218 -55
t137 -143l6 174h209v-1055h-209l-6 176q-43 -84 -134.5 -143.5t-216.5 -59.5zM584 156q140 0 215 92.5t75 263.5v31q0 171 -75.5 264.5t-214.5 93.5q-135 0 -209 -94t-74 -264v-31q0 -169 73.5 -262.5t209.5 -93.5z" />
    <glyph glyph-name="ae.ss01" horiz-adv-x="2009" 
d="M1442 1079q254 0 381.5 -162.5t115.5 -439.5h-788q7 -158 82 -240.5t209 -82.5q107 0 174.5 47t91.5 129h225q-39 -168 -167 -262.5t-324 -94.5q-232 0 -375 140v-113h-184l-6 176q-43 -84 -134.5 -143.5t-216.5 -59.5q-205 0 -329.5 150t-124.5 389v31q0 238 122 387
t328 149q127 0 218 -55t137 -143l6 174h184v-117q141 141 375 141zM874 512v31q0 171 -75.5 264.5t-214.5 93.5q-135 0 -209 -94t-74 -264v-31q0 -169 73.5 -262.5t209.5 -93.5q140 0 215 92.5t75 263.5zM1155 639h553q-12 126 -79 194t-189 68q-247 0 -285 -262z" />
    <glyph glyph-name="aeacute.ss01" horiz-adv-x="2009" 
d="M1087 1516h302l-328 -308h-203zM1442 1079q254 0 381.5 -162.5t115.5 -439.5h-788q7 -158 82 -240.5t209 -82.5q107 0 174.5 47t91.5 129h225q-39 -168 -167 -262.5t-324 -94.5q-232 0 -375 140v-113h-184l-6 176q-43 -84 -134.5 -143.5t-216.5 -59.5q-205 0 -329.5 150
t-124.5 389v31q0 238 122 387t328 149q127 0 218 -55t137 -143l6 174h184v-117q141 141 375 141zM874 512v31q0 171 -75.5 264.5t-214.5 93.5q-135 0 -209 -94t-74 -264v-31q0 -169 73.5 -262.5t209.5 -93.5q140 0 215 92.5t75 263.5zM1155 639h553q-12 126 -79 194t-189 68
q-247 0 -285 -262z" />
    <glyph glyph-name="a.sc" horiz-adv-x="1347" 
d="M1307 0h-248l-111 289h-557l-110 -289h-240l504 1245h256zM670 1010l-205 -535h412z" />
    <glyph glyph-name="aacute.sc" horiz-adv-x="1347" 
d="M756 1706h301l-328 -307h-203zM1307 0h-248l-111 289h-557l-110 -289h-240l504 1245h256zM670 1010l-205 -535h412z" />
    <glyph glyph-name="abreve.sc" horiz-adv-x="1347" 
d="M674 1397q-153 0 -224 63.5t-71 186.5v59h170v-68q0 -51 30.5 -75.5t94.5 -24.5q123 0 123 100v68h170v-59q0 -123 -70.5 -186.5t-222.5 -63.5zM1307 0h-248l-111 289h-557l-110 -289h-240l504 1245h256zM670 1010l-205 -535h412z" />
    <glyph glyph-name="acircumflex.sc" horiz-adv-x="1347" 
d="M803 1399l-131 176l-129 -176h-174l161 307h285l162 -307h-174zM1307 0h-248l-111 289h-557l-110 -289h-240l504 1245h256zM670 1010l-205 -535h412z" />
    <glyph glyph-name="adieresis.sc" horiz-adv-x="1347" 
d="M344 1706h236v-307h-236v307zM766 1706h235v-307h-235v307zM1307 0h-248l-111 289h-557l-110 -289h-240l504 1245h256zM670 1010l-205 -535h412z" />
    <glyph glyph-name="agrave.sc" horiz-adv-x="1347" 
d="M592 1706l229 -307h-205l-325 307h301zM1307 0h-248l-111 289h-557l-110 -289h-240l504 1245h256zM670 1010l-205 -535h412z" />
    <glyph glyph-name="amacron.sc" horiz-adv-x="1347" 
d="M360 1638h627v-190h-627v190zM1307 0h-248l-111 289h-557l-110 -289h-240l504 1245h256zM670 1010l-205 -535h412z" />
    <glyph glyph-name="aogonek.sc" horiz-adv-x="1347" 
d="M1061 -190q0 -80 102 -80q51 0 86 14v-135q-50 -25 -125 -25q-111 0 -178 51t-67 144q0 134 176 229l-107 281h-557l-110 -289h-240l504 1245h256l506 -1245q-129 -37 -187.5 -87.5t-58.5 -102.5zM670 1010l-205 -535h412z" />
    <glyph glyph-name="aring.sc" horiz-adv-x="1347" 
d="M674 1391q-101 0 -167.5 63t-66.5 160q0 96 66 158.5t168 62.5q104 0 168.5 -62t64.5 -159t-64.5 -160t-168.5 -63zM676 1702q-42 0 -67 -23.5t-25 -62.5q0 -41 25.5 -65.5t66.5 -24.5q40 0 64 24.5t24 65.5q0 40 -24 63t-64 23zM1307 0h-248l-111 289h-557l-110 -289
h-240l504 1245h256zM670 1010l-205 -535h412z" />
    <glyph glyph-name="aringacute.sc" horiz-adv-x="1347" 
d="M674 1391q-101 0 -167.5 63t-66.5 160q0 73 39.5 128t104.5 79l73 178h240l-123 -184q62 -23 97.5 -76.5t35.5 -124.5q0 -97 -64.5 -160t-168.5 -63zM676 1702q-42 0 -67 -23.5t-25 -62.5q0 -41 25.5 -65.5t66.5 -24.5q40 0 64 24.5t24 65.5q0 40 -24 63t-64 23zM1307 0
h-248l-111 289h-557l-110 -289h-240l504 1245h256zM670 1010l-205 -535h412z" />
    <glyph glyph-name="atilde.sc" horiz-adv-x="1347" 
d="M573 1503q-54 0 -57 -82h-154q6 137 49 199.5t132 62.5q42 0 86.5 -22t82.5 -44t62 -22q29 0 41.5 19t15.5 63h154q-6 -138 -50 -200t-130 -62q-43 0 -87 22t-81 44t-64 22zM1307 0h-248l-111 289h-557l-110 -289h-240l504 1245h256zM670 1010l-205 -535h412z" />
    <glyph glyph-name="ae.sc" horiz-adv-x="1824" 
d="M1036 539v-340h693v-199h-930v289h-377l-141 -289h-240l641 1245h1036v-196h-682v-318h625v-192h-625zM797 1049l-283 -574h285v574h-2z" />
    <glyph glyph-name="aeacute.sc" horiz-adv-x="1824" 
d="M1155 1706h301l-328 -307h-202zM1036 539v-340h693v-199h-930v289h-377l-141 -289h-240l641 1245h1036v-196h-682v-318h625v-192h-625zM797 1049l-283 -574h285v574h-2z" />
    <glyph glyph-name="b.sc" horiz-adv-x="1249" 
d="M719 0h-590v1245h549q202 0 317 -80t115 -241v-17q0 -81 -41.5 -148.5t-118.5 -103.5q102 -35 159.5 -112t57.5 -176v-21q0 -160 -124 -253t-324 -93zM362 1049v-326h291q213 0 213 158v16q0 77 -50.5 114.5t-166.5 37.5h-287zM362 545v-348h330q108 0 171 42t63 123v19
q0 80 -58 122t-168 42h-338z" />
    <glyph glyph-name="c.sc" horiz-adv-x="1347" 
d="M711 -23q-282 0 -453.5 174t-171.5 451v41q0 181 77.5 323t220.5 222t329 80q238 0 390 -133t171 -355h-236q-19 136 -106.5 212.5t-222.5 76.5q-176 0 -276.5 -117t-100.5 -309v-41q0 -192 101 -309t276 -117q142 0 231 81t96 222h236q-14 -225 -165 -363.5t-396 -138.5
z" />
    <glyph glyph-name="cacute.sc" horiz-adv-x="1347" 
d="M764 1399h-203l230 307h301zM711 -23q-282 0 -453.5 174t-171.5 451v41q0 181 77.5 323t220.5 222t329 80q238 0 390 -133t171 -355h-236q-19 136 -106.5 212.5t-222.5 76.5q-176 0 -276.5 -117t-100.5 -309v-41q0 -192 101 -309t276 -117q142 0 231 81t96 222h236
q-14 -225 -165 -363.5t-396 -138.5z" />
    <glyph glyph-name="ccaron.sc" horiz-adv-x="1347" 
d="M403 1706h187l117 -170l118 170h187l-160 -307h-289zM711 -23q-282 0 -453.5 174t-171.5 451v41q0 181 77.5 323t220.5 222t329 80q238 0 390 -133t171 -355h-236q-19 136 -106.5 212.5t-222.5 76.5q-176 0 -276.5 -117t-100.5 -309v-41q0 -192 101 -309t276 -117
q142 0 231 81t96 222h236q-14 -225 -165 -363.5t-396 -138.5z" />
    <glyph glyph-name="ccedilla.sc" horiz-adv-x="1347" 
d="M709 176q142 0 231 81t96 222h236q-14 -212 -149.5 -348t-358.5 -151l-45 -95h10q85 0 141 -38.5t56 -127.5q0 -93 -69 -139.5t-179 -46.5q-91 0 -143 25v110q45 -20 104 -20q104 0 104 71q0 70 -88 70q-46 0 -82 -8v84l58 117q-248 25 -396.5 194.5t-148.5 425.5v41
q0 181 77.5 323t220.5 222t329 80q238 0 390 -133t171 -355h-236q-19 136 -106.5 212.5t-222.5 76.5q-176 0 -276.5 -117t-100.5 -309v-41q0 -192 101 -309t276 -117z" />
    <glyph glyph-name="ccircumflex.sc" horiz-adv-x="1347" 
d="M707 1575l-129 -176h-175l162 307h285l162 -307h-174zM711 -23q-282 0 -453.5 174t-171.5 451v41q0 181 77.5 323t220.5 222t329 80q238 0 390 -133t171 -355h-236q-19 136 -106.5 212.5t-222.5 76.5q-176 0 -276.5 -117t-100.5 -309v-41q0 -192 101 -309t276 -117
q142 0 231 81t96 222h236q-14 -225 -165 -363.5t-396 -138.5z" />
    <glyph glyph-name="cdotaccent.sc" horiz-adv-x="1347" 
d="M590 1399v307h235v-307h-235zM711 -23q-282 0 -453.5 174t-171.5 451v41q0 181 77.5 323t220.5 222t329 80q238 0 390 -133t171 -355h-236q-19 136 -106.5 212.5t-222.5 76.5q-176 0 -276.5 -117t-100.5 -309v-41q0 -192 101 -309t276 -117q142 0 231 81t96 222h236
q-14 -225 -165 -363.5t-396 -138.5z" />
    <glyph glyph-name="d.sc" horiz-adv-x="1341" 
d="M598 0h-469v1245h469q196 0 343 -69t230.5 -206t83.5 -327v-41q0 -285 -179 -443.5t-478 -158.5zM365 1049v-852h217q204 0 316 99t112 306v41q0 207 -112 306.5t-316 99.5h-217z" />
    <glyph glyph-name="eth.sc" horiz-adv-x="1341" 
d="M129 1245h469q196 0 343 -69t230.5 -206t83.5 -327v-41q0 -285 -179 -443.5t-478 -158.5h-469v555h-104v170h104v520zM1010 602v41q0 207 -112 306.5t-316 99.5h-217v-324h335v-170h-335v-358h217q204 0 316 99t112 306z" />
    <glyph glyph-name="dcaron.sc" horiz-adv-x="1341" 
d="M322 1706h186l117 -170l118 170h187l-160 -307h-289zM598 0h-469v1245h469q196 0 343 -69t230.5 -206t83.5 -327v-41q0 -285 -179 -443.5t-478 -158.5zM365 1049v-852h217q204 0 316 99t112 306v41q0 207 -112 306.5t-316 99.5h-217z" />
    <glyph glyph-name="dcroat.sc" horiz-adv-x="1341" 
d="M129 1245h469q196 0 343 -69t230.5 -206t83.5 -327v-41q0 -285 -179 -443.5t-478 -158.5h-469v555h-104v170h104v520zM1010 602v41q0 207 -112 306.5t-316 99.5h-217v-324h335v-170h-335v-358h217q204 0 316 99t112 306z" />
    <glyph glyph-name="e.sc" horiz-adv-x="1155" 
d="M1059 0h-930v1245h920v-196h-682v-318h624v-192h-624v-340h692v-199z" />
    <glyph glyph-name="eacute.sc" horiz-adv-x="1155" 
d="M653 1399h-202l229 307h301zM1059 0h-930v1245h920v-196h-682v-318h624v-192h-624v-340h692v-199z" />
    <glyph glyph-name="ebreve.sc" horiz-adv-x="1155" 
d="M596 1397q-153 0 -224 63.5t-71 186.5v59h170v-68q0 -51 30.5 -75.5t94.5 -24.5q123 0 123 100v68h170v-59q0 -123 -70.5 -186.5t-222.5 -63.5zM1059 0h-930v1245h920v-196h-682v-318h624v-192h-624v-340h692v-199z" />
    <glyph glyph-name="ecaron.sc" horiz-adv-x="1155" 
d="M293 1706h186l117 -170l119 170h186l-160 -307h-288zM1059 0h-930v1245h920v-196h-682v-318h624v-192h-624v-340h692v-199z" />
    <glyph glyph-name="ecircumflex.sc" horiz-adv-x="1155" 
d="M596 1575l-129 -176h-174l162 307h284l162 -307h-174zM1059 0h-930v1245h920v-196h-682v-318h624v-192h-624v-340h692v-199z" />
    <glyph glyph-name="edieresis.sc" horiz-adv-x="1155" 
d="M502 1706v-307h-236v307h236zM924 1706v-307h-236v307h236zM1059 0h-930v1245h920v-196h-682v-318h624v-192h-624v-340h692v-199z" />
    <glyph glyph-name="edotaccent.sc" horiz-adv-x="1155" 
d="M477 1399v307h236v-307h-236zM1059 0h-930v1245h920v-196h-682v-318h624v-192h-624v-340h692v-199z" />
    <glyph glyph-name="egrave.sc" horiz-adv-x="1155" 
d="M514 1706l229 -307h-204l-326 307h301zM1059 0h-930v1245h920v-196h-682v-318h624v-192h-624v-340h692v-199z" />
    <glyph glyph-name="emacron.sc" horiz-adv-x="1155" 
d="M909 1638v-190h-626v190h626zM1059 0h-930v1245h920v-196h-682v-318h624v-192h-624v-340h692v-199z" />
    <glyph glyph-name="eogonek.sc" horiz-adv-x="1155" 
d="M815 -190q0 -80 103 -80q51 0 86 14v-135q-50 -25 -125 -25q-112 0 -179 51t-67 144q0 130 162 221h-666v1245h920v-196h-682v-318h624v-192h-624v-340h692v-199h2q-129 -37 -187.5 -87.5t-58.5 -102.5z" />
    <glyph glyph-name="f.sc" horiz-adv-x="1079" 
d="M367 0h-238v1245h875v-196h-637v-342h577v-193h-577v-514z" />
    <glyph glyph-name="g.sc" horiz-adv-x="1384" 
d="M684 -23q-177 0 -313 79t-210.5 221t-74.5 325v41q0 181 77.5 323t220.5 222t329 80q230 0 380 -120.5t177 -313.5h-236q-26 111 -111 173t-212 62q-178 0 -278.5 -116.5t-100.5 -309.5v-41q0 -192 102 -309t281 -117q171 0 262 87t96 214v19h-383v182h586v-678h-180
l-23 170q-51 -86 -155.5 -139.5t-233.5 -53.5z" />
    <glyph glyph-name="gbreve.sc" horiz-adv-x="1384" 
d="M709 1397q-153 0 -224 63.5t-71 186.5v59h170v-68q0 -51 30.5 -75.5t94.5 -24.5q63 0 92.5 24.5t29.5 75.5v68h170v-59q0 -123 -70 -186.5t-222 -63.5zM684 -23q-177 0 -313 79t-210.5 221t-74.5 325v41q0 181 77.5 323t220.5 222t329 80q230 0 380 -120.5t177 -313.5
h-236q-26 111 -111 173t-212 62q-178 0 -278.5 -116.5t-100.5 -309.5v-41q0 -192 102 -309t281 -117q171 0 262 87t96 214v19h-383v182h586v-678h-180l-23 170q-51 -86 -155.5 -139.5t-233.5 -53.5z" />
    <glyph glyph-name="gcircumflex.sc" horiz-adv-x="1384" 
d="M707 1575l-129 -176h-175l162 307h285l162 -307h-174zM684 -23q-177 0 -313 79t-210.5 221t-74.5 325v41q0 181 77.5 323t220.5 222t329 80q230 0 380 -120.5t177 -313.5h-236q-26 111 -111 173t-212 62q-178 0 -278.5 -116.5t-100.5 -309.5v-41q0 -192 102 -309
t281 -117q171 0 262 87t96 214v19h-383v182h586v-678h-180l-23 170q-51 -86 -155.5 -139.5t-233.5 -53.5z" />
    <glyph glyph-name="uni0123.sc" horiz-adv-x="1384" 
d="M684 -23q-177 0 -313 79t-210.5 221t-74.5 325v41q0 181 77.5 323t220.5 222t329 80q230 0 380 -120.5t177 -313.5h-236q-26 111 -111 173t-212 62q-178 0 -278.5 -116.5t-100.5 -309.5v-41q0 -192 102 -309t281 -117q171 0 262 87t96 214v19h-383v182h586v-678h-180
l-23 170q-51 -86 -155.5 -139.5t-233.5 -53.5zM598 -633h-39v121h41q49 0 71.5 22t22.5 68v70h-86v223h217v-289q0 -108 -54.5 -161.5t-172.5 -53.5z" />
    <glyph glyph-name="gdotaccent.sc" horiz-adv-x="1384" 
d="M590 1399v307h235v-307h-235zM684 -23q-177 0 -313 79t-210.5 221t-74.5 325v41q0 181 77.5 323t220.5 222t329 80q230 0 380 -120.5t177 -313.5h-236q-26 111 -111 173t-212 62q-178 0 -278.5 -116.5t-100.5 -309.5v-41q0 -192 102 -309t281 -117q171 0 262 87t96 214
v19h-383v182h586v-678h-180l-23 170q-51 -86 -155.5 -139.5t-233.5 -53.5z" />
    <glyph glyph-name="h.sc" horiz-adv-x="1353" 
d="M367 0h-238v1245h238v-508h622v508h236v-1245h-236v543h-622v-543z" />
    <glyph glyph-name="hbar.sc" horiz-adv-x="1353" 
d="M1225 1055h170v-156h-170v-899h-236v543h-622v-543h-238v899h-170v156h170v190h238v-190h622v190h236v-190zM367 737h622v162h-622v-162z" />
    <glyph glyph-name="hcircumflex.sc" horiz-adv-x="1353" 
d="M676 1575l-129 -176h-174l162 307h284l162 -307h-174zM367 0h-238v1245h238v-508h622v508h236v-1245h-236v543h-622v-543z" />
    <glyph glyph-name="i.sc" horiz-adv-x="516" 
d="M377 0h-238v1245h238v-1245z" />
    <glyph glyph-name="iacute.sc" horiz-adv-x="516" 
d="M352 1399h-209l133 307h302zM377 0h-238v1245h238v-1245z" />
    <glyph glyph-name="iacute_j.loclNLD.sc" horiz-adv-x="1619" 
d="M352 1399h-209l133 307h302zM1479 1399h-209l133 307h301zM377 0h-238v1245h238v-1245zM1042 -23q-219 0 -336.5 108.5t-117.5 293.5v70h231v-68q0 -203 219 -203q226 0 226 223v844h233v-829q0 -204 -119.5 -321.5t-335.5 -117.5z" />
    <glyph glyph-name="ibreve.sc" horiz-adv-x="516" 
d="M258 1397q-248 0 -248 223v86h168v-86q0 -76 80 -76t80 76v86h168v-86q0 -223 -248 -223zM377 0h-238v1245h238v-1245z" />
    <glyph glyph-name="icircumflex.sc" horiz-adv-x="516" 
d="M182 1399h-155l102 307h256l102 -307h-153l-78 170zM377 0h-238v1245h238v-1245z" />
    <glyph glyph-name="idieresis.sc" horiz-adv-x="516" 
d="M195 1399h-201v307h201v-307zM520 1399h-201v307h201v-307zM377 0h-238v1245h238v-1245z" />
    <glyph glyph-name="i.sc.loclTRK" horiz-adv-x="516" 
d="M139 1399v307h236v-307h-236zM377 0h-238v1245h238v-1245z" />
    <glyph glyph-name="igrave.sc" horiz-adv-x="516" 
d="M365 1399h-209l-226 307h301zM377 0h-238v1245h238v-1245z" />
    <glyph glyph-name="ij.sc" horiz-adv-x="1619" 
d="M377 0h-238v1245h238v-1245zM1042 -23q-219 0 -336.5 108.5t-117.5 293.5v70h231v-68q0 -203 219 -203q226 0 226 223v844h233v-829q0 -204 -119.5 -321.5t-335.5 -117.5z" />
    <glyph glyph-name="imacron.sc" horiz-adv-x="516" 
d="M496 1448h-476v190h476v-190zM377 0h-238v1245h238v-1245z" />
    <glyph glyph-name="iogonek.sc" horiz-adv-x="516" 
d="M139 0v1245h238v-1245h-2q-88 -44 -128 -95.5t-40 -97.5q0 -77 86 -77q25 0 57 8v-131q-41 -23 -108 -23q-91 0 -153 44.5t-62 133.5q0 71 43.5 132.5t115.5 105.5h-47z" />
    <glyph glyph-name="itilde.sc" horiz-adv-x="516" 
d="M371 1415q-31 0 -62 13.5t-50.5 29.5t-40.5 29.5t-36 13.5q-40 0 -43 -80h-141q6 130 40.5 190t106.5 60q39 0 76.5 -21.5t66 -43t46.5 -21.5q38 0 41 80h141q-5 -128 -39.5 -189t-105.5 -61zM377 0h-238v1245h238v-1245z" />
    <glyph glyph-name="j.sc" horiz-adv-x="1103" 
d="M526 -23q-219 0 -336.5 108.5t-117.5 293.5v70h231v-68q0 -203 219 -203q226 0 226 223v844h233v-829q0 -204 -119.5 -321.5t-335.5 -117.5z" />
    <glyph glyph-name="jcircumflex.sc" horiz-adv-x="1103" 
d="M793 1399h-156l102 307h256l103 -307h-154l-78 170zM526 -23q-219 0 -336.5 108.5t-117.5 293.5v70h231v-68q0 -203 219 -203q226 0 226 223v844h233v-829q0 -204 -119.5 -321.5t-335.5 -117.5z" />
    <glyph glyph-name="k.sc" horiz-adv-x="1230" 
d="M367 0h-238v1245h238v-567l534 567h277l-508 -532l526 -713h-270l-416 559l-143 -149v-410z" />
    <glyph glyph-name="uni0137.sc" horiz-adv-x="1230" 
d="M367 0h-238v1245h238v-567l534 567h277l-508 -532l526 -713h-270l-416 559l-143 -149v-410zM481 -633h-39v121h41q49 0 72 22t23 68v70h-86v223h217v-289q0 -108 -55 -161.5t-173 -53.5z" />
    <glyph glyph-name="l.sc" horiz-adv-x="968" 
d="M907 0h-778v1245h238v-1046h540v-199z" />
    <glyph glyph-name="lacute.sc" horiz-adv-x="968" 
d="M307 1399h-203l230 307h301zM907 0h-778v1245h238v-1046h540v-199z" />
    <glyph glyph-name="lcaron.sc" horiz-adv-x="968" 
d="M907 0h-778v1245h238v-1046h540v-199zM715 1245h227l-133 -307h-186z" />
    <glyph glyph-name="uni013C.sc" horiz-adv-x="968" 
d="M907 0h-778v1245h238v-1046h540v-199zM418 -633h-39v121h41q49 0 71.5 22t22.5 68v70h-86v223h217v-289q0 -108 -54.5 -161.5t-172.5 -53.5z" />
    <glyph glyph-name="ldot.sc" horiz-adv-x="968" 
d="M907 0h-778v1245h238v-1046h540v-199zM877 575h-244v246h244v-246z" />
    <glyph glyph-name="lslash.sc" horiz-adv-x="968" 
d="M367 586v-387h540v-199h-778v457l-162 -88v209l162 88v579h238v-450l165 90v-209z" />
    <glyph glyph-name="m.sc" horiz-adv-x="1634" 
d="M358 0h-229v1245h342l352 -956l353 956h329v-1245h-225v983l-362 -983h-195l-365 983v-983z" />
    <glyph glyph-name="n.sc" horiz-adv-x="1355" 
d="M356 0h-227v1245h279l593 -921v921h226v-1245h-264l-607 948v-948z" />
    <glyph glyph-name="nacute.sc" horiz-adv-x="1355" 
d="M733 1399h-203l230 307h301zM356 0h-227v1245h279l593 -921v921h226v-1245h-264l-607 948v-948z" />
    <glyph glyph-name="ncaron.sc" horiz-adv-x="1355" 
d="M373 1706h186l117 -170l119 170h186l-160 -307h-289zM356 0h-227v1245h279l593 -921v921h226v-1245h-264l-607 948v-948z" />
    <glyph glyph-name="uni0146.sc" horiz-adv-x="1355" 
d="M356 0h-227v1245h279l593 -921v921h226v-1245h-264l-607 948v-948zM571 -633h-39v121h41q49 0 72 22t23 68v70h-86v223h217v-289q0 -108 -55 -161.5t-173 -53.5z" />
    <glyph glyph-name="eng.sc" horiz-adv-x="1347" 
d="M936 -319q-94 0 -164 26v166q41 -18 90 -18q54 0 76.5 24t22.5 68v57l-605 944v-948h-227v1245h279l593 -921v921h226v-1315q0 -120 -73 -184.5t-218 -64.5z" />
    <glyph glyph-name="ntilde.sc" horiz-adv-x="1355" 
d="M809 1415q-44 0 -87.5 22t-80 44t-63.5 22q-55 0 -58 -82h-153q6 137 48.5 199.5t131.5 62.5q42 0 86.5 -22t82.5 -44t62 -22q30 0 42.5 19.5t15.5 62.5h153q-6 -138 -50 -200t-130 -62zM356 0h-227v1245h279l593 -921v921h226v-1245h-264l-607 948v-948z" />
    <glyph glyph-name="o.sc" horiz-adv-x="1437" 
d="M719 -23q-287 0 -460 174t-173 451v41q0 277 173 451t460 174t459 -174t172 -451v-41q0 -277 -172 -451t-459 -174zM719 176q183 0 286 115t103 311v41q0 196 -103 311t-286 115q-182 0 -284.5 -115.5t-102.5 -310.5v-41q0 -196 102.5 -311t284.5 -115z" />
    <glyph glyph-name="oacute.sc" horiz-adv-x="1437" 
d="M774 1399h-203l230 307h301zM719 -23q-287 0 -460 174t-173 451v41q0 277 173 451t460 174t459 -174t172 -451v-41q0 -277 -172 -451t-459 -174zM719 176q183 0 286 115t103 311v41q0 196 -103 311t-286 115q-182 0 -284.5 -115.5t-102.5 -310.5v-41q0 -196 102.5 -311
t284.5 -115z" />
    <glyph glyph-name="obreve.sc" horiz-adv-x="1437" 
d="M719 1397q-153 0 -224 63.5t-71 186.5v59h170v-68q0 -51 30.5 -75.5t94.5 -24.5q123 0 123 100v68h170v-59q0 -123 -70.5 -186.5t-222.5 -63.5zM719 -23q-287 0 -460 174t-173 451v41q0 277 173 451t460 174t459 -174t172 -451v-41q0 -277 -172 -451t-459 -174zM719 176
q183 0 286 115t103 311v41q0 196 -103 311t-286 115q-182 0 -284.5 -115.5t-102.5 -310.5v-41q0 -196 102.5 -311t284.5 -115z" />
    <glyph glyph-name="ocircumflex.sc" horiz-adv-x="1437" 
d="M717 1575l-129 -176h-174l161 307h285l162 -307h-174zM719 -23q-287 0 -460 174t-173 451v41q0 277 173 451t460 174t459 -174t172 -451v-41q0 -277 -172 -451t-459 -174zM719 176q183 0 286 115t103 311v41q0 196 -103 311t-286 115q-182 0 -284.5 -115.5t-102.5 -310.5
v-41q0 -196 102.5 -311t284.5 -115z" />
    <glyph glyph-name="odieresis.sc" horiz-adv-x="1437" 
d="M625 1706v-307h-236v307h236zM1047 1706v-307h-236v307h236zM719 -23q-287 0 -460 174t-173 451v41q0 277 173 451t460 174t459 -174t172 -451v-41q0 -277 -172 -451t-459 -174zM719 176q183 0 286 115t103 311v41q0 196 -103 311t-286 115q-182 0 -284.5 -115.5
t-102.5 -310.5v-41q0 -196 102.5 -311t284.5 -115z" />
    <glyph glyph-name="ograve.sc" horiz-adv-x="1437" 
d="M637 1706l229 -307h-204l-326 307h301zM719 -23q-287 0 -460 174t-173 451v41q0 277 173 451t460 174t459 -174t172 -451v-41q0 -277 -172 -451t-459 -174zM719 176q183 0 286 115t103 311v41q0 196 -103 311t-286 115q-182 0 -284.5 -115.5t-102.5 -310.5v-41
q0 -196 102.5 -311t284.5 -115z" />
    <glyph glyph-name="ohungarumlaut.sc" horiz-adv-x="1437" 
d="M571 1706h199l-162 -307h-168zM901 1706h199l-162 -307h-168zM719 -23q-287 0 -460 174t-173 451v41q0 277 173 451t460 174t459 -174t172 -451v-41q0 -277 -172 -451t-459 -174zM719 176q183 0 286 115t103 311v41q0 196 -103 311t-286 115q-182 0 -284.5 -115.5
t-102.5 -310.5v-41q0 -196 102.5 -311t284.5 -115z" />
    <glyph glyph-name="omacron.sc" horiz-adv-x="1437" 
d="M1032 1638v-190h-626v190h626zM719 -23q-287 0 -460 174t-173 451v41q0 277 173 451t460 174t459 -174t172 -451v-41q0 -277 -172 -451t-459 -174zM719 176q183 0 286 115t103 311v41q0 196 -103 311t-286 115q-182 0 -284.5 -115.5t-102.5 -310.5v-41q0 -196 102.5 -311
t284.5 -115z" />
    <glyph glyph-name="uni01EB.sc" horiz-adv-x="1437" 
d="M719 1268q287 0 459 -174t172 -451v-41q0 -231 -123 -394t-338 -212q-121 -37 -176.5 -86.5t-55.5 -99.5q0 -80 103 -80q51 0 86 14v-135q-50 -25 -125 -25q-112 0 -179 51t-67 144q0 122 137 205q-243 34 -384.5 201.5t-141.5 416.5v41q0 277 173 451t460 174zM1108 602
v41q0 196 -103 311t-286 115q-182 0 -284.5 -115.5t-102.5 -310.5v-41q0 -196 102.5 -311t284.5 -115q183 0 286 115t103 311z" />
    <glyph glyph-name="oslash.sc" horiz-adv-x="1437" 
d="M1171 1245h218l-175 -192q136 -164 136 -410v-41q0 -277 -172 -451t-459 -174q-220 0 -377 107l-76 -84h-217l172 193q-135 166 -135 409v41q0 277 173 451t460 174q220 0 377 -107zM332 643v-41q0 -135 49 -233l571 632q-96 68 -233 68q-182 0 -284.5 -115.5
t-102.5 -310.5zM1108 602v41q0 137 -51 234l-570 -633q93 -68 232 -68q183 0 286 115t103 311z" />
    <glyph glyph-name="oslashacute.sc" horiz-adv-x="1437" 
d="M801 1706h301l-328 -307h-203zM1171 1245h218l-175 -192q136 -164 136 -410v-41q0 -277 -172 -451t-459 -174q-220 0 -377 107l-76 -84h-217l172 193q-135 166 -135 409v41q0 277 173 451t460 174q220 0 377 -107zM332 643v-41q0 -135 49 -233l571 632q-96 68 -233 68
q-182 0 -284.5 -115.5t-102.5 -310.5zM1108 602v41q0 137 -51 234l-570 -633q93 -68 232 -68q183 0 286 115t103 311z" />
    <glyph glyph-name="otilde.sc" horiz-adv-x="1437" 
d="M850 1415q-44 0 -88 22t-80.5 44t-63.5 22q-54 0 -57 -82h-153q6 137 48.5 199.5t131.5 62.5q42 0 86.5 -22t82.5 -44t62 -22q30 0 42.5 19.5t15.5 62.5h153q-6 -138 -50 -200t-130 -62zM719 -23q-287 0 -460 174t-173 451v41q0 277 173 451t460 174t459 -174t172 -451
v-41q0 -277 -172 -451t-459 -174zM719 176q183 0 286 115t103 311v41q0 196 -103 311t-286 115q-182 0 -284.5 -115.5t-102.5 -310.5v-41q0 -196 102.5 -311t284.5 -115z" />
    <glyph glyph-name="oe.sc" horiz-adv-x="2134" 
d="M1346 539v-340h692v-199h-930v129q-158 -152 -408 -152q-182 0 -322 80t-216 222t-76 323v41q0 181 76 323t216 222t322 80q248 0 408 -150v127h920v-196h-682v-318h624v-192h-624zM719 176q183 0 286 115t103 311v41q0 196 -103 311t-286 115q-182 0 -284.5 -115.5
t-102.5 -310.5v-41q0 -196 102.5 -311t284.5 -115z" />
    <glyph glyph-name="p.sc" horiz-adv-x="1200" 
d="M365 0h-236v1245h545q206 0 332.5 -100.5t126.5 -282.5v-24q0 -184 -126 -283.5t-333 -99.5h-309v-455zM365 1049v-398h288q109 0 172.5 47t63.5 140v24q0 94 -63 140.5t-173 46.5h-288z" />
    <glyph glyph-name="thorn.sc" horiz-adv-x="1200" 
d="M365 0h-236v1245h236v-213h309q206 0 332.5 -100t126.5 -283v-22q0 -184 -126 -283.5t-333 -99.5h-309v-244zM365 836v-396h288q110 0 173 46.5t63 140.5v22q0 94 -63 140.5t-173 46.5h-288z" />
    <glyph glyph-name="q.sc" horiz-adv-x="1437" 
d="M1350 643v-41q0 -170 -67.5 -305t-192.5 -217l149 -230h-229l-99 152q-92 -25 -192 -25q-287 0 -460 174t-173 451v41q0 277 173 451t460 174t459 -174t172 -451zM1108 602v41q0 196 -103 311t-286 115q-182 0 -284.5 -115.5t-102.5 -310.5v-41q0 -196 102.5 -311
t284.5 -115q39 0 76 6l-150 230h227l99 -152q137 113 137 342z" />
    <glyph glyph-name="r.sc" horiz-adv-x="1218" 
d="M365 0h-236v1245h563q206 0 332.5 -100.5t126.5 -282.5v-24q0 -145 -81 -238t-222 -125l330 -475h-267l-305 455h-241v-455zM365 1049v-398h307q109 0 172 47t63 140v24q0 94 -62.5 140.5t-172.5 46.5h-307z" />
    <glyph glyph-name="racute.sc" horiz-adv-x="1218" 
d="M635 1399h-203l230 307h301zM365 0h-236v1245h563q206 0 332.5 -100.5t126.5 -282.5v-24q0 -145 -81 -238t-222 -125l330 -475h-267l-305 455h-241v-455zM365 1049v-398h307q109 0 172 47t63 140v24q0 94 -62.5 140.5t-172.5 46.5h-307z" />
    <glyph glyph-name="rcaron.sc" horiz-adv-x="1218" 
d="M274 1706h187l117 -170l118 170h187l-160 -307h-289zM365 0h-236v1245h563q206 0 332.5 -100.5t126.5 -282.5v-24q0 -145 -81 -238t-222 -125l330 -475h-267l-305 455h-241v-455zM365 1049v-398h307q109 0 172 47t63 140v24q0 94 -62.5 140.5t-172.5 46.5h-307z" />
    <glyph glyph-name="uni0157.sc" horiz-adv-x="1218" 
d="M365 0h-236v1245h563q206 0 332.5 -100.5t126.5 -282.5v-24q0 -145 -81 -238t-222 -125l330 -475h-267l-305 455h-241v-455zM365 1049v-398h307q109 0 172 47t63 140v24q0 94 -62.5 140.5t-172.5 46.5h-307zM496 -633h-39v121h41q49 0 71.5 22t22.5 68v70h-86v223h217
v-289q0 -108 -54.5 -161.5t-172.5 -53.5z" />
    <glyph glyph-name="s.sc" horiz-adv-x="1214" 
d="M625 -23q-241 0 -389 110t-160 312h233q13 -116 99 -173.5t225 -57.5q122 0 197 44t75 124v10q0 73 -71.5 115.5t-266.5 73.5q-131 22 -220 56.5t-137.5 81t-68.5 99t-20 121.5v12q0 159 134.5 261t348.5 102q217 0 354.5 -101.5t155.5 -289.5h-233q-13 100 -86 151
t-195 51q-115 0 -181.5 -45.5t-66.5 -118.5v-8q0 -45 22.5 -75t92 -56t195.5 -45q255 -40 365 -127t110 -235v-15q0 -169 -140.5 -273t-371.5 -104z" />
    <glyph glyph-name="sacute.sc" horiz-adv-x="1214" 
d="M672 1399h-203l229 307h301zM625 -23q-241 0 -389 110t-160 312h233q13 -116 99 -173.5t225 -57.5q122 0 197 44t75 124v10q0 73 -71.5 115.5t-266.5 73.5q-131 22 -220 56.5t-137.5 81t-68.5 99t-20 121.5v12q0 159 134.5 261t348.5 102q217 0 354.5 -101.5
t155.5 -289.5h-233q-13 100 -86 151t-195 51q-115 0 -181.5 -45.5t-66.5 -118.5v-8q0 -45 22.5 -75t92 -56t195.5 -45q255 -40 365 -127t110 -235v-15q0 -169 -140.5 -273t-371.5 -104z" />
    <glyph glyph-name="scaron.sc" horiz-adv-x="1214" 
d="M311 1706h187l116 -170l119 170h187l-160 -307h-289zM625 -23q-241 0 -389 110t-160 312h233q13 -116 99 -173.5t225 -57.5q122 0 197 44t75 124v10q0 73 -71.5 115.5t-266.5 73.5q-131 22 -220 56.5t-137.5 81t-68.5 99t-20 121.5v12q0 159 134.5 261t348.5 102
q217 0 354.5 -101.5t155.5 -289.5h-233q-13 100 -86 151t-195 51q-115 0 -181.5 -45.5t-66.5 -118.5v-8q0 -45 22.5 -75t92 -56t195.5 -45q255 -40 365 -127t110 -235v-15q0 -169 -140.5 -273t-371.5 -104z" />
    <glyph glyph-name="scedilla.sc" horiz-adv-x="1214" 
d="M662 731q255 -40 365 -127t110 -235v-15q0 -155 -118.5 -255t-320.5 -117l-45 -97h11q85 0 140.5 -38.5t55.5 -127.5q0 -93 -69 -139.5t-179 -46.5q-91 0 -143 25v110q45 -20 104 -20q105 0 105 71q0 70 -88 70q-46 0 -82 -8v84l57 115q-217 14 -348 122.5t-141 296.5
h233q13 -116 99 -173.5t225 -57.5q122 0 197 44t75 124v10q0 73 -71.5 115.5t-266.5 73.5q-131 22 -220 56.5t-137.5 81t-68.5 99t-20 121.5v12q0 159 134.5 261t348.5 102q217 0 354.5 -101.5t155.5 -289.5h-233q-13 100 -86 151t-195 51q-115 0 -181.5 -45.5t-66.5 -118.5
v-8q0 -45 22.5 -75t92 -56t195.5 -45z" />
    <glyph glyph-name="scircumflex.sc" horiz-adv-x="1214" 
d="M614 1575l-129 -176h-174l162 307h285l162 -307h-175zM625 -23q-241 0 -389 110t-160 312h233q13 -116 99 -173.5t225 -57.5q122 0 197 44t75 124v10q0 73 -71.5 115.5t-266.5 73.5q-131 22 -220 56.5t-137.5 81t-68.5 99t-20 121.5v12q0 159 134.5 261t348.5 102
q217 0 354.5 -101.5t155.5 -289.5h-233q-13 100 -86 151t-195 51q-115 0 -181.5 -45.5t-66.5 -118.5v-8q0 -45 22.5 -75t92 -56t195.5 -45q255 -40 365 -127t110 -235v-15q0 -169 -140.5 -273t-371.5 -104z" />
    <glyph glyph-name="uni0219.sc" horiz-adv-x="1214" 
d="M625 -23q-241 0 -389 110t-160 312h233q13 -116 99 -173.5t225 -57.5q122 0 197 44t75 124v10q0 73 -71.5 115.5t-266.5 73.5q-131 22 -220 56.5t-137.5 81t-68.5 99t-20 121.5v12q0 159 134.5 261t348.5 102q217 0 354.5 -101.5t155.5 -289.5h-233q-13 100 -86 151
t-195 51q-115 0 -181.5 -45.5t-66.5 -118.5v-8q0 -45 22.5 -75t92 -56t195.5 -45q255 -40 365 -127t110 -235v-15q0 -169 -140.5 -273t-371.5 -104zM524 -633h-39v121h41q49 0 72 22t23 68v70h-86v223h217v-289q0 -108 -55 -161.5t-173 -53.5z" />
    <glyph glyph-name="germandbls.sc" horiz-adv-x="1464" 
d="M836 -23q-150 0 -265 43v185q132 -37 236 -37q162 0 252 49.5t90 149.5v12q0 99 -90 150t-244 51q-93 0 -182 -19v146l293 348h-181q-196 0 -296.5 -93.5t-100.5 -275.5v-686h-225v702q0 267 159 405t468 138h456v-147l-276 -334q217 -17 336.5 -119t119.5 -264v-19
q0 -179 -146 -282t-404 -103z" />
    <glyph glyph-name="t.sc" horiz-adv-x="1122" 
d="M680 0h-238v1049h-383v196h1004v-196h-383v-1049z" />
    <glyph glyph-name="tbar.sc" horiz-adv-x="1122" 
d="M1063 1245v-196h-383v-340h240v-170h-240v-539h-238v539h-239v170h239v340h-383v196h1004z" />
    <glyph glyph-name="tcaron.sc" horiz-adv-x="1122" 
d="M256 1706h186l117 -170l119 170h186l-159 -307h-289zM680 0h-238v1049h-383v196h1004v-196h-383v-1049z" />
    <glyph glyph-name="uni0163.sc" horiz-adv-x="1122" 
d="M680 1049v-1049h-55l-56 -115h11q85 0 140.5 -38.5t55.5 -127.5q0 -93 -69 -139.5t-179 -46.5q-91 0 -143 25v110q45 -20 104 -20q105 0 105 71q0 70 -88 70q-46 0 -82 -8v84l68 135h-50v1049h-383v196h1004v-196h-383z" />
    <glyph glyph-name="uni021B.sc" horiz-adv-x="1122" 
d="M680 0h-238v1049h-383v196h1004v-196h-383v-1049zM442 -633h-39v121h41q49 0 72 22t23 68v70h-86v223h217v-289q0 -108 -55 -161.5t-173 -53.5z" />
    <glyph glyph-name="u.sc" horiz-adv-x="1323" 
d="M662 -23q-263 0 -401 130.5t-138 371.5v766h237v-762q0 -149 75.5 -227t226.5 -78q152 0 228.5 78t76.5 229v760h233v-764q0 -242 -137 -373t-401 -131z" />
    <glyph glyph-name="uacute.sc" horiz-adv-x="1323" 
d="M719 1399h-203l229 307h302zM662 -23q-263 0 -401 130.5t-138 371.5v766h237v-762q0 -149 75.5 -227t226.5 -78q152 0 228.5 78t76.5 229v760h233v-764q0 -242 -137 -373t-401 -131z" />
    <glyph glyph-name="ubreve.sc" horiz-adv-x="1323" 
d="M662 1397q-153 0 -224 63.5t-71 186.5v59h170v-68q0 -51 30.5 -75.5t94.5 -24.5q63 0 92.5 24.5t29.5 75.5v68h170v-59q0 -123 -70 -186.5t-222 -63.5zM662 -23q-263 0 -401 130.5t-138 371.5v766h237v-762q0 -149 75.5 -227t226.5 -78q152 0 228.5 78t76.5 229v760h233
v-764q0 -242 -137 -373t-401 -131z" />
    <glyph glyph-name="ucircumflex.sc" horiz-adv-x="1323" 
d="M662 1575l-130 -176h-174l162 307h285l162 -307h-174zM662 -23q-263 0 -401 130.5t-138 371.5v766h237v-762q0 -149 75.5 -227t226.5 -78q152 0 228.5 78t76.5 229v760h233v-764q0 -242 -137 -373t-401 -131z" />
    <glyph glyph-name="udieresis.sc" horiz-adv-x="1323" 
d="M569 1706v-307h-235v307h235zM991 1706v-307h-235v307h235zM662 -23q-263 0 -401 130.5t-138 371.5v766h237v-762q0 -149 75.5 -227t226.5 -78q152 0 228.5 78t76.5 229v760h233v-764q0 -242 -137 -373t-401 -131z" />
    <glyph glyph-name="ugrave.sc" horiz-adv-x="1323" 
d="M582 1706l229 -307h-205l-325 307h301zM662 -23q-263 0 -401 130.5t-138 371.5v766h237v-762q0 -149 75.5 -227t226.5 -78q152 0 228.5 78t76.5 229v760h233v-764q0 -242 -137 -373t-401 -131z" />
    <glyph glyph-name="uhungarumlaut.sc" horiz-adv-x="1323" 
d="M514 1706h199l-162 -307h-168zM844 1706h198l-161 -307h-168zM662 -23q-263 0 -401 130.5t-138 371.5v766h237v-762q0 -149 75.5 -227t226.5 -78q152 0 228.5 78t76.5 229v760h233v-764q0 -242 -137 -373t-401 -131z" />
    <glyph glyph-name="umacron.sc" horiz-adv-x="1323" 
d="M975 1638v-190h-627v190h627zM662 -23q-263 0 -401 130.5t-138 371.5v766h237v-762q0 -149 75.5 -227t226.5 -78q152 0 228.5 78t76.5 229v760h233v-764q0 -242 -137 -373t-401 -131z" />
    <glyph glyph-name="uogonek.sc" horiz-adv-x="1323" 
d="M967 485v760h233v-764q0 -195 -89 -318.5t-263 -164.5q-125 -37 -181.5 -86.5t-56.5 -101.5q0 -80 103 -80q51 0 86 14v-135q-50 -25 -125 -25q-112 0 -179 51t-67 144q0 119 133 205q-216 23 -327 150t-111 345v766h237v-762q0 -149 75.5 -227t226.5 -78q152 0 228.5 78
t76.5 229z" />
    <glyph glyph-name="uring.sc" horiz-adv-x="1323" 
d="M662 1391q-101 0 -167.5 63t-66.5 160q0 96 66 158.5t168 62.5q104 0 168.5 -62t64.5 -159t-64.5 -160t-168.5 -63zM664 1526q40 0 64 24.5t24 65.5q0 40 -24 63t-64 23q-42 0 -67.5 -23.5t-25.5 -62.5q0 -41 25.5 -65.5t67.5 -24.5zM662 -23q-263 0 -401 130.5
t-138 371.5v766h237v-762q0 -149 75.5 -227t226.5 -78q152 0 228.5 78t76.5 229v760h233v-764q0 -242 -137 -373t-401 -131z" />
    <glyph glyph-name="utilde.sc" horiz-adv-x="1323" 
d="M793 1415q-44 0 -87.5 22t-80.5 44t-64 22q-54 0 -57 -82h-154q6 137 48.5 199.5t131.5 62.5q42 0 87 -22t83 -44t62 -22q29 0 41.5 19t15.5 63h154q-6 -138 -50 -200t-130 -62zM662 -23q-263 0 -401 130.5t-138 371.5v766h237v-762q0 -149 75.5 -227t226.5 -78
q152 0 228.5 78t76.5 229v760h233v-764q0 -242 -137 -373t-401 -131z" />
    <glyph glyph-name="v.sc" horiz-adv-x="1263" 
d="M760 0h-258l-461 1245h252l344 -993l344 993h242z" />
    <glyph glyph-name="w.sc" horiz-adv-x="1843" 
d="M662 0h-271l-350 1245h246l245 -964l273 964h250l268 -964l246 964h233l-352 -1245h-262l-262 936z" />
    <glyph glyph-name="wacute.sc" horiz-adv-x="1843" 
d="M979 1399h-203l230 307h301zM662 0h-271l-350 1245h246l245 -964l273 964h250l268 -964l246 964h233l-352 -1245h-262l-262 936z" />
    <glyph glyph-name="wcircumflex.sc" horiz-adv-x="1843" 
d="M922 1575l-129 -176h-175l162 307h285l162 -307h-174zM662 0h-271l-350 1245h246l245 -964l273 964h250l268 -964l246 964h233l-352 -1245h-262l-262 936z" />
    <glyph glyph-name="wdieresis.sc" horiz-adv-x="1843" 
d="M827 1706v-307h-235v307h235zM1249 1706v-307h-235v307h235zM662 0h-271l-350 1245h246l245 -964l273 964h250l268 -964l246 964h233l-352 -1245h-262l-262 936z" />
    <glyph glyph-name="wgrave.sc" horiz-adv-x="1843" 
d="M840 1706l229 -307h-205l-325 307h301zM662 0h-271l-350 1245h246l245 -964l273 964h250l268 -964l246 964h233l-352 -1245h-262l-262 936z" />
    <glyph glyph-name="x.sc" horiz-adv-x="1302" 
d="M297 0h-262l473 645l-438 600h272l311 -434l318 434h262l-442 -596l477 -649h-277l-344 477z" />
    <glyph glyph-name="y.sc" horiz-adv-x="1228" 
d="M733 0h-235v403l-461 842h256l328 -624l323 624h248l-459 -842v-403z" />
    <glyph glyph-name="yacute.sc" horiz-adv-x="1228" 
d="M670 1399h-203l229 307h301zM733 0h-235v403l-461 842h256l328 -624l323 624h248l-459 -842v-403z" />
    <glyph glyph-name="ycircumflex.sc" horiz-adv-x="1228" 
d="M612 1575l-129 -176h-174l162 307h285l162 -307h-175zM733 0h-235v403l-461 842h256l328 -624l323 624h248l-459 -842v-403z" />
    <glyph glyph-name="ydieresis.sc" horiz-adv-x="1228" 
d="M520 1706v-307h-235v307h235zM942 1706v-307h-235v307h235zM733 0h-235v403l-461 842h256l328 -624l323 624h248l-459 -842v-403z" />
    <glyph glyph-name="ygrave.sc" horiz-adv-x="1228" 
d="M532 1706l230 -307h-205l-326 307h301zM733 0h-235v403l-461 842h256l328 -624l323 624h248l-459 -842v-403z" />
    <glyph glyph-name="z.sc" horiz-adv-x="1079" 
d="M1010 0h-938v174l641 875h-607v196h885v-178l-633 -870h652v-197z" />
    <glyph glyph-name="zacute.sc" horiz-adv-x="1079" 
d="M598 1399h-203l230 307h301zM1010 0h-938v174l641 875h-607v196h885v-178l-633 -870h652v-197z" />
    <glyph glyph-name="zcaron.sc" horiz-adv-x="1079" 
d="M236 1706h186l117 -170l118 170h187l-160 -307h-289zM1010 0h-938v174l641 875h-607v196h885v-178l-633 -870h652v-197z" />
    <glyph glyph-name="zdotaccent.sc" horiz-adv-x="1079" 
d="M422 1399v307h235v-307h-235zM1010 0h-938v174l641 875h-607v196h885v-178l-633 -870h652v-197z" />
    <glyph glyph-name="a.subs.ss01" horiz-adv-x="786" 
d="M326 -16q-131 0 -210 96t-79 246v10q0 150 75.5 245t206.5 95q74 0 127.5 -32.5t79.5 -86.5l6 102h197v-659h-197l-6 109q-22 -52 -74.5 -88.5t-125.5 -36.5zM385 141q139 0 139 185v10q0 184 -139 184q-137 0 -137 -184v-10q0 -185 137 -185z" />
    <glyph glyph-name="a.sups.ss01" horiz-adv-x="786" 
d="M326 778q-131 0 -210 96t-79 246v10q0 150 75.5 245t206.5 95q74 0 127.5 -32.5t79.5 -85.5l6 102h197v-659h-197l-6 108q-22 -52 -74.5 -88.5t-125.5 -36.5zM385 936q139 0 139 184v10q0 185 -139 185q-137 0 -137 -185v-10q0 -184 137 -184z" />
    <glyph glyph-name="a.subs" horiz-adv-x="718" 
d="M248 -16q-95 0 -155 55.5t-60 142.5q0 84 51 134.5t147 62.5l228 29v45q0 37 -25 57t-72 20q-95 0 -104 -75h-199q4 104 88.5 162.5t221.5 58.5q135 0 216 -60t81 -161v-455h-199l-6 96q-61 -112 -213 -112zM322 127q57 0 97 32t40 83v43l-150 -19q-73 -9 -73 -69
q0 -31 23 -50.5t63 -19.5z" />
    <glyph glyph-name="b.subs" horiz-adv-x="786" 
d="M461 -16q-73 0 -126.5 37.5t-74.5 89.5l-6 -111h-195v946h209v-375q29 48 80.5 76.5t118.5 28.5q131 0 207 -95t76 -245v-10q0 -150 -79 -246t-210 -96zM399 141q140 0 140 185v10q0 184 -140 184q-137 0 -137 -184v-10q0 -185 137 -185z" />
    <glyph glyph-name="c.subs" horiz-adv-x="722" 
d="M375 -16q-155 0 -246.5 93t-91.5 249v10q0 155 91 247.5t247 92.5q134 0 218 -71.5t99 -203.5h-205q-7 55 -32.5 86t-81.5 31q-125 0 -125 -182v-10q0 -185 125 -185q98 0 114 115h205q-13 -128 -98.5 -200t-218.5 -72z" />
    <glyph glyph-name="d.subs" horiz-adv-x="786" 
d="M326 -16q-131 0 -210 96t-79 246v10q0 150 75.5 245t206.5 95q135 0 199 -105v375h211v-946h-197l-6 109q-22 -52 -74.5 -88.5t-125.5 -36.5zM385 141q139 0 139 185v10q0 184 -139 184q-137 0 -137 -184v-10q0 -185 137 -185z" />
    <glyph glyph-name="e.subs" horiz-adv-x="757" 
d="M387 -16q-162 0 -256 93t-94 249v10q0 154 95 247t253 93q170 0 257.5 -106.5t76.5 -284.5h-477q7 -76 42.5 -112t100.5 -36q50 0 82 21t43 55h205q-24 -104 -110 -166.5t-218 -62.5zM244 399h266q-3 57 -35 91t-90 34q-121 0 -141 -125z" />
    <glyph glyph-name="f.subs" horiz-adv-x="528" 
d="M344 0h-211v510h-119v149h119v84q0 220 248 220q59 0 129 -19v-153q-54 12 -78 12q-47 0 -67.5 -17t-20.5 -55v-72h164v-149h-164v-510z" />
    <glyph glyph-name="g.subs" horiz-adv-x="786" 
d="M381 -233q-146 0 -230 56.5t-92 153.5h211q12 -67 119 -67q129 0 129 113v104q-28 -48 -78.5 -77.5t-117.5 -29.5q-130 0 -207.5 92.5t-77.5 229.5v14q0 135 78.5 227.5t208.5 92.5q73 0 126.5 -35.5t75.5 -85.5l6 104h197v-610q0 -136 -93.5 -209t-254.5 -73zM385 178
q69 0 104 43.5t35 120.5v14q0 77 -35 120.5t-104 43.5q-67 0 -102 -43.5t-35 -120.5v-14q0 -77 35 -120.5t102 -43.5z" />
    <glyph glyph-name="h.subs" horiz-adv-x="755" 
d="M268 0h-209v946h209v-379q69 109 203 109q120 0 175.5 -68t55.5 -184v-424h-208v371q0 139 -105 139q-56 0 -88.5 -39t-32.5 -109v-362z" />
    <glyph glyph-name="i.subs" horiz-adv-x="329" 
d="M272 739h-217v207h217v-207zM268 0h-209v659h209v-659z" />
    <glyph glyph-name="j.subs" horiz-adv-x="352" 
d="M297 739h-215v207h215v-207zM63 -233q-63 0 -110 18v152q30 -15 61 -15q72 0 72 76v661h209v-675q0 -217 -232 -217z" />
    <glyph glyph-name="k.subs" horiz-adv-x="733" 
d="M268 0h-209v946h209v-514l217 227h232l-250 -258l260 -401h-229l-174 274l-56 -57v-217z" />
    <glyph glyph-name="l.subs" horiz-adv-x="325" 
d="M268 0h-209v946h209v-946z" />
    <glyph glyph-name="m.subs" horiz-adv-x="1153" 
d="M268 0h-209v659h199l6 -100q27 49 77 83t120 34q152 0 201 -121q70 121 210 121q228 0 228 -258v-418h-209v379q0 133 -96 133q-53 0 -82 -40t-29 -118v-354h-209v379q0 133 -94 133q-53 0 -83 -39.5t-30 -116.5v-356z" />
    <glyph glyph-name="n.subs" horiz-adv-x="755" 
d="M268 0h-209v659h199l6 -100q26 50 78 83.5t129 33.5q120 0 175.5 -68t55.5 -184v-424h-208v371q0 139 -105 139q-56 0 -88.5 -39t-32.5 -109v-362z" />
    <glyph glyph-name="o.subs" horiz-adv-x="770" 
d="M385 -16q-156 0 -252 95t-96 247v10q0 150 96 245t252 95t251 -95t95 -245v-10q0 -152 -95 -247t-251 -95zM385 141q135 0 135 185v10q0 182 -135 182q-137 0 -137 -182v-10q0 -185 137 -185z" />
    <glyph glyph-name="p.subs" horiz-adv-x="786" 
d="M268 -217h-209v876h195l6 -108q22 53 75.5 89t127.5 36q131 0 209 -95.5t78 -244.5v-10q0 -149 -77 -245.5t-206 -96.5q-67 0 -119 29.5t-80 76.5v-307zM399 141q140 0 140 185v10q0 184 -140 184q-137 0 -137 -184v-10q0 -185 137 -185z" />
    <glyph glyph-name="q.subs" horiz-adv-x="786" 
d="M729 -217h-211v307q-28 -47 -79 -76.5t-117 -29.5q-131 0 -208 95.5t-77 246.5v10q0 149 78 244.5t209 95.5q73 0 126.5 -35.5t75.5 -85.5l6 104h197v-876zM385 141q139 0 139 185v10q0 184 -139 184q-137 0 -137 -184v-10q0 -185 137 -185z" />
    <glyph glyph-name="r.subs" horiz-adv-x="520" 
d="M268 0h-209v659h199l6 -127q23 63 72 101.5t119 38.5q29 0 41 -4v-199q-36 4 -54 4q-174 0 -174 -168v-305z" />
    <glyph glyph-name="s.subs" horiz-adv-x="677" 
d="M344 -16q-142 0 -224 58.5t-89 170.5h198q5 -40 35 -63t82 -23q46 0 71 15.5t25 43.5q0 29 -28 46.5t-113 31.5q-134 22 -193 68t-59 135q0 95 79.5 152t209.5 57q135 0 212 -58t85 -159h-195q-4 38 -31.5 58t-72.5 20q-40 0 -63 -16.5t-23 -43.5t27.5 -42t107.5 -27
q141 -20 201.5 -67.5t60.5 -133.5q0 -101 -81.5 -162t-221.5 -61z" />
    <glyph glyph-name="t.subs" horiz-adv-x="546" 
d="M381 -16q-246 0 -246 217v309h-119v149h119v211h209v-211h164v-149h-164v-295q0 -39 20 -55.5t68 -16.5q37 0 78 13v-154q-56 -18 -129 -18z" />
    <glyph glyph-name="u.subs" horiz-adv-x="747" 
d="M285 -16q-116 0 -173 67t-57 189v419h209v-378q0 -129 98 -129q54 0 85.5 38.5t31.5 112.5v356h211v-659h-203l-4 96q-29 -48 -80.5 -80t-117.5 -32z" />
    <glyph glyph-name="v.subs" horiz-adv-x="722" 
d="M477 0h-229l-240 659h221l138 -450l137 450h209z" />
    <glyph glyph-name="w.subs" horiz-adv-x="1060" 
d="M420 0h-219l-193 659h211l107 -440l104 440h203l106 -444l109 444h205l-193 -659h-221l-109 432z" />
    <glyph glyph-name="x.subs" horiz-adv-x="731" 
d="M231 0h-223l236 340l-224 319h236l113 -174l116 174h222l-222 -319l236 -340h-236l-127 197z" />
    <glyph glyph-name="y.subs" horiz-adv-x="724" 
d="M387 -217h-215l86 225l-250 651h221l140 -428l135 428h213z" />
    <glyph glyph-name="z.subs" horiz-adv-x="645" 
d="M610 0h-571v147l303 353h-285v159h539v-141l-301 -356h315v-162z" />
    <glyph glyph-name="a.sups" horiz-adv-x="718" 
d="M248 778q-95 0 -155 56t-60 143q0 83 51 134t147 63l228 28v45q0 37 -25 57.5t-72 20.5q-95 0 -104 -76h-199q4 104 88.5 162.5t221.5 58.5q135 0 216 -60t81 -161v-454h-199l-6 96q-29 -54 -84.5 -83.5t-128.5 -29.5zM322 922q57 0 97 31.5t40 82.5v43l-150 -18
q-73 -9 -73 -70q0 -31 22.5 -50t63.5 -19z" />
    <glyph glyph-name="b.sups" horiz-adv-x="786" 
d="M461 778q-73 0 -126.5 37.5t-74.5 89.5l-6 -110h-195v946h209v-375q29 48 80.5 76t118.5 28q131 0 207 -95t76 -245v-10q0 -150 -79 -246t-210 -96zM399 936q140 0 140 184v10q0 185 -140 185q-137 0 -137 -185v-10q0 -184 137 -184z" />
    <glyph glyph-name="c.sups" horiz-adv-x="722" 
d="M375 778q-155 0 -246.5 93t-91.5 249v10q0 155 91 247.5t247 92.5q134 0 218 -71t99 -203h-205q-7 55 -32.5 86t-81.5 31q-125 0 -125 -183v-10q0 -184 125 -184q98 0 114 115h205q-13 -128 -98.5 -200.5t-218.5 -72.5z" />
    <glyph glyph-name="d.sups" horiz-adv-x="786" 
d="M326 778q-131 0 -210 96t-79 246v10q0 150 75.5 245t206.5 95q136 0 199 -104v375h211v-946h-197l-6 108q-22 -52 -74.5 -88.5t-125.5 -36.5zM385 936q139 0 139 184v10q0 185 -139 185q-137 0 -137 -185v-10q0 -184 137 -184z" />
    <glyph glyph-name="e.sups" horiz-adv-x="757" 
d="M387 778q-162 0 -256 93t-94 249v10q0 154 95 247t253 93q170 0 257.5 -106.5t76.5 -284.5h-477q7 -76 42.5 -111.5t100.5 -35.5q50 0 82 21t43 55h205q-24 -104 -110 -167t-218 -63zM244 1194h266q-3 57 -35 91t-90 34q-121 0 -141 -125z" />
    <glyph glyph-name="f.sups" horiz-adv-x="528" 
d="M344 795h-211v510h-119v149h119v84q0 219 248 219q62 0 129 -18v-154q-54 12 -78 12q-47 0 -67.5 -16.5t-20.5 -54.5v-72h164v-149h-164v-510z" />
    <glyph glyph-name="g.sups" horiz-adv-x="786" 
d="M381 561q-145 0 -229.5 57t-92.5 154h211q12 -67 119 -67q129 0 129 112v105q-28 -48 -78.5 -77.5t-117.5 -29.5q-130 0 -207.5 92.5t-77.5 229.5v14q0 135 78.5 227t208.5 92q73 0 126.5 -35t75.5 -85l6 104h197v-610q0 -136 -93.5 -209.5t-254.5 -73.5zM385 973
q69 0 104 43.5t35 120.5v14q0 77 -35 120.5t-104 43.5q-67 0 -102 -43.5t-35 -120.5v-14q0 -77 35 -120.5t102 -43.5z" />
    <glyph glyph-name="h.sups" horiz-adv-x="755" 
d="M268 795h-209v946h209v-379q69 108 203 108q120 0 175.5 -67.5t55.5 -183.5v-424h-208v370q0 140 -105 140q-56 0 -88.5 -39t-32.5 -109v-362z" />
    <glyph glyph-name="i.sups" horiz-adv-x="329" 
d="M272 1534h-217v207h217v-207zM268 795h-209v659h209v-659z" />
    <glyph glyph-name="j.sups" horiz-adv-x="352" 
d="M297 1534h-215v207h215v-207zM63 561q-61 0 -110 19v151q28 -14 61 -14q72 0 72 76v661h209v-676q0 -217 -232 -217z" />
    <glyph glyph-name="k.sups" horiz-adv-x="733" 
d="M268 795h-209v946h209v-514l217 227h232l-250 -258l260 -401h-229l-174 274l-56 -57v-217z" />
    <glyph glyph-name="l.sups" horiz-adv-x="325" 
d="M268 795h-209v946h209v-946z" />
    <glyph glyph-name="m.sups" horiz-adv-x="1153" 
d="M268 795h-209v659h199l6 -100q27 49 76.5 82.5t120.5 33.5q153 0 201 -120q70 120 210 120q228 0 228 -258v-417h-209v379q0 133 -96 133q-53 0 -82 -40t-29 -118v-354h-209v379q0 133 -94 133q-53 0 -83 -39.5t-30 -116.5v-356z" />
    <glyph glyph-name="n.sups" horiz-adv-x="755" 
d="M268 795h-209v659h199l6 -100q26 50 78 83t129 33q120 0 175.5 -67.5t55.5 -183.5v-424h-208v370q0 140 -105 140q-56 0 -88.5 -39t-32.5 -109v-362z" />
    <glyph glyph-name="o.sups" horiz-adv-x="770" 
d="M385 778q-156 0 -252 95t-96 247v10q0 150 96 245t252 95t251 -95t95 -245v-10q0 -152 -95 -247t-251 -95zM385 936q135 0 135 184v10q0 183 -135 183q-137 0 -137 -183v-10q0 -184 137 -184z" />
    <glyph glyph-name="p.sups" horiz-adv-x="786" 
d="M268 578h-209v876h195l6 -108q22 53 75.5 88.5t127.5 35.5q131 0 209 -95.5t78 -244.5v-10q0 -149 -77 -245.5t-206 -96.5q-67 0 -119 30t-80 77v-307zM399 936q140 0 140 184v10q0 185 -140 185q-137 0 -137 -185v-10q0 -184 137 -184z" />
    <glyph glyph-name="q.sups" horiz-adv-x="786" 
d="M729 578h-211v307q-28 -47 -79 -77t-117 -30q-131 0 -208 95.5t-77 246.5v10q0 149 78 244.5t209 95.5q73 0 126.5 -35t75.5 -85l6 104h197v-876zM385 936q139 0 139 184v10q0 185 -139 185q-137 0 -137 -185v-10q0 -184 137 -184z" />
    <glyph glyph-name="r.sups" horiz-adv-x="520" 
d="M268 795h-209v659h199l6 -127q23 62 72 100.5t119 38.5q29 0 41 -4v-198q-36 4 -54 4q-174 0 -174 -168v-305z" />
    <glyph glyph-name="s.sups" horiz-adv-x="677" 
d="M344 778q-142 0 -224 59t-89 171h198q5 -40 35 -63t82 -23q46 0 71 15.5t25 43.5q0 29 -28 46.5t-113 31.5q-134 22 -193 68t-59 135q0 95 79.5 151.5t209.5 56.5q135 0 212 -58t85 -159h-195q-4 38 -31.5 58t-72.5 20q-41 0 -63.5 -16t-22.5 -43q0 -28 27.5 -43
t107.5 -27q141 -20 201.5 -67.5t60.5 -133.5q0 -101 -81.5 -162t-221.5 -61z" />
    <glyph glyph-name="t.sups" horiz-adv-x="546" 
d="M381 778q-246 0 -246 217v310h-119v149h119v211h209v-211h164v-149h-164v-295q0 -39 20 -55.5t68 -16.5q41 0 78 12v-153q-59 -19 -129 -19z" />
    <glyph glyph-name="u.sups" horiz-adv-x="747" 
d="M285 778q-116 0 -173 67t-57 189v420h209v-379q0 -129 98 -129q54 0 85.5 38.5t31.5 113.5v356h211v-659h-203l-4 96q-29 -49 -80.5 -81t-117.5 -32z" />
    <glyph glyph-name="v.sups" horiz-adv-x="722" 
d="M477 795h-229l-240 659h221l138 -450l137 450h209z" />
    <glyph glyph-name="w.sups" horiz-adv-x="1060" 
d="M420 795h-219l-193 659h211l107 -440l104 440h203l106 -444l109 444h205l-193 -659h-221l-109 432z" />
    <glyph glyph-name="x.sups" horiz-adv-x="731" 
d="M231 795h-223l236 340l-224 319h236l113 -174l116 174h222l-222 -319l236 -340h-236l-127 196z" />
    <glyph glyph-name="y.sups" horiz-adv-x="724" 
d="M387 578h-215l86 225l-250 651h221l140 -428l135 428h213z" />
    <glyph glyph-name="z.sups" horiz-adv-x="645" 
d="M610 795h-571v147l303 352h-285v160h539v-141l-301 -357h315v-161z" />
    <glyph glyph-name="zero.zero" horiz-adv-x="1259" 
d="M629 1481q262 0 401 -195t139 -538v-41q0 -346 -138 -540t-402 -194q-259 0 -399 195t-140 539v41q0 342 140 537.5t399 195.5zM334 758v-62q0 -92 10 -180l533 590q-67 178 -248 178q-150 0 -222.5 -130t-72.5 -396zM926 696v62q0 85 -11 182l-532 -590
q70 -180 246 -180q154 0 225.5 128.5t71.5 397.5z" />
    <glyph glyph-name="zero.lf" horiz-adv-x="1259" 
d="M629 -27q-259 0 -399 195t-140 539v41q0 342 140 537.5t399 195.5q262 0 401 -195t139 -538v-41q0 -346 -138 -540t-402 -194zM629 170q154 0 225.5 128.5t71.5 397.5v62q0 268 -71.5 397t-225.5 129q-150 0 -222.5 -130t-72.5 -396v-62q0 -267 72.5 -396.5t222.5 -129.5
z" />
    </font>
</defs>
</svg>
